{
.appVersion = "1352";
DisplayStrings = (
"/nbspace",
abcdefghijklmnopqrstuvwxyz,
ABCDEFGHIJKLMNOPQRSTUVWXYZ,
"HH0H1HH2HH3H\012HH4HH5HH6HH\012HH/Placeholder HO/Placeholder OOHH/Placeholder H\0120/Placeholder 0/space 1/Placeholder 1/space 2/Placeholder 2/space 3/Placeholder 3/space 4/Placeholder 4/space 5/Placeholder 5/space \0126/Placeholder 6/space 7/Placeholder 7/space 8/Placeholder 8/space 9/Placeholder 9\012/zero.lf/one.lf/two.lf/three.lf/four.lf/five.lf/six.lf/seven.lf/eight.lf/nine.lf \012nn/Placeholder no/Placeholder oo/space HH/Placeholder HO/Placeholder OO\012/Euro/cedi ¢/colonsign ¤0$/dong/florin/franc/guarani K/kip/lira 4/liraTurkish/manat/naira/peseta/peso/ruble/rupeeIndian £/won ¥/nbspace"
);
copyright = "Copyright 2008-2021 The Grey Qo Project Authors (https://github.com/googlefonts/grey-qo)";
customParameters = (
{
name = licenseURL;
value = "https://scripts.sil.org/OFL";
},
{
name = license;
value = "This Font Software is licensed under the SIL Open Font License, Version 1.1. This license is available with a FAQ at: https://scripts.sil.org/OFL";
},
{
name = "Disable Subroutines";
value = 1;
},
{
name = glyphOrder;
value = (
.notdef,
CR,
NULL,
space,
nbspace
);
},
{
name = fsType;
value = (
);
},
{
name = "Use Typo Metrics";
value = 1;
},
{
name = Axes;
value = (
{
Name = Weight;
Tag = wght;
}
);
}
);
date = "2021-08-23 17:20:57 +0000";
designer = "Robert E. Leuschke";
designerURL = www.typesetit.com;
disablesAutomaticAlignment = 1;
disablesNiceNames = 1;
familyName = "Grey Qo";
featurePrefixes = (
{
automatic = 1;
code = "languagesystem DFLT dflt;\012\012languagesystem latn dflt;\012languagesystem latn AZE;\012languagesystem latn CRT;\012languagesystem latn KAZ;\012languagesystem latn TAT;\012languagesystem latn TRK;\012languagesystem latn ROM;\012languagesystem latn MOL;\012languagesystem latn CAT;\012";
name = Languagesystems;
}
);
features = (
{
automatic = 1;
code = "feature locl;\012feature sups;\012feature frac;\012feature ordn;\012";

glyphs = (
{
glyphname = .notdef;
lastChange = "2021-08-23 17:44:31 +0000";
layers = (
{
layerId = "C2A7C206-1962-4FAA-88DB-FE8C23752EC9";
paths = (
{
closed = 1;
nodes = (
"50 0 LINE",
"320 0 LINE",
"320 534 LINE",
"50 534 LINE"
);
},
{
closed = 1;
nodes = (
"103 53 LINE",
"183 236 LINE",
"263 53 LINE"
);
},
{
closed = 1;
nodes = (
"94 439 LINE",
"167 271 LINE",
"94 106 LINE"
);
},
{
closed = 1;
nodes = (
"272 104 LINE",
"198 271 LINE",
"272 441 LINE"
);
},
{
closed = 1;
nodes = (
"106 480 LINE",
"259 480 LINE",
"183 307 LINE"
);
}
);
width = 370;
}
);
note = .notdef;
},
{
glyphname = A;
lastChange = "2021-08-23 17:44:31 +0000";
layers = (
{
layerId = "C2A7C206-1962-4FAA-88DB-FE8C23752EC9";
paths = (
{
closed = 1;
nodes = (
"247 -14 OFFCURVE",
"336 93 OFFCURVE",
"413 204 CURVE",
"433 208 OFFCURVE",
"469 215 OFFCURVE",
"503 218 CURVE SMOOTH",
"507 218 OFFCURVE",
"510 219 OFFCURVE",
"514 219 CURVE",
"498 179 OFFCURVE",
"482 135 OFFCURVE",
"473 99 CURVE SMOOTH",
"469 81 OFFCURVE",
"466 64 OFFCURVE",
"466 49 CURVE SMOOTH",
"466 19 OFFCURVE",
"475 -4 OFFCURVE",
"496 -9 CURVE SMOOTH",
"500 -10 OFFCURVE",
"504 -11 OFFCURVE",
"508 -11 CURVE SMOOTH",
"556 -11 OFFCURVE",
"612 54 OFFCURVE",
"638 85 CURVE SMOOTH",
"655 106 OFFCURVE",
"674 131 OFFCURVE",
"689 152 CURVE SMOOTH",
"691 155 OFFCURVE",
"682 157 OFFCURVE",
"681 155 CURVE",
"668 139 OFFCURVE",
"637 98 OFFCURVE",
"633 94 CURVE SMOOTH",
"610 66 OFFCURVE",
"566 25 OFFCURVE",
"539 25 CURVE SMOOTH",
"524 25 OFFCURVE",
"514 37 OFFCURVE",
"514 68 CURVE SMOOTH",
"514 76 OFFCURVE",
"514 86 OFFCURVE",
"516 98 CURVE SMOOTH",
"522 139 OFFCURVE",
"535 189 OFFCURVE",
"545 219 CURVE",
"568 217 OFFCURVE",
"584 211 OFFCURVE",
"584 200 CURVE SMOOTH",
"584 197 OFFCURVE",
"584 195 OFFCURVE",
"582 192 CURVE SMOOTH",
"577 181 OFFCURVE",
"595 182 OFFCURVE",
"595 201 CURVE SMOOTH",
"595 215 OFFCURVE",
"579 232 OFFCURVE",
"550 234 CURVE",
"576 318 OFFCURVE",
"607 401 OFFCURVE",
"643 480 CURVE SMOOTH",
"651 497 OFFCURVE",
"666 518 OFFCURVE",
"678 527 CURVE SMOOTH",
"680 529 OFFCURVE",
"681 538 OFFCURVE",
"674 538 CURVE SMOOTH",
"673 538 OFFCURVE",
"671 537 OFFCURVE",
"669 536 CURVE SMOOTH",
"653 529 OFFCURVE",
"629 504 OFFCURVE",
"622 496 CURVE",
"606 493 OFFCURVE",
"595 487 OFFCURVE",
"586 476 CURVE SMOOTH",
"572 460 OFFCURVE",
"561 445 OFFCURVE",
"546 426 CURVE SMOOTH",
"506 371 OFFCURVE",
"457 296 OFFCURVE",
"406 227 CURVE",
"369 222 OFFCURVE",
"333 215 OFFCURVE",
"305 211 CURVE SMOOTH",
"292 209 OFFCURVE",
"274 197 OFFCURVE",
"266 187 CURVE SMOOTH",
"262 181 OFFCURVE",
"261 175 OFFCURVE",
"276 175 CURVE SMOOTH",
"280 175 OFFCURVE",
"285 175 OFFCURVE",
"291 176 CURVE SMOOTH",
"303 177 OFFCURVE",
"319 182 OFFCURVE",
"338 187 CURVE SMOOTH",
"352 191 OFFCURVE",
"368 195 OFFCURVE",
"384 198 CURVE",
"349 153 OFFCURVE",
"313 112 OFFCURVE",
"279 84 CURVE SMOOTH",
"233 47 OFFCURVE",
"185 27 OFFCURVE",
"144 27 CURVE SMOOTH",
"84 27 OFFCURVE",
"38 70 OFFCURVE",
"34 166 CURVE",
"33 169 OFFCURVE",
"38 179 OFFCURVE",
"38 185 CURVE SMOOTH",
"38 187 OFFCURVE",
"37 189 OFFCURVE",
"35 189 CURVE SMOOTH",
"30 189 OFFCURVE",
"23 181 OFFCURVE",
"21 169 CURVE SMOOTH",
"17 154 OFFCURVE",
"15 138 OFFCURVE",
"15 123 CURVE SMOOTH",
"15 51 OFFCURVE",
"56 -14 OFFCURVE",
"141 -14 CURVE SMOOTH"
);
},
{
closed = 1;
nodes = (
"188 167 OFFCURVE",
"230 195 OFFCURVE",
"230 237 CURVE SMOOTH",
"230 281 OFFCURVE",
"179 320 OFFCURVE",
"179 367 CURVE SMOOTH",
"179 405 OFFCURVE",
"209 433 OFFCURVE",
"270 450 CURVE SMOOTH",
"363 475 OFFCURVE",
"629 514 OFFCURVE",
"666 554 CURVE SMOOTH",
"670 558 OFFCURVE",
"669 563 OFFCURVE",
"665 563 CURVE SMOOTH",
"664 563 OFFCURVE",
"663 563 OFFCURVE",
"661 561 CURVE SMOOTH",
"637 535 OFFCURVE",
"440 504 OFFCURVE",
"358 494 CURVE SMOOTH",
"280 484 OFFCURVE",
"156 474 OFFCURVE",
"156 390 CURVE SMOOTH",
"156 373 OFFCURVE",
"160 354 OFFCURVE",
"171 332 CURVE SMOOTH",
"179 314 OFFCURVE",
"193 297 OFFCURVE",
"200 278 CURVE SMOOTH",
"203 269 OFFCURVE",
"205 260 OFFCURVE",
"205 251 CURVE SMOOTH",
"205 209 OFFCURVE",
"168 176 OFFCURVE",
"143 176 CURVE SMOOTH",
"140 176 OFFCURVE",
"137 177 OFFCURVE",
"134 178 CURVE",
"129 181 OFFCURVE",
"125 179 OFFCURVE",
"125 176 CURVE SMOOTH",
"125 175 OFFCURVE",
"126 173 OFFCURVE",
"129 172 CURVE",
"136 168 OFFCURVE",
"144 167 OFFCURVE",
"153 167 CURVE SMOOTH"
);
},
{
closed = 1;
nodes = (
"474 295 OFFCURVE",
"514 359 OFFCURVE",
"550 402 CURVE SMOOTH",
"573 428 OFFCURVE",
"591 427 OFFCURVE",
"591 423 CURVE SMOOTH",
"591 413 OFFCURVE",
"569 355 OFFCURVE",
"546 296 CURVE SMOOTH",
"540 280 OFFCURVE",
"531 259 OFFCURVE",
"521 235 CURVE",
"494 235 OFFCURVE",
"464 234 OFFCURVE",
"431 231 CURVE"
);
}
);
width = 591;
}
);
note = A;
unicode = 0041;
},
{
color = 11;
glyphname = Aacute;
lastChange = "2021-08-23 17:44:31 +0000";
layers = (
{
layerId = "C2A7C206-1962-4FAA-88DB-FE8C23752EC9";
paths = (
{
closed = 1;
nodes = (
"247 -14 OFFCURVE",
"336 93 OFFCURVE",
"413 204 CURVE",
"433 208 OFFCURVE",
"469 215 OFFCURVE",
"503 218 CURVE SMOOTH",
"507 218 OFFCURVE",
"510 219 OFFCURVE",
"514 219 CURVE",
"498 179 OFFCURVE",
"482 135 OFFCURVE",
"473 99 CURVE SMOOTH",
"469 81 OFFCURVE",
"466 64 OFFCURVE",
"466 49 CURVE SMOOTH",
"466 19 OFFCURVE",
"475 -4 OFFCURVE",
"496 -9 CURVE SMOOTH",
"500 -10 OFFCURVE",
"504 -11 OFFCURVE",
"508 -11 CURVE SMOOTH",
"556 -11 OFFCURVE",
"612 54 OFFCURVE",
"638 85 CURVE SMOOTH",
"655 106 OFFCURVE",
"674 131 OFFCURVE",
"689 152 CURVE SMOOTH",
"691 155 OFFCURVE",
"682 157 OFFCURVE",
"681 155 CURVE",
"668 139 OFFCURVE",
"637 98 OFFCURVE",
"633 94 CURVE SMOOTH",
"610 66 OFFCURVE",
"566 25 OFFCURVE",
"539 25 CURVE SMOOTH",
"524 25 OFFCURVE",
"514 37 OFFCURVE",
"514 68 CURVE SMOOTH",
"514 76 OFFCURVE",
"514 86 OFFCURVE",
"516 98 CURVE SMOOTH",
"522 139 OFFCURVE",
"535 189 OFFCURVE",
"545 219 CURVE",
"568 217 OFFCURVE",
"584 211 OFFCURVE",
"584 200 CURVE SMOOTH",
"584 197 OFFCURVE",
"584 195 OFFCURVE",
"582 192 CURVE SMOOTH",
"577 181 OFFCURVE",
"595 182 OFFCURVE",
"595 201 CURVE SMOOTH",
"595 215 OFFCURVE",
"579 232 OFFCURVE",
"550 234 CURVE",
"576 318 OFFCURVE",
"607 401 OFFCURVE",
"643 480 CURVE SMOOTH",
"651 497 OFFCURVE",
"666 518 OFFCURVE",
"678 527 CURVE SMOOTH",
"680 529 OFFCURVE",
"681 538 OFFCURVE",
"674 538 CURVE SMOOTH",
"673 538 OFFCURVE",
"671 537 OFFCURVE",
"669 536 CURVE SMOOTH",
"653 529 OFFCURVE",
"629 504 OFFCURVE",
"622 496 CURVE",
"606 493 OFFCURVE",
"595 487 OFFCURVE",
"586 476 CURVE SMOOTH",
"572 460 OFFCURVE",
"561 445 OFFCURVE",
"546 426 CURVE SMOOTH",
"506 371 OFFCURVE",
"457 296 OFFCURVE",
"406 227 CURVE",
"369 222 OFFCURVE",
"333 215 OFFCURVE",
"305 211 CURVE SMOOTH",
"292 209 OFFCURVE",
"274 197 OFFCURVE",
"266 187 CURVE SMOOTH",
"262 181 OFFCURVE",
"261 175 OFFCURVE",
"276 175 CURVE SMOOTH",
"280 175 OFFCURVE",
"285 175 OFFCURVE",
"291 176 CURVE SMOOTH",
"303 177 OFFCURVE",
"319 182 OFFCURVE",
"338 187 CURVE SMOOTH",
"352 191 OFFCURVE",
"368 195 OFFCURVE",
"384 198 CURVE",
"349 153 OFFCURVE",
"313 112 OFFCURVE",
"279 84 CURVE SMOOTH",
"233 47 OFFCURVE",
"185 27 OFFCURVE",
"144 27 CURVE SMOOTH",
"84 27 OFFCURVE",
"38 70 OFFCURVE",
"34 166 CURVE",
"33 169 OFFCURVE",
"38 179 OFFCURVE",
"38 185 CURVE SMOOTH",
"38 187 OFFCURVE",
"37 189 OFFCURVE",
"35 189 CURVE SMOOTH",
"30 189 OFFCURVE",
"23 181 OFFCURVE",
"21 169 CURVE SMOOTH",
"17 154 OFFCURVE",
"15 138 OFFCURVE",
"15 123 CURVE SMOOTH",
"15 51 OFFCURVE",
"56 -14 OFFCURVE",
"141 -14 CURVE SMOOTH"
);
},
{
closed = 1;
nodes = (
"188 167 OFFCURVE",
"230 195 OFFCURVE",
"230 237 CURVE SMOOTH",
"230 281 OFFCURVE",
"179 320 OFFCURVE",
"179 367 CURVE SMOOTH",
"179 405 OFFCURVE",
"209 433 OFFCURVE",
"270 450 CURVE SMOOTH",
"363 475 OFFCURVE",
"629 514 OFFCURVE",
"666 554 CURVE SMOOTH",
"670 558 OFFCURVE",
"669 563 OFFCURVE",
"665 563 CURVE SMOOTH",
"664 563 OFFCURVE",
"663 563 OFFCURVE",
"661 561 CURVE SMOOTH",
"637 535 OFFCURVE",
"440 504 OFFCURVE",
"358 494 CURVE SMOOTH",
"280 484 OFFCURVE",
"156 474 OFFCURVE",
"156 390 CURVE SMOOTH",
"156 373 OFFCURVE",
"160 354 OFFCURVE",
"171 332 CURVE SMOOTH",
"179 314 OFFCURVE",
"193 297 OFFCURVE",
"200 278 CURVE SMOOTH",
"203 269 OFFCURVE",
"205 260 OFFCURVE",
"205 251 CURVE SMOOTH",
"205 209 OFFCURVE",
"168 176 OFFCURVE",
"143 176 CURVE SMOOTH",
"140 176 OFFCURVE",
"137 177 OFFCURVE",
"134 178 CURVE",
"129 181 OFFCURVE",
"125 179 OFFCURVE",
"125 176 CURVE SMOOTH",
"125 175 OFFCURVE",
"126 173 OFFCURVE",
"129 172 CURVE",
"136 168 OFFCURVE",
"144 167 OFFCURVE",
"153 167 CURVE SMOOTH"
);
},
{
closed = 1;
nodes = (
"474 295 OFFCURVE",
"514 359 OFFCURVE",
"550 402 CURVE SMOOTH",
"573 428 OFFCURVE",
"591 427 OFFCURVE",
"591 423 CURVE SMOOTH",
"591 413 OFFCURVE",
"569 355 OFFCURVE",
"546 296 CURVE SMOOTH",
"540 280 OFFCURVE",
"531 259 OFFCURVE",
"521 235 CURVE",
"494 235 OFFCURVE",
"464 234 OFFCURVE",
"431 231 CURVE"
);
},
{
closed = 1;
nodes = (
"615 571 OFFCURVE",
"620 574 OFFCURVE",
"703 627 CURVE SMOOTH",
"723 640 OFFCURVE",
"739 649 OFFCURVE",
"749 655 CURVE SMOOTH",
"754 659 OFFCURVE",
"758 663 OFFCURVE",
"761 668 CURVE SMOOTH",
"763 672 OFFCURVE",
"764 675 OFFCURVE",
"764 678 CURVE SMOOTH",
"764 685 OFFCURVE",
"760 691 OFFCURVE",
"753 691 CURVE SMOOTH",
"752 691 LINE SMOOTH",
"748 691 OFFCURVE",
"743 689 OFFCURVE",
"738 685 CURVE SMOOTH",
"719 673 OFFCURVE",
"687 650 OFFCURVE",
"644 618 CURVE SMOOTH",
"593 579 OFFCURVE",
"603 582 OFFCURVE",
"601 575 CURVE SMOOTH",
"600 572 OFFCURVE",
"603 571 OFFCURVE",
"605 571 CURVE SMOOTH"
);
}
);
width = 591;
}
);
note = Aacute;
unicode = 00C1;
},
{
color = 11;
glyphname = Acircumflex;
lastChange = "2021-08-23 17:44:31 +0000";
layers = (
{
layerId = "C2A7C206-1962-4FAA-88DB-FE8C23752EC9";
paths = (
{
closed = 1;
nodes = (
"247 -14 OFFCURVE",
"336 93 OFFCURVE",
"413 204 CURVE",
"433 208 OFFCURVE",
"469 215 OFFCURVE",
"503 218 CURVE SMOOTH",
"507 218 OFFCURVE",
"510 219 OFFCURVE",
"514 219 CURVE",
"498 179 OFFCURVE",
"482 135 OFFCURVE",
"473 99 CURVE SMOOTH",
"469 81 OFFCURVE",
"466 64 OFFCURVE",
"466 49 CURVE SMOOTH",
"466 19 OFFCURVE",
"475 -4 OFFCURVE",
"496 -9 CURVE SMOOTH",
"500 -10 OFFCURVE",
"504 -11 OFFCURVE",
"508 -11 CURVE SMOOTH",
"556 -11 OFFCURVE",
"612 54 OFFCURVE",
"638 85 CURVE SMOOTH",
"655 106 OFFCURVE",
"674 131 OFFCURVE",
"689 152 CURVE SMOOTH",
"691 155 OFFCURVE",
"682 157 OFFCURVE",
"681 155 CURVE",
"668 139 OFFCURVE",
"637 98 OFFCURVE",
"633 94 CURVE SMOOTH",
"610 66 OFFCURVE",
"566 25 OFFCURVE",
"539 25 CURVE SMOOTH",
"524 25 OFFCURVE",
"514 37 OFFCURVE",
"514 68 CURVE SMOOTH",
"514 76 OFFCURVE",
"514 86 OFFCURVE",
"516 98 CURVE SMOOTH",
"522 139 OFFCURVE",
"535 189 OFFCURVE",
"545 219 CURVE",
"568 217 OFFCURVE",
"584 211 OFFCURVE",
"584 200 CURVE SMOOTH",
"584 197 OFFCURVE",
"584 195 OFFCURVE",
"582 192 CURVE SMOOTH",
"577 181 OFFCURVE",
"595 182 OFFCURVE",
"595 201 CURVE SMOOTH",
"595 215 OFFCURVE",
"579 232 OFFCURVE",
"550 234 CURVE",
"576 318 OFFCURVE",
"607 401 OFFCURVE",
"643 480 CURVE SMOOTH",
"651 497 OFFCURVE",
"666 518 OFFCURVE",
"678 527 CURVE SMOOTH",
"680 529 OFFCURVE",
"681 538 OFFCURVE",
"674 538 CURVE SMOOTH",
"673 538 OFFCURVE",
"671 537 OFFCURVE",
"669 536 CURVE SMOOTH",
"653 529 OFFCURVE",
"629 504 OFFCURVE",
"622 496 CURVE",
"606 493 OFFCURVE",
"595 487 OFFCURVE",
"586 476 CURVE SMOOTH",
"572 460 OFFCURVE",
"561 445 OFFCURVE",
"546 426 CURVE SMOOTH",
"506 371 OFFCURVE",
"457 296 OFFCURVE",
"406 227 CURVE",
"369 222 OFFCURVE",
"333 215 OFFCURVE",
"305 211 CURVE SMOOTH",
"292 209 OFFCURVE",
"274 197 OFFCURVE",
"266 187 CURVE SMOOTH",
"262 181 OFFCURVE",
"261 175 OFFCURVE",
"276 175 CURVE SMOOTH",
"280 175 OFFCURVE",
"285 175 OFFCURVE",
"291 176 CURVE SMOOTH",
"303 177 OFFCURVE",
"319 182 OFFCURVE",
"338 187 CURVE SMOOTH",
"352 191 OFFCURVE",
"368 195 OFFCURVE",
"384 198 CURVE",
"349 153 OFFCURVE",
"313 112 OFFCURVE",
"279 84 CURVE SMOOTH",
"233 47 OFFCURVE",
"185 27 OFFCURVE",
"144 27 CURVE SMOOTH",
"84 27 OFFCURVE",
"38 70 OFFCURVE",
"34 166 CURVE",
"33 169 OFFCURVE",
"38 179 OFFCURVE",
"38 185 CURVE SMOOTH",
"38 187 OFFCURVE",
"37 189 OFFCURVE",
"35 189 CURVE SMOOTH",
"30 189 OFFCURVE",
"23 181 OFFCURVE",
"21 169 CURVE SMOOTH",
"17 154 OFFCURVE",
"15 138 OFFCURVE",
"15 123 CURVE SMOOTH",
"15 51 OFFCURVE",
"56 -14 OFFCURVE",
"141 -14 CURVE SMOOTH"
);
},
{
closed = 1;
nodes = (
"188 167 OFFCURVE",
"230 195 OFFCURVE",
"230 237 CURVE SMOOTH",
"230 281 OFFCURVE",
"179 320 OFFCURVE",
"179 367 CURVE SMOOTH",
"179 405 OFFCURVE",
"209 433 OFFCURVE",
"270 450 CURVE SMOOTH",
"363 475 OFFCURVE",
"629 514 OFFCURVE",
"666 554 CURVE SMOOTH",
"670 558 OFFCURVE",
"669 563 OFFCURVE",
"665 563 CURVE SMOOTH",
"664 563 OFFCURVE",
"663 563 OFFCURVE",
"661 561 CURVE SMOOTH",
"637 535 OFFCURVE",
"440 504 OFFCURVE",
"358 494 CURVE SMOOTH",
"280 484 OFFCURVE",
"156 474 OFFCURVE",
"156 390 CURVE SMOOTH",
"156 373 OFFCURVE",
"160 354 OFFCURVE",
"171 332 CURVE SMOOTH",
"179 314 OFFCURVE",
"193 297 OFFCURVE",
"200 278 CURVE SMOOTH",
"203 269 OFFCURVE",
"205 260 OFFCURVE",
"205 251 CURVE SMOOTH",
"205 209 OFFCURVE",
"168 176 OFFCURVE",
"143 176 CURVE SMOOTH",
"140 176 OFFCURVE",
"137 177 OFFCURVE",
"134 178 CURVE",
"129 181 OFFCURVE",
"125 179 OFFCURVE",
"125 176 CURVE SMOOTH",
"125 175 OFFCURVE",
"126 173 OFFCURVE",
"129 172 CURVE",
"136 168 OFFCURVE",
"144 167 OFFCURVE",
"153 167 CURVE SMOOTH"
);
},
{
closed = 1;
nodes = (
"474 295 OFFCURVE",
"514 359 OFFCURVE",
"550 402 CURVE SMOOTH",
"573 428 OFFCURVE",
"591 427 OFFCURVE",
"591 423 CURVE SMOOTH",
"591 413 OFFCURVE",
"569 355 OFFCURVE",
"546 296 CURVE SMOOTH",
"540 280 OFFCURVE",
"531 259 OFFCURVE",
"521 235 CURVE",
"494 235 OFFCURVE",
"464 234 OFFCURVE",
"431 231 CURVE"
);
},
{
closed = 1;
nodes = (
"741 578 OFFCURVE",
"743 580 OFFCURVE",
"744 582 CURVE",
"744 583 OFFCURVE",
"743 609 OFFCURVE",
"739 658 CURVE SMOOTH",
"739 659 OFFCURVE",
"737 661 OFFCURVE",
"730 661 CURVE SMOOTH",
"725 661 OFFCURVE",
"719 661 OFFCURVE",
"710 659 CURVE",
"581 582 LINE",
"582 579 OFFCURVE",
"584 578 OFFCURVE",
"589 578 CURVE SMOOTH",
"593 578 OFFCURVE",
"633 596 OFFCURVE",
"708 630 CURVE",
"725 582 LINE",
"727 579 OFFCURVE",
"730 577 OFFCURVE",
"735 577 CURVE SMOOTH"
);
}
);
width = 591;
}
);
note = Acircumflex;
unicode = 00C2;
},
{
color = 11;
glyphname = Adieresis;
lastChange = "2021-08-23 17:44:31 +0000";
layers = (
{
layerId = "C2A7C206-1962-4FAA-88DB-FE8C23752EC9";
paths = (
{
closed = 1;
nodes = (
"247 -14 OFFCURVE",
"336 93 OFFCURVE",
"413 204 CURVE",
"433 208 OFFCURVE",
"469 215 OFFCURVE",
"503 218 CURVE SMOOTH",
"507 218 OFFCURVE",
"510 219 OFFCURVE",
"514 219 CURVE",
"498 179 OFFCURVE",
"482 135 OFFCURVE",
"473 99 CURVE SMOOTH",
"469 81 OFFCURVE",
"466 64 OFFCURVE",
"466 49 CURVE SMOOTH",
"466 19 OFFCURVE",
"475 -4 OFFCURVE",
"496 -9 CURVE SMOOTH",
"500 -10 OFFCURVE",
"504 -11 OFFCURVE",
"508 -11 CURVE SMOOTH",
"556 -11 OFFCURVE",
"612 54 OFFCURVE",
"638 85 CURVE SMOOTH",
"655 106 OFFCURVE",
"674 131 OFFCURVE",
"689 152 CURVE SMOOTH",
"691 155 OFFCURVE",
"682 157 OFFCURVE",
"681 155 CURVE",
"668 139 OFFCURVE",
"637 98 OFFCURVE",
"633 94 CURVE SMOOTH",
"610 66 OFFCURVE",
"566 25 OFFCURVE",
"539 25 CURVE SMOOTH",
"524 25 OFFCURVE",
"514 37 OFFCURVE",
"514 68 CURVE SMOOTH",
"514 76 OFFCURVE",
"514 86 OFFCURVE",
"516 98 CURVE SMOOTH",
"522 139 OFFCURVE",
"535 189 OFFCURVE",
"545 219 CURVE",
"568 217 OFFCURVE",
"584 211 OFFCURVE",
"584 200 CURVE SMOOTH",
"584 197 OFFCURVE",
"584 195 OFFCURVE",
"582 192 CURVE SMOOTH",
"577 181 OFFCURVE",
"595 182 OFFCURVE",
"595 201 CURVE SMOOTH",
"595 215 OFFCURVE",
"579 232 OFFCURVE",
"550 234 CURVE",
"576 318 OFFCURVE",
"607 401 OFFCURVE",
"643 480 CURVE SMOOTH",
"651 497 OFFCURVE",
"666 518 OFFCURVE",
"678 527 CURVE SMOOTH",
"680 529 OFFCURVE",
"681 538 OFFCURVE",
"674 538 CURVE SMOOTH",
"673 538 OFFCURVE",
"671 537 OFFCURVE",
"669 536 CURVE SMOOTH",
"653 529 OFFCURVE",
"629 504 OFFCURVE",
"622 496 CURVE",
"606 493 OFFCURVE",
"595 487 OFFCURVE",
"586 476 CURVE SMOOTH",
"572 460 OFFCURVE",
"561 445 OFFCURVE",
"546 426 CURVE SMOOTH",
"506 371 OFFCURVE",
"457 296 OFFCURVE",
"406 227 CURVE",
"369 222 OFFCURVE",
"333 215 OFFCURVE",
"305 211 CURVE SMOOTH",
"292 209 OFFCURVE",
"274 197 OFFCURVE",
"266 187 CURVE SMOOTH",
"262 181 OFFCURVE",
"261 175 OFFCURVE",
"276 175 CURVE SMOOTH",
"280 175 OFFCURVE",
"285 175 OFFCURVE",
"291 176 CURVE SMOOTH",
"303 177 OFFCURVE",
"319 182 OFFCURVE",
"338 187 CURVE SMOOTH",
"352 191 OFFCURVE",
"368 195 OFFCURVE",
"384 198 CURVE",
"349 153 OFFCURVE",
"313 112 OFFCURVE",
"279 84 CURVE SMOOTH",
"233 47 OFFCURVE",
"185 27 OFFCURVE",
"144 27 CURVE SMOOTH",
"84 27 OFFCURVE",
"38 70 OFFCURVE",
"34 166 CURVE",
"33 169 OFFCURVE",
"38 179 OFFCURVE",
"38 185 CURVE SMOOTH",
"38 187 OFFCURVE",
"37 189 OFFCURVE",
"35 189 CURVE SMOOTH",
"30 189 OFFCURVE",
"23 181 OFFCURVE",
"21 169 CURVE SMOOTH",
"17 154 OFFCURVE",
"15 138 OFFCURVE",
"15 123 CURVE SMOOTH",
"15 51 OFFCURVE",
"56 -14 OFFCURVE",
"141 -14 CURVE SMOOTH"
);
},
{
closed = 1;
nodes = (
"188 167 OFFCURVE",
"230 195 OFFCURVE",
"230 237 CURVE SMOOTH",
"230 281 OFFCURVE",
"179 320 OFFCURVE",
"179 367 CURVE SMOOTH",
"179 405 OFFCURVE",
"209 433 OFFCURVE",
"270 450 CURVE SMOOTH",
"363 475 OFFCURVE",
"629 514 OFFCURVE",
"666 554 CURVE SMOOTH",
"670 558 OFFCURVE",
"669 563 OFFCURVE",
"665 563 CURVE SMOOTH",
"664 563 OFFCURVE",
"663 563 OFFCURVE",
"661 561 CURVE SMOOTH",
"637 535 OFFCURVE",
"440 504 OFFCURVE",
"358 494 CURVE SMOOTH",
"280 484 OFFCURVE",
"156 474 OFFCURVE",
"156 390 CURVE SMOOTH",
"156 373 OFFCURVE",
"160 354 OFFCURVE",
"171 332 CURVE SMOOTH",
"179 314 OFFCURVE",
"193 297 OFFCURVE",
"200 278 CURVE SMOOTH",
"203 269 OFFCURVE",
"205 260 OFFCURVE",
"205 251 CURVE SMOOTH",
"205 209 OFFCURVE",
"168 176 OFFCURVE",
"143 176 CURVE SMOOTH",
"140 176 OFFCURVE",
"137 177 OFFCURVE",
"134 178 CURVE",
"129 181 OFFCURVE",
"125 179 OFFCURVE",
"125 176 CURVE SMOOTH",
"125 175 OFFCURVE",
"126 173 OFFCURVE",
"129 172 CURVE",
"136 168 OFFCURVE",
"144 167 OFFCURVE",
"153 167 CURVE SMOOTH"
);
},
{
closed = 1;
nodes = (
"474 295 OFFCURVE",
"514 359 OFFCURVE",
"550 402 CURVE SMOOTH",
"573 428 OFFCURVE",
"591 427 OFFCURVE",
"591 423 CURVE SMOOTH",
"591 413 OFFCURVE",
"569 355 OFFCURVE",
"546 296 CURVE SMOOTH",
"540 280 OFFCURVE",
"531 259 OFFCURVE",
"521 235 CURVE",
"494 235 OFFCURVE",
"464 234 OFFCURVE",
"431 231 CURVE"
);
},
{
closed = 1;
nodes = (
"653 600 OFFCURVE",
"664 606 OFFCURVE",
"667 618 CURVE SMOOTH",
"668 622 OFFCURVE",
"672 628 OFFCURVE",
"677 638 CURVE",
"684 648 OFFCURVE",
"688 657 OFFCURVE",
"688 660 CURVE SMOOTH",
"688 662 OFFCURVE",
"687 663 OFFCURVE",
"683 664 CURVE",
"673 664 OFFCURVE",
"663 660 OFFCURVE",
"652 651 CURVE SMOOTH",
"641 642 OFFCURVE",
"634 633 OFFCURVE",
"631 623 CURVE SMOOTH",
"630 618 OFFCURVE",
"629 614 OFFCURVE",
"629 610 CURVE SMOOTH",
"629 604 OFFCURVE",
"631 600 OFFCURVE",
"637 600 CURVE SMOOTH"
);
},
{
closed = 1;
nodes = (
"750 600 OFFCURVE",
"761 606 OFFCURVE",
"765 618 CURVE SMOOTH",
"766 622 OFFCURVE",
"769 628 OFFCURVE",
"775 638 CURVE SMOOTH",
"781 647 OFFCURVE",
"784 655 OFFCURVE",
"786 659 CURVE",
"786 661 OFFCURVE",
"785 663 OFFCURVE",
"781 664 CURVE",
"771 664 OFFCURVE",
"760 660 OFFCURVE",
"749 651 CURVE SMOOTH",
"738 642 OFFCURVE",
"731 633 OFFCURVE",
"728 623 CURVE SMOOTH",
"727 618 OFFCURVE",
"726 614 OFFCURVE",
"726 611 CURVE SMOOTH",
"726 604 OFFCURVE",
"729 600 OFFCURVE",
"735 600 CURVE SMOOTH"
);
}
);
width = 591;
}
);
note = Adieresis;
unicode = 00C4;
},
{
color = 11;
glyphname = Agrave;
lastChange = "2021-08-23 17:44:31 +0000";
layers = (
{
layerId = "C2A7C206-1962-4FAA-88DB-FE8C23752EC9";
paths = (
{
closed = 1;
nodes = (
"247 -14 OFFCURVE",
"336 93 OFFCURVE",
"413 204 CURVE",
"433 208 OFFCURVE",
"469 215 OFFCURVE",
"503 218 CURVE SMOOTH",
"507 218 OFFCURVE",
"510 219 OFFCURVE",
"514 219 CURVE",
"498 179 OFFCURVE",
"482 135 OFFCURVE",
"473 99 CURVE SMOOTH",
"469 81 OFFCURVE",
"466 64 OFFCURVE",
"466 49 CURVE SMOOTH",
"466 19 OFFCURVE",
"475 -4 OFFCURVE",
"496 -9 CURVE SMOOTH",
"500 -10 OFFCURVE",
"504 -11 OFFCURVE",
"508 -11 CURVE SMOOTH",
"556 -11 OFFCURVE",
"612 54 OFFCURVE",
"638 85 CURVE SMOOTH",
"655 106 OFFCURVE",
"674 131 OFFCURVE",
"689 152 CURVE SMOOTH",
"691 155 OFFCURVE",
"682 157 OFFCURVE",
"681 155 CURVE",
"668 139 OFFCURVE",
"637 98 OFFCURVE",
"633 94 CURVE SMOOTH",
"610 66 OFFCURVE",
"566 25 OFFCURVE",
"539 25 CURVE SMOOTH",
"524 25 OFFCURVE",
"514 37 OFFCURVE",
"514 68 CURVE SMOOTH",
"514 76 OFFCURVE",
"514 86 OFFCURVE",
"516 98 CURVE SMOOTH",
"522 139 OFFCURVE",
"535 189 OFFCURVE",
"545 219 CURVE",
"568 217 OFFCURVE",
"584 211 OFFCURVE",
"584 200 CURVE SMOOTH",
"584 197 OFFCURVE",
"584 195 OFFCURVE",
"582 192 CURVE SMOOTH",
"577 181 OFFCURVE",
"595 182 OFFCURVE",
"595 201 CURVE SMOOTH",
"595 215 OFFCURVE",
"579 232 OFFCURVE",
"550 234 CURVE",
"576 318 OFFCURVE",
"607 401 OFFCURVE",
"643 480 CURVE SMOOTH",
"651 497 OFFCURVE",
"666 518 OFFCURVE",
"678 527 CURVE SMOOTH",
"680 529 OFFCURVE",
"681 538 OFFCURVE",
"674 538 CURVE SMOOTH",
"673 538 OFFCURVE",
"671 537 OFFCURVE",
"669 536 CURVE SMOOTH",
"653 529 OFFCURVE",
"629 504 OFFCURVE",
"622 496 CURVE",
"606 493 OFFCURVE",
"595 487 OFFCURVE",
"586 476 CURVE SMOOTH",
"572 460 OFFCURVE",
"561 445 OFFCURVE",
"546 426 CURVE SMOOTH",
"506 371 OFFCURVE",
"457 296 OFFCURVE",
"406 227 CURVE",
"369 222 OFFCURVE",
"333 215 OFFCURVE",
"305 211 CURVE SMOOTH",
"292 209 OFFCURVE",
"274 197 OFFCURVE",
"266 187 CURVE SMOOTH",
"262 181 OFFCURVE",
"261 175 OFFCURVE",
"276 175 CURVE SMOOTH",
"280 175 OFFCURVE",
"285 175 OFFCURVE",
"291 176 CURVE SMOOTH",
"303 177 OFFCURVE",
"319 182 OFFCURVE",
"338 187 CURVE SMOOTH",
"352 191 OFFCURVE",
"368 195 OFFCURVE",
"384 198 CURVE",
"349 153 OFFCURVE",
"313 112 OFFCURVE",
"279 84 CURVE SMOOTH",
"233 47 OFFCURVE",
"185 27 OFFCURVE",
"144 27 CURVE SMOOTH",
"84 27 OFFCURVE",
"38 70 OFFCURVE",
"34 166 CURVE",
"33 169 OFFCURVE",
"38 179 OFFCURVE",
"38 185 CURVE SMOOTH",
"38 187 OFFCURVE",
"37 189 OFFCURVE",
"35 189 CURVE SMOOTH",
"30 189 OFFCURVE",
"23 181 OFFCURVE",
"21 169 CURVE SMOOTH",
"17 154 OFFCURVE",
"15 138 OFFCURVE",
"15 123 CURVE SMOOTH",
"15 51 OFFCURVE",
"56 -14 OFFCURVE",
"141 -14 CURVE SMOOTH"
);
},
{
closed = 1;
nodes = (
"188 167 OFFCURVE",
"230 195 OFFCURVE",
"230 237 CURVE SMOOTH",
"230 281 OFFCURVE",
"179 320 OFFCURVE",
"179 367 CURVE SMOOTH",
"179 405 OFFCURVE",
"209 433 OFFCURVE",
"270 450 CURVE SMOOTH",
"363 475 OFFCURVE",
"629 514 OFFCURVE",
"666 554 CURVE SMOOTH",
"670 558 OFFCURVE",
"669 563 OFFCURVE",
"665 563 CURVE SMOOTH",
"664 563 OFFCURVE",
"663 563 OFFCURVE",
"661 561 CURVE SMOOTH",
"637 535 OFFCURVE",
"440 504 OFFCURVE",
"358 494 CURVE SMOOTH",
"280 484 OFFCURVE",
"156 474 OFFCURVE",
"156 390 CURVE SMOOTH",
"156 373 OFFCURVE",
"160 354 OFFCURVE",
"171 332 CURVE SMOOTH",
"179 314 OFFCURVE",
"193 297 OFFCURVE",
"200 278 CURVE SMOOTH",
"203 269 OFFCURVE",
"205 260 OFFCURVE",
"205 251 CURVE SMOOTH",
"205 209 OFFCURVE",
"168 176 OFFCURVE",
"143 176 CURVE SMOOTH",
"140 176 OFFCURVE",
"137 177 OFFCURVE",
"134 178 CURVE",
"129 181 OFFCURVE",
"125 179 OFFCURVE",
"125 176 CURVE SMOOTH",
"125 175 OFFCURVE",
"126 173 OFFCURVE",
"129 172 CURVE",
"136 168 OFFCURVE",
"144 167 OFFCURVE",
"153 167 CURVE SMOOTH"
);
},
{
closed = 1;
nodes = (
"474 295 OFFCURVE",
"514 359 OFFCURVE",
"550 402 CURVE SMOOTH",
"573 428 OFFCURVE",
"591 427 OFFCURVE",
"591 423 CURVE SMOOTH",
"591 413 OFFCURVE",
"569 355 OFFCURVE",
"546 296 CURVE SMOOTH",
"540 280 OFFCURVE",
"531 259 OFFCURVE",
"521 235 CURVE",
"494 235 OFFCURVE",
"464 234 OFFCURVE",
"431 231 CURVE"
);
},
{
closed = 1;
nodes = (
"717 584 OFFCURVE",
"718 586 OFFCURVE",
"718 587 CURVE",
"720 593 OFFCURVE",
"706 608 OFFCURVE",
"679 632 CURVE SMOOTH",
"653 655 OFFCURVE",
"637 668 OFFCURVE",
"633 668 CURVE SMOOTH",
"621 668 OFFCURVE",
"613 661 OFFCURVE",
"610 648 CURVE",
"608 644 OFFCURVE",
"610 640 OFFCURVE",
"613 637 CURVE SMOOTH",
"622 630 OFFCURVE",
"639 620 OFFCURVE",
"662 607 CURVE SMOOTH",
"689 591 OFFCURVE",
"706 583 OFFCURVE",
"713 583 CURVE"
);
}
);
width = 591;
}
);
note = Agrave;
unicode = 00C0;
},
{
color = 11;
glyphname = Aring;
lastChange = "2021-08-23 17:44:31 +0000";
layers = (
{
layerId = "C2A7C206-1962-4FAA-88DB-FE8C23752EC9";
paths = (
{
closed = 1;
nodes = (
"247 -14 OFFCURVE",
"336 93 OFFCURVE",
"413 204 CURVE",
"434 208 OFFCURVE",
"470 215 OFFCURVE",
"503 218 CURVE",
"507 219 OFFCURVE",
"511 219 OFFCURVE",
"515 219 CURVE",
"499 180 OFFCURVE",
"482 136 OFFCURVE",
"473 99 CURVE SMOOTH",
"469 81 OFFCURVE",
"466 64 OFFCURVE",
"466 49 CURVE SMOOTH",
"466 19 OFFCURVE",
"475 -4 OFFCURVE",
"496 -9 CURVE SMOOTH",
"500 -10 OFFCURVE",
"504 -11 OFFCURVE",
"508 -11 CURVE SMOOTH",
"556 -11 OFFCURVE",
"612 54 OFFCURVE",
"638 85 CURVE SMOOTH",
"655 106 OFFCURVE",
"674 131 OFFCURVE",
"689 152 CURVE SMOOTH",
"691 155 OFFCURVE",
"682 157 OFFCURVE",
"681 155 CURVE",
"668 139 OFFCURVE",
"637 98 OFFCURVE",
"633 94 CURVE SMOOTH",
"610 66 OFFCURVE",
"566 25 OFFCURVE",
"539 25 CURVE SMOOTH",
"524 25 OFFCURVE",
"514 37 OFFCURVE",
"514 68 CURVE SMOOTH",
"514 76 OFFCURVE",
"514 86 OFFCURVE",
"516 98 CURVE SMOOTH",
"522 140 OFFCURVE",
"536 189 OFFCURVE",
"545 219 CURVE",
"568 217 OFFCURVE",
"585 212 OFFCURVE",
"585 200 CURVE SMOOTH",
"585 198 OFFCURVE",
"584 195 OFFCURVE",
"582 192 CURVE",
"577 180 OFFCURVE",
"595 182 OFFCURVE",
"595 201 CURVE SMOOTH",
"595 216 OFFCURVE",
"580 232 OFFCURVE",
"550 234 CURVE",
"576 317 OFFCURVE",
"607 401 OFFCURVE",
"643 480 CURVE SMOOTH",
"651 497 OFFCURVE",
"666 518 OFFCURVE",
"678 527 CURVE",
"679 527 OFFCURVE",
"679 528 OFFCURVE",
"679 530 CURVE",
"691 533 OFFCURVE",
"703 539 OFFCURVE",
"715 548 CURVE SMOOTH",
"732 562 OFFCURVE",
"743 578 OFFCURVE",
"748 596 CURVE SMOOTH",
"750 603 OFFCURVE",
"751 608 OFFCURVE",
"751 613 CURVE SMOOTH",
"751 627 OFFCURVE",
"743 634 OFFCURVE",
"727 634 CURVE SMOOTH",
"710 634 OFFCURVE",
"695 626 OFFCURVE",
"683 611 CURVE",
"674 608 OFFCURVE",
"666 600 OFFCURVE",
"657 589 CURVE SMOOTH",
"648 577 OFFCURVE",
"643 566 OFFCURVE",
"640 556 CURVE SMOOTH",
"639 553 OFFCURVE",
"638 551 OFFCURVE",
"638 548 CURVE",
"578 526 OFFCURVE",
"427 502 OFFCURVE",
"358 494 CURVE SMOOTH",
"280 484 OFFCURVE",
"156 474 OFFCURVE",
"156 390 CURVE SMOOTH",
"156 373 OFFCURVE",
"160 354 OFFCURVE",
"171 332 CURVE SMOOTH",
"179 314 OFFCURVE",
"193 297 OFFCURVE",
"200 278 CURVE SMOOTH",
"203 269 OFFCURVE",
"205 260 OFFCURVE",
"205 251 CURVE SMOOTH",
"205 209 OFFCURVE",
"168 176 OFFCURVE",
"143 176 CURVE SMOOTH",
"140 176 OFFCURVE",
"137 177 OFFCURVE",
"134 178 CURVE",
"129 181 OFFCURVE",
"125 179 OFFCURVE",
"125 176 CURVE SMOOTH",
"125 175 OFFCURVE",
"126 173 OFFCURVE",
"129 172 CURVE",
"136 168 OFFCURVE",
"144 167 OFFCURVE",
"153 167 CURVE SMOOTH",
"188 167 OFFCURVE",
"230 195 OFFCURVE",
"230 237 CURVE SMOOTH",
"230 281 OFFCURVE",
"179 320 OFFCURVE",
"179 367 CURVE SMOOTH",
"179 405 OFFCURVE",
"209 433 OFFCURVE",
"270 450 CURVE SMOOTH",
"350 472 OFFCURVE",
"560 504 OFFCURVE",
"639 538 CURVE",
"642 532 OFFCURVE",
"647 529 OFFCURVE",
"656 528 CURVE",
"642 517 OFFCURVE",
"627 502 OFFCURVE",
"622 496 CURVE",
"606 493 OFFCURVE",
"595 487 OFFCURVE",
"586 476 CURVE SMOOTH",
"572 460 OFFCURVE",
"561 445 OFFCURVE",
"546 426 CURVE SMOOTH",
"506 371 OFFCURVE",
"458 296 OFFCURVE",
"406 227 CURVE",
"370 223 OFFCURVE",
"333 214 OFFCURVE",
"305 211 CURVE SMOOTH",
"292 209 OFFCURVE",
"274 197 OFFCURVE",
"266 187 CURVE SMOOTH",
"262 181 OFFCURVE",
"261 175 OFFCURVE",
"276 175 CURVE SMOOTH",
"280 175 OFFCURVE",
"285 175 OFFCURVE",
"291 176 CURVE SMOOTH",
"303 177 OFFCURVE",
"319 182 OFFCURVE",
"338 187 CURVE SMOOTH",
"353 190 OFFCURVE",
"368 195 OFFCURVE",
"384 198 CURVE",
"349 153 OFFCURVE",
"313 112 OFFCURVE",
"279 84 CURVE SMOOTH",
"233 47 OFFCURVE",
"185 27 OFFCURVE",
"144 27 CURVE SMOOTH",
"84 27 OFFCURVE",
"38 70 OFFCURVE",
"34 166 CURVE",
"33 169 OFFCURVE",
"38 179 OFFCURVE",
"38 185 CURVE SMOOTH",
"38 187 OFFCURVE",
"37 189 OFFCURVE",
"35 189 CURVE SMOOTH",
"30 189 OFFCURVE",
"23 181 OFFCURVE",
"21 169 CURVE SMOOTH",
"17 154 OFFCURVE",
"15 138 OFFCURVE",
"15 123 CURVE SMOOTH",
"15 51 OFFCURVE",
"56 -14 OFFCURVE",
"141 -14 CURVE SMOOTH"
);
},
{
closed = 1;
nodes = (
"475 295 OFFCURVE",
"514 359 OFFCURVE",
"550 402 CURVE SMOOTH",
"573 428 OFFCURVE",
"591 427 OFFCURVE",
"591 423 CURVE SMOOTH",
"591 413 OFFCURVE",
"569 355 OFFCURVE",
"546 296 CURVE SMOOTH",
"540 280 OFFCURVE",
"531 259 OFFCURVE",
"521 235 CURVE",
"494 235 OFFCURVE",
"464 234 OFFCURVE",
"431 230 CURVE"
);
},
{
closed = 1;
nodes = (
"668 541 OFFCURVE",
"665 543 OFFCURVE",
"665 547 CURVE SMOOTH",
"665 549 OFFCURVE",
"665 551 OFFCURVE",
"666 554 CURVE",
"668 556 OFFCURVE",
"669 559 OFFCURVE",
"668 561 CURVE",
"672 568 OFFCURVE",
"676 576 OFFCURVE",
"683 583 CURVE SMOOTH",
"708 610 LINE",
"702 614 LINE",
"711 620 OFFCURVE",
"718 622 OFFCURVE",
"723 622 CURVE SMOOTH",
"729 622 OFFCURVE",
"732 619 OFFCURVE",
"732 611 CURVE SMOOTH",
"732 607 OFFCURVE",
"732 602 OFFCURVE",
"730 596 CURVE SMOOTH",
"726 583 OFFCURVE",
"719 571 OFFCURVE",
"708 560 CURVE SMOOTH",
"696 547 OFFCURVE",
"683 541 OFFCURVE",
"672 541 CURVE SMOOTH"
);
}
);
width = 591;
}
);
note = Aring;
unicode = 00C5;
},
{
color = 11;
glyphname = Atilde;
lastChange = "2021-08-23 17:44:31 +0000";
layers = (
{
layerId = "C2A7C206-1962-4FAA-88DB-FE8C23752EC9";
paths = (
{
closed = 1;
nodes = (
"247 -14 OFFCURVE",
"336 93 OFFCURVE",
"413 204 CURVE",
"433 208 OFFCURVE",
"469 215 OFFCURVE",
"503 218 CURVE SMOOTH",
"507 218 OFFCURVE",
"510 219 OFFCURVE",
"514 219 CURVE",
"498 179 OFFCURVE",
"482 135 OFFCURVE",
"473 99 CURVE SMOOTH",
"469 81 OFFCURVE",
"466 64 OFFCURVE",
"466 49 CURVE SMOOTH",
"466 19 OFFCURVE",
"475 -4 OFFCURVE",
"496 -9 CURVE SMOOTH",
"500 -10 OFFCURVE",
"504 -11 OFFCURVE",
"508 -11 CURVE SMOOTH",
"556 -11 OFFCURVE",
"612 54 OFFCURVE",
"638 85 CURVE SMOOTH",
"655 106 OFFCURVE",
"674 131 OFFCURVE",
"689 152 CURVE SMOOTH",
"691 155 OFFCURVE",
"682 157 OFFCURVE",
"681 155 CURVE",
"668 139 OFFCURVE",
"637 98 OFFCURVE",
"633 94 CURVE SMOOTH",
"610 66 OFFCURVE",
"566 25 OFFCURVE",
"539 25 CURVE SMOOTH",
"524 25 OFFCURVE",
"514 37 OFFCURVE",
"514 68 CURVE SMOOTH",
"514 76 OFFCURVE",
"514 86 OFFCURVE",
"516 98 CURVE SMOOTH",
"522 139 OFFCURVE",
"535 189 OFFCURVE",
"545 219 CURVE",
"568 217 OFFCURVE",
"584 211 OFFCURVE",
"584 200 CURVE SMOOTH",
"584 197 OFFCURVE",
"584 195 OFFCURVE",
"582 192 CURVE SMOOTH",
"577 181 OFFCURVE",
"595 182 OFFCURVE",
"595 201 CURVE SMOOTH",
"595 215 OFFCURVE",
"579 232 OFFCURVE",
"550 234 CURVE",
"576 318 OFFCURVE",
"607 401 OFFCURVE",
"643 480 CURVE SMOOTH",
"651 497 OFFCURVE",
"666 518 OFFCURVE",
"678 527 CURVE SMOOTH",
"680 529 OFFCURVE",
"681 538 OFFCURVE",
"674 538 CURVE SMOOTH",
"673 538 OFFCURVE",
"671 537 OFFCURVE",
"669 536 CURVE SMOOTH",
"653 529 OFFCURVE",
"629 504 OFFCURVE",
"622 496 CURVE",
"606 493 OFFCURVE",
"595 487 OFFCURVE",
"586 476 CURVE SMOOTH",
"572 460 OFFCURVE",
"561 445 OFFCURVE",
"546 426 CURVE SMOOTH",
"506 371 OFFCURVE",
"457 296 OFFCURVE",
"406 227 CURVE",
"369 222 OFFCURVE",
"333 215 OFFCURVE",
"305 211 CURVE SMOOTH",
"292 209 OFFCURVE",
"274 197 OFFCURVE",
"266 187 CURVE SMOOTH",
"262 181 OFFCURVE",
"261 175 OFFCURVE",
"276 175 CURVE SMOOTH",
"280 175 OFFCURVE",
"285 175 OFFCURVE",
"291 176 CURVE SMOOTH",
"303 177 OFFCURVE",
"319 182 OFFCURVE",
"338 187 CURVE SMOOTH",
"352 191 OFFCURVE",
"368 195 OFFCURVE",
"384 198 CURVE",
"349 153 OFFCURVE",
"313 112 OFFCURVE",
"279 84 CURVE SMOOTH",
"233 47 OFFCURVE",
"185 27 OFFCURVE",
"144 27 CURVE SMOOTH",
"84 27 OFFCURVE",
"38 70 OFFCURVE",
"34 166 CURVE",
"33 169 OFFCURVE",
"38 179 OFFCURVE",
"38 185 CURVE SMOOTH",
"38 187 OFFCURVE",
"37 189 OFFCURVE",
"35 189 CURVE SMOOTH",
"30 189 OFFCURVE",
"23 181 OFFCURVE",
"21 169 CURVE SMOOTH",
"17 154 OFFCURVE",
"15 138 OFFCURVE",
"15 123 CURVE SMOOTH",
"15 51 OFFCURVE",
"56 -14 OFFCURVE",
"141 -14 CURVE SMOOTH"
);
},
{
closed = 1;
nodes = (
"188 167 OFFCURVE",
"230 195 OFFCURVE",
"230 237 CURVE SMOOTH",
"230 281 OFFCURVE",
"179 320 OFFCURVE",
"179 367 CURVE SMOOTH",
"179 405 OFFCURVE",
"209 433 OFFCURVE",
"270 450 CURVE SMOOTH",
"363 475 OFFCURVE",
"629 514 OFFCURVE",
"666 554 CURVE SMOOTH",
"670 558 OFFCURVE",
"669 563 OFFCURVE",
"665 563 CURVE SMOOTH",
"664 563 OFFCURVE",
"663 563 OFFCURVE",
"661 561 CURVE SMOOTH",
"637 535 OFFCURVE",
"440 504 OFFCURVE",
"358 494 CURVE SMOOTH",
"280 484 OFFCURVE",
"156 474 OFFCURVE",
"156 390 CURVE SMOOTH",
"156 373 OFFCURVE",
"160 354 OFFCURVE",
"171 332 CURVE SMOOTH",
"179 314 OFFCURVE",
"193 297 OFFCURVE",
"200 278 CURVE SMOOTH",
"203 269 OFFCURVE",
"205 260 OFFCURVE",
"205 251 CURVE SMOOTH",
"205 209 OFFCURVE",
"168 176 OFFCURVE",
"143 176 CURVE SMOOTH",
"140 176 OFFCURVE",
"137 177 OFFCURVE",
"134 178 CURVE",
"129 181 OFFCURVE",
"125 179 OFFCURVE",
"125 176 CURVE SMOOTH",
"125 175 OFFCURVE",
"126 173 OFFCURVE",
"129 172 CURVE",
"136 168 OFFCURVE",
"144 167 OFFCURVE",
"153 167 CURVE SMOOTH"
);
},
{
closed = 1;
nodes = (
"474 295 OFFCURVE",
"514 359 OFFCURVE",
"550 402 CURVE SMOOTH",
"573 428 OFFCURVE",
"591 427 OFFCURVE",
"591 423 CURVE SMOOTH",
"591 413 OFFCURVE",
"569 355 OFFCURVE",
"546 296 CURVE SMOOTH",
"540 280 OFFCURVE",
"531 259 OFFCURVE",
"521 235 CURVE",
"494 235 OFFCURVE",
"464 234 OFFCURVE",
"431 231 CURVE"
);
},
{
closed = 1;
nodes = (
"728 592 OFFCURVE",
"736 595 OFFCURVE",
"745 599 CURVE",
"772 615 OFFCURVE",
"790 627 OFFCURVE",
"790 639 CURVE SMOOTH",
"790 642 OFFCURVE",
"788 643 OFFCURVE",
"783 642 CURVE",
"770 630 OFFCURVE",
"758 624 OFFCURVE",
"744 624 CURVE SMOOTH",
"736 624 OFFCURVE",
"724 627 OFFCURVE",
"708 633 CURVE SMOOTH",
"692 639 OFFCURVE",
"679 642 OFFCURVE",
"669 642 CURVE SMOOTH",
"658 642 OFFCURVE",
"647 639 OFFCURVE",
"636 633 CURVE SMOOTH",
"609 620 OFFCURVE",
"592 608 OFFCURVE",
"588 597 CURVE",
"589 593 LINE",
"601 593 OFFCURVE",
"620 615 OFFCURVE",
"643 615 CURVE SMOOTH",
"652 615 OFFCURVE",
"664 611 OFFCURVE",
"680 604 CURVE SMOOTH",
"696 596 OFFCURVE",
"709 592 OFFCURVE",
"719 592 CURVE SMOOTH"
);
}
);
width = 591;
}
);
note = Atilde;
unicode = 00C3;
},
{
glyphname = AE;
lastChange = "2021-08-23 17:44:31 +0000";
layers = (
{
layerId = "C2A7C206-1962-4FAA-88DB-FE8C23752EC9";
paths = (
{
closed = 1;
nodes = (
"694 -25 OFFCURVE",
"783 11 OFFCURVE",
"835 70 CURVE SMOOTH",
"839 74 OFFCURVE",
"845 81 OFFCURVE",
"845 88 CURVE SMOOTH",
"845 89 OFFCURVE",
"845 90 OFFCURVE",
"843 90 CURVE SMOOTH",
"841 90 OFFCURVE",
"838 87 OFFCURVE",
"837 86 CURVE SMOOTH",
"794 36 OFFCURVE",
"733 12 OFFCURVE",
"668 12 CURVE SMOOTH",
"615 12 OFFCURVE",
"522 31 OFFCURVE",
"522 99 CURVE SMOOTH",
"522 135 OFFCURVE",
"552 216 OFFCURVE",
"566 250 CURVE",
"621 263 OFFCURVE",
"689 279 OFFCURVE",
"745 279 CURVE SMOOTH",
"755 279 OFFCURVE",
"785 279 OFFCURVE",
"785 263 CURVE SMOOTH",
"785 257 OFFCURVE",
"781 253 OFFCURVE",
"781 250 CURVE SMOOTH",
"781 248 OFFCURVE",
"782 247 OFFCURVE",
"784 247 CURVE SMOOTH",
"792 247 OFFCURVE",
"795 260 OFFCURVE",
"795 266 CURVE SMOOTH",
"795 298 OFFCURVE",
"754 299 OFFCURVE",
"731 299 CURVE SMOOTH",
"690 299 OFFCURVE",
"649 294 OFFCURVE",
"609 290 CURVE SMOOTH",
"567 285 LINE",
"579 322 OFFCURVE",
"617 432 OFFCURVE",
"639 460 CURVE SMOOTH",
"644 466 OFFCURVE",
"646 469 OFFCURVE",
"654 470 CURVE SMOOTH",
"666 472 OFFCURVE",
"680 472 OFFCURVE",
"693 472 CURVE SMOOTH",
"722 472 OFFCURVE",
"750 470 OFFCURVE",
"779 470 CURVE SMOOTH",
"790 470 OFFCURVE",
"805 469 OFFCURVE",
"805 462 CURVE SMOOTH",
"805 450 OFFCURVE",
"766 413 OFFCURVE",
"766 403 CURVE SMOOTH",
"766 402 OFFCURVE",
"767 401 OFFCURVE",
"768 401 CURVE SMOOTH",
"773 401 OFFCURVE",
"780 406 OFFCURVE",
"783 409 CURVE SMOOTH",
"799 427 LINE SMOOTH",
"818 446 OFFCURVE",
"840 461 OFFCURVE",
"862 476 CURVE SMOOTH",
"866 478 OFFCURVE",
"881 487 OFFCURVE",
"882 491 CURVE SMOOTH",
"882 492 OFFCURVE",
"883 494 OFFCURVE",
"883 494 CURVE",
"883 497 OFFCURVE",
"882 499 OFFCURVE",
"881 502 CURVE",
"875 504 LINE",
"683 505 LINE",
"674 506 OFFCURVE",
"665 504 OFFCURVE",
"656 502 CURVE",
"662 511 OFFCURVE",
"669 520 OFFCURVE",
"678 527 CURVE SMOOTH",
"679 528 OFFCURVE",
"680 530 OFFCURVE",
"680 532 CURVE SMOOTH",
"680 535 OFFCURVE",
"678 538 OFFCURVE",
"675 538 CURVE SMOOTH",
"662 538 OFFCURVE",
"631 505 OFFCURVE",
"622 496 CURVE",
"607 493 OFFCURVE",
"596 488 OFFCURVE",
"586 476 CURVE SMOOTH",
"572 460 OFFCURVE",
"559 443 OFFCURVE",
"546 426 CURVE SMOOTH",
"505 369 OFFCURVE",
"466 310 OFFCURVE",
"424 252 CURVE",
"385 248 OFFCURVE",
"346 240 OFFCURVE",
"307 233 CURVE SMOOTH",
"296 232 OFFCURVE",
"265 217 OFFCURVE",
"265 203 CURVE SMOOTH",
"265 197 OFFCURVE",
"275 197 OFFCURVE",
"278 197 CURVE SMOOTH",
"310 197 OFFCURVE",
"370 218 OFFCURVE",
"404 225 CURVE",
"346 147 OFFCURVE",
"252 27 OFFCURVE",
"144 27 CURVE SMOOTH",
"67 27 OFFCURVE",
"34 98 OFFCURVE",
"34 166 CURVE SMOOTH",
"34 173 OFFCURVE",
"38 179 OFFCURVE",
"38 185 CURVE SMOOTH",
"38 186 OFFCURVE",
"38 187 OFFCURVE",
"37 188 CURVE SMOOTH",
"34 190 LINE",
"18 188 OFFCURVE",
"15 136 OFFCURVE",
"15 123 CURVE SMOOTH",
"15 48 OFFCURVE",
"60 -14 OFFCURVE",
"140 -14 CURVE SMOOTH",
"266 -14 OFFCURVE",
"369 137 OFFCURVE",
"431 230 CURVE",
"462 236 OFFCURVE",
"493 239 OFFCURVE",
"525 244 CURVE",
"512 214 OFFCURVE",
"472 114 OFFCURVE",
"472 88 CURVE SMOOTH",
"472 82 OFFCURVE",
"473 78 OFFCURVE",
"474 73 CURVE SMOOTH",
"480 42 OFFCURVE",
"489 17 OFFCURVE",
"518 0 CURVE SMOOTH",
"547 -18 OFFCURVE",
"583 -25 OFFCURVE",
"617 -25 CURVE SMOOTH"
);
},
{
closed = 1;
nodes = (
"191 167 OFFCURVE",
"230 197 OFFCURVE",
"230 237 CURVE SMOOTH",
"230 283 OFFCURVE",
"179 318 OFFCURVE",
"179 369 CURVE SMOOTH",
"179 416 OFFCURVE",
"231 439 OFFCURVE",
"270 450 CURVE SMOOTH",
"343 470 OFFCURVE",
"626 514 OFFCURVE",
"666 554 CURVE SMOOTH",
"667 555 OFFCURVE",
"669 557 OFFCURVE",
"669 559 CURVE SMOOTH",
"669 561 OFFCURVE",
"668 563 OFFCURVE",
"666 563 CURVE SMOOTH",
"664 563 OFFCURVE",
"663 562 OFFCURVE",
"661 561 CURVE",
"627 530 OFFCURVE",
"412 500 OFFCURVE",
"358 494 CURVE SMOOTH",
"295 486 OFFCURVE",
"155 477 OFFCURVE",
"155 390 CURVE SMOOTH",
"155 331 OFFCURVE",
"205 298 OFFCURVE",
"205 252 CURVE SMOOTH",
"205 221 OFFCURVE",
"178 176 OFFCURVE",
"143 176 CURVE SMOOTH",
"138 176 OFFCURVE",
"134 179 OFFCURVE",
"129 179 CURVE SMOOTH",
"128 179 OFFCURVE",
"125 178 OFFCURVE",
"125 176 CURVE SMOOTH",
"125 169 OFFCURVE",
"148 167 OFFCURVE",
"153 167 CURVE SMOOTH"
);
},
{
closed = 1;
nodes = (
"480 304 OFFCURVE",
"511 357 OFFCURVE",
"550 402 CURVE SMOOTH",
"558 411 OFFCURVE",
"573 425 OFFCURVE",
"586 425 CURVE SMOOTH",
"587 425 OFFCURVE",
"591 425 OFFCURVE",
"591 423 CURVE SMOOTH",
"591 408 OFFCURVE",
"539 279 OFFCURVE",
"530 257 CURVE",
"502 257 OFFCURVE",
"475 256 OFFCURVE",
"447 254 CURVE"
);
}
);
width = 815;
}
);
note = AE;
unicode = 00C6;
},
{
glyphname = B;
lastChange = "2021-08-23 17:44:31 +0000";
layers = (
{
layerId = "C2A7C206-1962-4FAA-88DB-FE8C23752EC9";
paths = (
{
closed = 1;
nodes = (
"80 -30 OFFCURVE",
"88 -30 OFFCURVE",
"97 -28 CURVE SMOOTH",
"101 -27 OFFCURVE",
"103 -23 OFFCURVE",
"103 -20 CURVE SMOOTH",
"103 -18 OFFCURVE",
"102 -17 OFFCURVE",
"100 -17 CURVE SMOOTH",
"99 -17 OFFCURVE",
"98 -18 OFFCURVE",
"97 -18 CURVE",
"91 -20 OFFCURVE",
"85 -21 OFFCURVE",
"79 -21 CURVE SMOOTH",
"65 -21 OFFCURVE",
"55 -14 OFFCURVE",
"55 -7 CURVE SMOOTH",
"55 1 OFFCURVE",
"66 8 OFFCURVE",
"92 8 CURVE SMOOTH",
"104 8 OFFCURVE",
"121 7 OFFCURVE",
"142 2 CURVE SMOOTH",
"173 -5 OFFCURVE",
"249 -9 OFFCURVE",
"297 -9 CURVE SMOOTH",
"468 -9 OFFCURVE",
"551 77 OFFCURVE",
"551 153 CURVE SMOOTH",
"551 207 OFFCURVE",
"510 257 OFFCURVE",
"418 269 CURVE SMOOTH",
"410 270 OFFCURVE",
"406 271 OFFCURVE",
"406 273 CURVE SMOOTH",
"406 275 OFFCURVE",
"412 277 OFFCURVE",
"420 279 CURVE SMOOTH",
"497 296 OFFCURVE",
"546 352 OFFCURVE",
"546 404 CURVE SMOOTH",
"546 462 OFFCURVE",
"486 492 OFFCURVE",
"413 505 CURVE",
"422 522 OFFCURVE",
"432 538 OFFCURVE",
"448 552 CURVE SMOOTH",
"456 560 OFFCURVE",
"467 582 OFFCURVE",
"468 593 CURVE",
"469 595 OFFCURVE",
"468 601 OFFCURVE",
"466 599 CURVE SMOOTH",
"438 572 OFFCURVE",
"410 554 OFFCURVE",
"393 545 CURVE",
"381 534 OFFCURVE",
"378 522 OFFCURVE",
"376 510 CURVE",
"355 512 OFFCURVE",
"333 513 OFFCURVE",
"312 513 CURVE SMOOTH",
"255 513 OFFCURVE",
"201 506 OFFCURVE",
"173 498 CURVE SMOOTH",
"99 477 OFFCURVE",
"52 435 OFFCURVE",
"52 355 CURVE SMOOTH",
"52 283 OFFCURVE",
"111 246 OFFCURVE",
"156 201 CURVE",
"159 197 OFFCURVE",
"165 203 OFFCURVE",
"161 207 CURVE SMOOTH",
"134 234 OFFCURVE",
"111 259 OFFCURVE",
"93 291 CURVE SMOOTH",
"81 313 OFFCURVE",
"74 334 OFFCURVE",
"74 353 CURVE SMOOTH",
"74 385 OFFCURVE",
"91 414 OFFCURVE",
"125 440 CURVE SMOOTH",
"154 462 OFFCURVE",
"245 482 OFFCURVE",
"329 482 CURVE SMOOTH",
"344 482 OFFCURVE",
"359 481 OFFCURVE",
"373 480 CURVE",
"370 470 OFFCURVE",
"353 432 OFFCURVE",
"351 426 CURVE SMOOTH",
"289 282 LINE",
"281 281 OFFCURVE",
"273 279 OFFCURVE",
"267 273 CURVE SMOOTH",
"258 265 OFFCURVE",
"253 258 OFFCURVE",
"253 254 CURVE SMOOTH",
"253 249 OFFCURVE",
"261 250 OFFCURVE",
"276 252 CURVE",
"231 147 LINE SMOOTH",
"206 90 OFFCURVE",
"183 69 OFFCURVE",
"173 65 CURVE SMOOTH",
"164 61 OFFCURVE",
"171 52 OFFCURVE",
"194 67 CURVE SMOOTH",
"207 76 OFFCURVE",
"227 72 OFFCURVE",
"241 107 CURVE SMOOTH",
"302 256 LINE",
"318 258 OFFCURVE",
"333 258 OFFCURVE",
"346 258 CURVE SMOOTH",
"457 258 OFFCURVE",
"497 211 OFFCURVE",
"497 158 CURVE SMOOTH",
"497 89 OFFCURVE",
"435 8 OFFCURVE",
"302 8 CURVE SMOOTH",
"296 8 OFFCURVE",
"289 9 OFFCURVE",
"282 9 CURVE SMOOTH",
"235 13 OFFCURVE",
"133 40 OFFCURVE",
"85 40 CURVE SMOOTH",
"80 40 OFFCURVE",
"75 40 OFFCURVE",
"71 39 CURVE SMOOTH",
"50 34 OFFCURVE",
"37 25 OFFCURVE",
"31 11 CURVE SMOOTH",
"29 7 OFFCURVE",
"29 4 OFFCURVE",
"29 0 CURVE SMOOTH",
"29 -16 OFFCURVE",
"42 -30 OFFCURVE",
"73 -30 CURVE SMOOTH"
);
},
{
closed = 1;
nodes = (
"323 281 OFFCURVE",
"318 281 OFFCURVE",
"313 282 CURVE",
"358 390 LINE SMOOTH",
"370 419 OFFCURVE",
"384 448 OFFCURVE",
"399 476 CURVE",
"455 466 OFFCURVE",
"497 443 OFFCURVE",
"497 398 CURVE SMOOTH",
"497 345 OFFCURVE",
"439 281 OFFCURVE",
"329 281 CURVE SMOOTH"
);
}
);
width = 554;
}
);
note = B;
unicode = 0042;
},
{
glyphname = C;
lastChange = "2021-08-23 17:44:31 +0000";
layers = (
{
layerId = "C2A7C206-1962-4FAA-88DB-FE8C23752EC9";
paths = (
{
closed = 1;
nodes = (
"264 -39 OFFCURVE",
"312 -28 OFFCURVE",
"358 -6 CURVE SMOOTH",
"418 23 OFFCURVE",
"459 71 OFFCURVE",
"508 139 CURVE SMOOTH",
"511 144 OFFCURVE",
"509 147 OFFCURVE",
"506 147 CURVE SMOOTH",
"503 147 OFFCURVE",
"500 146 OFFCURVE",
"498 143 CURVE SMOOTH",
"450 84 OFFCURVE",
"417 46 OFFCURVE",
"354 18 CURVE SMOOTH",
"307 -3 OFFCURVE",
"262 -14 OFFCURVE",
"222 -14 CURVE SMOOTH",
"147 -14 OFFCURVE",
"93 26 OFFCURVE",
"93 111 CURVE SMOOTH",
"93 135 OFFCURVE",
"97 162 OFFCURVE",
"106 192 CURVE SMOOTH",
"136 301 OFFCURVE",
"260 491 OFFCURVE",
"393 491 CURVE SMOOTH",
"410 491 OFFCURVE",
"428 488 OFFCURVE",
"445 481 CURVE SMOOTH",
"458 476 OFFCURVE",
"467 466 OFFCURVE",
"467 450 CURVE SMOOTH",
"467 441 OFFCURVE",
"464 430 OFFCURVE",
"458 416 CURVE SMOOTH",
"431 353 LINE SMOOTH",
"427 345 OFFCURVE",
"433 340 OFFCURVE",
"438 340 CURVE SMOOTH",
"442 340 OFFCURVE",
"446 342 OFFCURVE",
"448 348 CURVE SMOOTH",
"471 411 OFFCURVE",
"495 459 OFFCURVE",
"539 514 CURVE SMOOTH",
"541 517 OFFCURVE",
"542 520 OFFCURVE",
"542 523 CURVE SMOOTH",
"542 530 OFFCURVE",
"536 535 OFFCURVE",
"527 535 CURVE SMOOTH",
"522 535 OFFCURVE",
"516 533 OFFCURVE",
"510 528 CURVE SMOOTH",
"501 521 OFFCURVE",
"497 504 OFFCURVE",
"487 491 CURVE",
"479 500 OFFCURVE",
"462 504 OFFCURVE",
"442 506 CURVE SMOOTH",
"431 507 OFFCURVE",
"421 508 OFFCURVE",
"411 508 CURVE SMOOTH",
"244 508 OFFCURVE",
"99 367 OFFCURVE",
"55 210 CURVE SMOOTH",
"47 180 OFFCURVE",
"43 152 OFFCURVE",
"43 128 CURVE SMOOTH",
"43 16 OFFCURVE",
"122 -39 OFFCURVE",
"220 -39 CURVE SMOOTH"
);
}
);
width = 421;
}
);
note = C;
unicode = 0043;
},
{
color = 11;
glyphname = Ccedilla;
lastChange = "2021-08-23 17:44:31 +0000";
layers = (
{
layerId = "C2A7C206-1962-4FAA-88DB-FE8C23752EC9";
paths = (
{
closed = 1;
nodes = (
"79 -271 OFFCURVE",
"108 -265 OFFCURVE",
"137 -251 CURVE SMOOTH",
"171 -236 OFFCURVE",
"193 -214 OFFCURVE",
"201 -187 CURVE SMOOTH",
"202 -182 OFFCURVE",
"203 -177 OFFCURVE",
"203 -172 CURVE SMOOTH",
"203 -160 OFFCURVE",
"199 -146 OFFCURVE",
"191 -131 CURVE SMOOTH",
"184 -118 OFFCURVE",
"181 -105 OFFCURVE",
"181 -93 CURVE SMOOTH",
"181 -73 OFFCURVE",
"190 -54 OFFCURVE",
"207 -39 CURVE",
"254 -41 OFFCURVE",
"307 -30 OFFCURVE",
"358 -6 CURVE SMOOTH",
"418 23 OFFCURVE",
"459 71 OFFCURVE",
"508 139 CURVE SMOOTH",
"511 144 OFFCURVE",
"509 147 OFFCURVE",
"506 147 CURVE SMOOTH",
"503 147 OFFCURVE",
"500 146 OFFCURVE",
"498 143 CURVE SMOOTH",
"450 84 OFFCURVE",
"417 46 OFFCURVE",
"354 18 CURVE SMOOTH",
"307 -3 OFFCURVE",
"262 -14 OFFCURVE",
"222 -14 CURVE SMOOTH",
"147 -14 OFFCURVE",
"93 26 OFFCURVE",
"93 111 CURVE SMOOTH",
"93 135 OFFCURVE",
"97 162 OFFCURVE",
"106 192 CURVE SMOOTH",
"136 301 OFFCURVE",
"260 491 OFFCURVE",
"393 491 CURVE SMOOTH",
"410 491 OFFCURVE",
"428 488 OFFCURVE",
"445 481 CURVE SMOOTH",
"458 476 OFFCURVE",
"467 466 OFFCURVE",
"467 450 CURVE SMOOTH",
"467 441 OFFCURVE",
"464 430 OFFCURVE",
"458 416 CURVE SMOOTH",
"431 353 LINE SMOOTH",
"427 345 OFFCURVE",
"433 340 OFFCURVE",
"438 340 CURVE SMOOTH",
"442 340 OFFCURVE",
"446 342 OFFCURVE",
"448 348 CURVE SMOOTH",
"471 411 OFFCURVE",
"495 459 OFFCURVE",
"539 514 CURVE SMOOTH",
"541 517 OFFCURVE",
"542 520 OFFCURVE",
"542 523 CURVE SMOOTH",
"542 530 OFFCURVE",
"536 535 OFFCURVE",
"527 535 CURVE SMOOTH",
"522 535 OFFCURVE",
"516 533 OFFCURVE",
"510 528 CURVE SMOOTH",
"501 521 OFFCURVE",
"497 504 OFFCURVE",
"487 491 CURVE",
"479 500 OFFCURVE",
"462 504 OFFCURVE",
"442 506 CURVE SMOOTH",
"431 507 OFFCURVE",
"421 508 OFFCURVE",
"411 508 CURVE SMOOTH",
"244 508 OFFCURVE",
"99 367 OFFCURVE",
"55 210 CURVE SMOOTH",
"47 180 OFFCURVE",
"43 152 OFFCURVE",
"43 128 CURVE SMOOTH",
"43 30 OFFCURVE",
"102 -24 OFFCURVE",
"182 -37 CURVE",
"163 -53 OFFCURVE",
"147 -83 OFFCURVE",
"140 -106 CURVE SMOOTH",
"139 -109 OFFCURVE",
"139 -112 OFFCURVE",
"139 -116 CURVE SMOOTH",
"139 -126 OFFCURVE",
"142 -139 OFFCURVE",
"149 -154 CURVE SMOOTH",
"158 -174 OFFCURVE",
"161 -188 OFFCURVE",
"159 -196 CURVE SMOOTH",
"151 -222 OFFCURVE",
"138 -237 OFFCURVE",
"119 -242 CURVE",
"97 -245 OFFCURVE",
"76 -248 OFFCURVE",
"55 -252 CURVE SMOOTH",
"47 -253 OFFCURVE",
"42 -258 OFFCURVE",
"42 -265 CURVE SMOOTH",
"42 -269 OFFCURVE",
"45 -271 OFFCURVE",
"49 -271 CURVE SMOOTH"
);
}
);
width = 525;
}
);
note = Ccedilla;
unicode = 00C7;
},
{
glyphname = D;
lastChange = "2021-08-23 17:44:31 +0000";
layers = (
{
layerId = "C2A7C206-1962-4FAA-88DB-FE8C23752EC9";
paths = (
{
closed = 1;
nodes = (
"9 -14 OFFCURVE",
"9 -14 OFFCURVE",
"10 -13 CURVE SMOOTH",
"17 -4 OFFCURVE",
"29 0 OFFCURVE",
"47 0 CURVE SMOOTH",
"115 -1 OFFCURVE",
"188 -8 OFFCURVE",
"260 -7 CURVE SMOOTH",
"446 -5 OFFCURVE",
"597 88 OFFCURVE",
"597 206 CURVE SMOOTH",
"597 339 OFFCURVE",
"468 441 OFFCURVE",
"352 482 CURVE",
"367 523 OFFCURVE",
"394 575 OFFCURVE",
"444 575 CURVE SMOOTH",
"453 575 OFFCURVE",
"460 571 OFFCURVE",
"460 570 CURVE",
"463 564 OFFCURVE",
"471 567 OFFCURVE",
"471 572 CURVE SMOOTH",
"471 573 OFFCURVE",
"471 574 OFFCURVE",
"470 575 CURVE",
"466 583 OFFCURVE",
"453 587 OFFCURVE",
"444 587 CURVE SMOOTH",
"386 587 OFFCURVE",
"350 551 OFFCURVE",
"324 492 CURVE",
"292 503 OFFCURVE",
"217 519 OFFCURVE",
"180 517 CURVE SMOOTH",
"103 513 OFFCURVE",
"49 483 OFFCURVE",
"34 405 CURVE SMOOTH",
"33 397 OFFCURVE",
"32 390 OFFCURVE",
"32 383 CURVE SMOOTH",
"32 324 OFFCURVE",
"77 279 OFFCURVE",
"109 232 CURVE SMOOTH",
"112 227 OFFCURVE",
"118 231 OFFCURVE",
"115 236 CURVE SMOOTH",
"94 268 OFFCURVE",
"76 298 OFFCURVE",
"64 333 CURVE SMOOTH",
"58 350 OFFCURVE",
"55 366 OFFCURVE",
"55 381 CURVE SMOOTH",
"55 421 OFFCURVE",
"77 451 OFFCURVE",
"122 472 CURVE SMOOTH",
"133 477 OFFCURVE",
"149 479 OFFCURVE",
"166 479 CURVE SMOOTH",
"215 479 OFFCURVE",
"280 463 OFFCURVE",
"308 453 CURVE",
"266 352 OFFCURVE",
"144 63 OFFCURVE",
"135 52 CURVE SMOOTH",
"122 36 OFFCURVE",
"119 31 OFFCURVE",
"94 31 CURVE SMOOTH",
"81 31 OFFCURVE",
"69 33 OFFCURVE",
"59 33 CURVE SMOOTH",
"25 33 OFFCURVE",
"11 3 OFFCURVE",
"7 -4 CURVE SMOOTH",
"3 -11 OFFCURVE",
"5 -14 OFFCURVE",
"8 -14 CURVE SMOOTH"
);
},
{
closed = 1;
nodes = (
"225 11 OFFCURVE",
"168 21 OFFCURVE",
"152 24 CURVE",
"169 52 OFFCURVE",
"193 105 OFFCURVE",
"338 445 CURVE",
"437 417 OFFCURVE",
"554 303 OFFCURVE",
"554 197 CURVE SMOOTH",
"554 91 OFFCURVE",
"436 13 OFFCURVE",
"269 11 CURVE SMOOTH"
);
}
);
width = 564;
}
);
note = D;
unicode = 0044;
},
{
glyphname = Eth;
lastChange = "2021-08-23 17:44:31 +0000";
layers = (
{
layerId = "C2A7C206-1962-4FAA-88DB-FE8C23752EC9";
paths = (
{
closed = 1;
nodes = (
"9 -14 OFFCURVE",
"9 -14 OFFCURVE",
"10 -13 CURVE SMOOTH",
"17 -4 OFFCURVE",
"29 0 OFFCURVE",
"47 0 CURVE SMOOTH",
"115 -1 OFFCURVE",
"188 -8 OFFCURVE",
"260 -7 CURVE SMOOTH",
"446 -5 OFFCURVE",
"597 88 OFFCURVE",
"597 206 CURVE SMOOTH",
"597 339 OFFCURVE",
"468 441 OFFCURVE",
"352 482 CURVE",
"367 523 OFFCURVE",
"394 575 OFFCURVE",
"444 575 CURVE SMOOTH",
"453 575 OFFCURVE",
"460 571 OFFCURVE",
"460 570 CURVE",
"463 564 OFFCURVE",
"471 567 OFFCURVE",
"471 572 CURVE SMOOTH",
"471 573 OFFCURVE",
"471 574 OFFCURVE",
"470 575 CURVE",
"466 583 OFFCURVE",
"453 587 OFFCURVE",
"444 587 CURVE SMOOTH",
"386 587 OFFCURVE",
"350 551 OFFCURVE",
"324 492 CURVE",
"292 503 OFFCURVE",
"217 519 OFFCURVE",
"180 517 CURVE SMOOTH",
"103 513 OFFCURVE",
"49 483 OFFCURVE",
"34 405 CURVE SMOOTH",
"33 397 OFFCURVE",
"32 390 OFFCURVE",
"32 383 CURVE SMOOTH",
"32 324 OFFCURVE",
"77 279 OFFCURVE",
"109 232 CURVE SMOOTH",
"112 227 OFFCURVE",
"118 231 OFFCURVE",
"115 236 CURVE SMOOTH",
"94 268 OFFCURVE",
"76 298 OFFCURVE",
"64 333 CURVE SMOOTH",
"58 350 OFFCURVE",
"55 366 OFFCURVE",
"55 381 CURVE SMOOTH",
"55 421 OFFCURVE",
"77 451 OFFCURVE",
"122 472 CURVE SMOOTH",
"133 477 OFFCURVE",
"149 479 OFFCURVE",
"166 479 CURVE SMOOTH",
"215 479 OFFCURVE",
"280 463 OFFCURVE",
"308 453 CURVE",
"285 397 OFFCURVE",
"237 283 OFFCURVE",
"197 191 CURVE",
"172 192 OFFCURVE",
"147 192 OFFCURVE",
"122 192 CURVE SMOOTH",
"98 192 OFFCURVE",
"82 183 OFFCURVE",
"77 162 CURVE",
"85 159 OFFCURVE",
"97 158 OFFCURVE",
"112 158 CURVE SMOOTH",
"128 158 OFFCURVE",
"152 160 OFFCURVE",
"185 163 CURVE",
"159 102 OFFCURVE",
"138 56 OFFCURVE",
"135 52 CURVE SMOOTH",
"122 36 OFFCURVE",
"119 31 OFFCURVE",
"94 31 CURVE SMOOTH",
"81 31 OFFCURVE",
"69 33 OFFCURVE",
"59 33 CURVE SMOOTH",
"25 33 OFFCURVE",
"11 3 OFFCURVE",
"7 -4 CURVE SMOOTH",
"3 -11 OFFCURVE",
"5 -14 OFFCURVE",
"8 -14 CURVE SMOOTH"
);
},
{
closed = 1;
nodes = (
"225 11 OFFCURVE",
"168 21 OFFCURVE",
"152 24 CURVE",
"163 41 OFFCURVE",
"176 68 OFFCURVE",
"219 167 CURVE",
"230 169 LINE SMOOTH",
"253 171 OFFCURVE",
"271 173 OFFCURVE",
"282 175 CURVE SMOOTH",
"294 176 OFFCURVE",
"301 180 OFFCURVE",
"302 183 CURVE",
"302 185 OFFCURVE",
"302 188 OFFCURVE",
"300 188 CURVE",
"301 190 LINE",
"277 190 OFFCURVE",
"253 190 OFFCURVE",
"229 191 CURVE",
"255 250 OFFCURVE",
"290 332 OFFCURVE",
"338 445 CURVE",
"437 417 OFFCURVE",
"554 303 OFFCURVE",
"554 197 CURVE SMOOTH",
"554 91 OFFCURVE",
"436 13 OFFCURVE",
"269 11 CURVE SMOOTH"
);
}
);
width = 564;
}
);
unicode = 00D0;
},
{
glyphname = E;
lastChange = "2021-08-23 17:44:31 +0000";
layers = (
{
layerId = "C2A7C206-1962-4FAA-88DB-FE8C23752EC9";
paths = (
{
closed = 1;
nodes = (
"328 -24 OFFCURVE",
"394 -1 OFFCURVE",
"444 34 CURVE SMOOTH",
"459 44 OFFCURVE",
"472 57 OFFCURVE",
"484 70 CURVE SMOOTH",
"491 78 OFFCURVE",
"493 85 OFFCURVE",
"493 88 CURVE SMOOTH",
"493 90 OFFCURVE",
"493 91 OFFCURVE",
"492 91 CURVE SMOOTH",
"490 91 OFFCURVE",
"488 89 OFFCURVE",
"486 86 CURVE SMOOTH",
"446 36 OFFCURVE",
"376 12 OFFCURVE",
"314 12 CURVE SMOOTH",
"246 12 OFFCURVE",
"171 39 OFFCURVE",
"171 99 CURVE SMOOTH",
"171 124 OFFCURVE",
"189 185 OFFCURVE",
"214 250 CURVE",
"241 256 LINE SMOOTH",
"257 259 OFFCURVE",
"342 279 OFFCURVE",
"393 279 CURVE SMOOTH",
"417 279 OFFCURVE",
"434 275 OFFCURVE",
"434 263 CURVE SMOOTH",
"434 260 OFFCURVE",
"433 257 OFFCURVE",
"431 253 CURVE SMOOTH",
"426 245 OFFCURVE",
"436 244 OFFCURVE",
"440 252 CURVE SMOOTH",
"442 256 OFFCURVE",
"443 260 OFFCURVE",
"443 265 CURVE SMOOTH",
"443 280 OFFCURVE",
"431 296 OFFCURVE",
"402 298 CURVE SMOOTH",
"362 300 OFFCURVE",
"311 296 OFFCURVE",
"257 290 CURVE SMOOTH",
"228 285 LINE",
"260 362 OFFCURVE",
"295 437 OFFCURVE",
"313 460 CURVE SMOOTH",
"318 468 OFFCURVE",
"322 469 OFFCURVE",
"327 470 CURVE SMOOTH",
"338 472 OFFCURVE",
"349 472 OFFCURVE",
"358 472 CURVE SMOOTH",
"378 472 OFFCURVE",
"396 470 OFFCURVE",
"418 470 CURVE SMOOTH",
"443 470 OFFCURVE",
"454 469 OFFCURVE",
"454 462 CURVE SMOOTH",
"454 458 OFFCURVE",
"450 453 OFFCURVE",
"444 444 CURVE SMOOTH",
"432 428 OFFCURVE",
"423 419 OFFCURVE",
"422 416 CURVE",
"417 410 OFFCURVE",
"415 405 OFFCURVE",
"415 403 CURVE SMOOTH",
"415 402 OFFCURVE",
"416 401 OFFCURVE",
"417 401 CURVE SMOOTH",
"421 401 OFFCURVE",
"428 405 OFFCURVE",
"432 409 CURVE",
"470 457 OFFCURVE",
"530 484 OFFCURVE",
"531 491 CURVE SMOOTH",
"532 494 OFFCURVE",
"532 496 OFFCURVE",
"530 502 CURVE",
"524 504 LINE",
"332 505 LINE",
"335 512 OFFCURVE",
"336 518 OFFCURVE",
"336 524 CURVE SMOOTH",
"336 538 OFFCURVE",
"327 546 OFFCURVE",
"319 546 CURVE SMOOTH",
"313 546 OFFCURVE",
"307 542 OFFCURVE",
"305 533 CURVE",
"297 517 OFFCURVE",
"304 504 OFFCURVE",
"279 507 CURVE SMOOTH",
"253 510 OFFCURVE",
"219 513 OFFCURVE",
"185 513 CURVE SMOOTH",
"112 513 OFFCURVE",
"38 497 OFFCURVE",
"38 420 CURVE SMOOTH",
"38 410 OFFCURVE",
"39 398 OFFCURVE",
"42 386 CURVE SMOOTH",
"46 366 OFFCURVE",
"55 332 OFFCURVE",
"61 313 CURVE SMOOTH",
"66 299 OFFCURVE",
"71 294 OFFCURVE",
"74 294 CURVE SMOOTH",
"78 294 OFFCURVE",
"80 298 OFFCURVE",
"80 302 CURVE SMOOTH",
"80 303 OFFCURVE",
"79 304 OFFCURVE",
"79 305 CURVE",
"69 332 OFFCURVE",
"55 365 OFFCURVE",
"55 396 CURVE SMOOTH",
"55 451 OFFCURVE",
"89 469 OFFCURVE",
"163 471 CURVE SMOOTH",
"285 475 LINE",
"267 427 OFFCURVE",
"228 353 OFFCURVE",
"192 278 CURVE",
"178 276 OFFCURVE",
"165 273 OFFCURVE",
"154 272 CURVE SMOOTH",
"140 271 OFFCURVE",
"122 259 OFFCURVE",
"115 249 CURVE SMOOTH",
"113 246 OFFCURVE",
"110 241 OFFCURVE",
"110 237 CURVE SMOOTH",
"110 233 OFFCURVE",
"114 229 OFFCURVE",
"124 229 CURVE SMOOTH",
"127 229 OFFCURVE",
"130 230 OFFCURVE",
"133 230 CURVE SMOOTH",
"144 231 OFFCURVE",
"158 235 OFFCURVE",
"174 239 CURVE",
"145 175 OFFCURVE",
"123 115 OFFCURVE",
"123 77 CURVE SMOOTH",
"123 51 OFFCURVE",
"138 16 OFFCURVE",
"166 0 CURVE SMOOTH",
"196 -17 OFFCURVE",
"230 -24 OFFCURVE",
"265 -24 CURVE SMOOTH"
);
}
);
width = 450;
}
);
note = E;
unicode = 0045;
},
{
color = 11;
glyphname = Eacute;
lastChange = "2021-08-23 17:44:31 +0000";
layers = (
{
layerId = "C2A7C206-1962-4FAA-88DB-FE8C23752EC9";
paths = (
{
closed = 1;
nodes = (
"328 -24 OFFCURVE",
"394 -1 OFFCURVE",
"444 34 CURVE SMOOTH",
"459 44 OFFCURVE",
"472 57 OFFCURVE",
"484 70 CURVE SMOOTH",
"491 78 OFFCURVE",
"493 85 OFFCURVE",
"493 88 CURVE SMOOTH",
"493 90 OFFCURVE",
"493 91 OFFCURVE",
"492 91 CURVE SMOOTH",
"490 91 OFFCURVE",
"488 89 OFFCURVE",
"486 86 CURVE SMOOTH",
"446 36 OFFCURVE",
"376 12 OFFCURVE",
"314 12 CURVE SMOOTH",
"246 12 OFFCURVE",
"171 39 OFFCURVE",
"171 99 CURVE SMOOTH",
"171 124 OFFCURVE",
"189 185 OFFCURVE",
"214 250 CURVE",
"241 256 LINE SMOOTH",
"257 259 OFFCURVE",
"342 279 OFFCURVE",
"393 279 CURVE SMOOTH",
"417 279 OFFCURVE",
"434 275 OFFCURVE",
"434 263 CURVE SMOOTH",
"434 260 OFFCURVE",
"433 257 OFFCURVE",
"431 253 CURVE SMOOTH",
"426 245 OFFCURVE",
"436 244 OFFCURVE",
"440 252 CURVE SMOOTH",
"442 256 OFFCURVE",
"443 260 OFFCURVE",
"443 265 CURVE SMOOTH",
"443 280 OFFCURVE",
"431 296 OFFCURVE",
"402 298 CURVE SMOOTH",
"362 300 OFFCURVE",
"311 296 OFFCURVE",
"257 290 CURVE SMOOTH",
"228 285 LINE",
"260 362 OFFCURVE",
"295 437 OFFCURVE",
"313 460 CURVE SMOOTH",
"318 468 OFFCURVE",
"322 469 OFFCURVE",
"327 470 CURVE SMOOTH",
"338 472 OFFCURVE",
"349 472 OFFCURVE",
"358 472 CURVE SMOOTH",
"378 472 OFFCURVE",
"396 470 OFFCURVE",
"418 470 CURVE SMOOTH",
"443 470 OFFCURVE",
"454 469 OFFCURVE",
"454 462 CURVE SMOOTH",
"454 458 OFFCURVE",
"450 453 OFFCURVE",
"444 444 CURVE SMOOTH",
"432 428 OFFCURVE",
"423 419 OFFCURVE",
"422 416 CURVE",
"417 410 OFFCURVE",
"415 405 OFFCURVE",
"415 403 CURVE SMOOTH",
"415 402 OFFCURVE",
"416 401 OFFCURVE",
"417 401 CURVE SMOOTH",
"421 401 OFFCURVE",
"428 405 OFFCURVE",
"432 409 CURVE",
"470 457 OFFCURVE",
"530 484 OFFCURVE",
"531 491 CURVE SMOOTH",
"532 494 OFFCURVE",
"532 496 OFFCURVE",
"530 502 CURVE",
"524 504 LINE",
"332 505 LINE",
"335 512 OFFCURVE",
"336 518 OFFCURVE",
"336 524 CURVE SMOOTH",
"336 538 OFFCURVE",
"327 546 OFFCURVE",
"319 546 CURVE SMOOTH",
"313 546 OFFCURVE",
"307 542 OFFCURVE",
"305 533 CURVE",
"297 517 OFFCURVE",
"304 504 OFFCURVE",
"279 507 CURVE SMOOTH",
"253 510 OFFCURVE",
"219 513 OFFCURVE",
"185 513 CURVE SMOOTH",
"112 513 OFFCURVE",
"38 497 OFFCURVE",
"38 420 CURVE SMOOTH",
"38 410 OFFCURVE",
"39 398 OFFCURVE",
"42 386 CURVE SMOOTH",
"46 366 OFFCURVE",
"55 332 OFFCURVE",
"61 313 CURVE SMOOTH",
"66 299 OFFCURVE",
"71 294 OFFCURVE",
"74 294 CURVE SMOOTH",
"78 294 OFFCURVE",
"80 298 OFFCURVE",
"80 302 CURVE SMOOTH",
"80 303 OFFCURVE",
"79 304 OFFCURVE",
"79 305 CURVE",
"69 332 OFFCURVE",
"55 365 OFFCURVE",
"55 396 CURVE SMOOTH",
"55 451 OFFCURVE",
"89 469 OFFCURVE",
"163 471 CURVE SMOOTH",
"285 475 LINE",
"267 427 OFFCURVE",
"228 353 OFFCURVE",
"192 278 CURVE",
"178 276 OFFCURVE",
"165 273 OFFCURVE",
"154 272 CURVE SMOOTH",
"140 271 OFFCURVE",
"122 259 OFFCURVE",
"115 249 CURVE SMOOTH",
"113 246 OFFCURVE",
"110 241 OFFCURVE",
"110 237 CURVE SMOOTH",
"110 233 OFFCURVE",
"114 229 OFFCURVE",
"124 229 CURVE SMOOTH",
"127 229 OFFCURVE",
"130 230 OFFCURVE",
"133 230 CURVE SMOOTH",
"144 231 OFFCURVE",
"158 235 OFFCURVE",
"174 239 CURVE",
"145 175 OFFCURVE",
"123 115 OFFCURVE",
"123 77 CURVE SMOOTH",
"123 51 OFFCURVE",
"138 16 OFFCURVE",
"166 0 CURVE SMOOTH",
"196 -17 OFFCURVE",
"230 -24 OFFCURVE",
"265 -24 CURVE SMOOTH"
);
},
{
closed = 1;
nodes = (
"373 573 LINE SMOOTH",
"403 580 OFFCURVE",
"445 613 OFFCURVE",
"472 630 CURVE SMOOTH",
"487 640 OFFCURVE",
"498 646 OFFCURVE",
"506 650 CURVE",
"509 653 OFFCURVE",
"512 656 OFFCURVE",
"512 660 CURVE SMOOTH",
"513 664 OFFCURVE",
"514 667 OFFCURVE",
"514 669 CURVE SMOOTH",
"514 677 OFFCURVE",
"509 681 OFFCURVE",
"500 681 CURVE SMOOTH",
"497 681 OFFCURVE",
"493 680 OFFCURVE",
"490 677 CURVE",
"476 668 OFFCURVE",
"455 651 OFFCURVE",
"425 627 CURVE SMOOTH",
"387 598 OFFCURVE",
"369 581 OFFCURVE",
"369 575 CURVE SMOOTH",
"369 574 OFFCURVE",
"370 573 OFFCURVE",
"372 573 CURVE SMOOTH"
);
}
);
width = 450;
}
);
note = Eacute;
unicode = 00C9;
},
{
color = 11;
glyphname = Ecircumflex;
lastChange = "2021-08-23 17:44:31 +0000";
layers = (
{
layerId = "C2A7C206-1962-4FAA-88DB-FE8C23752EC9";
paths = (
{
closed = 1;
nodes = (
"328 -24 OFFCURVE",
"394 -1 OFFCURVE",
"444 34 CURVE SMOOTH",
"459 44 OFFCURVE",
"472 57 OFFCURVE",
"484 70 CURVE SMOOTH",
"491 78 OFFCURVE",
"493 85 OFFCURVE",
"493 88 CURVE SMOOTH",
"493 90 OFFCURVE",
"493 91 OFFCURVE",
"492 91 CURVE SMOOTH",
"490 91 OFFCURVE",
"488 89 OFFCURVE",
"486 86 CURVE SMOOTH",
"446 36 OFFCURVE",
"376 12 OFFCURVE",
"314 12 CURVE SMOOTH",
"246 12 OFFCURVE",
"171 39 OFFCURVE",
"171 99 CURVE SMOOTH",
"171 124 OFFCURVE",
"189 185 OFFCURVE",
"214 250 CURVE",
"241 256 LINE SMOOTH",
"257 259 OFFCURVE",
"342 279 OFFCURVE",
"393 279 CURVE SMOOTH",
"417 279 OFFCURVE",
"434 275 OFFCURVE",
"434 263 CURVE SMOOTH",
"434 260 OFFCURVE",
"433 257 OFFCURVE",
"431 253 CURVE SMOOTH",
"426 245 OFFCURVE",
"436 244 OFFCURVE",
"440 252 CURVE SMOOTH",
"442 256 OFFCURVE",
"443 260 OFFCURVE",
"443 265 CURVE SMOOTH",
"443 280 OFFCURVE",
"431 296 OFFCURVE",
"402 298 CURVE SMOOTH",
"362 300 OFFCURVE",
"311 296 OFFCURVE",
"257 290 CURVE SMOOTH",
"228 285 LINE",
"260 362 OFFCURVE",
"295 437 OFFCURVE",
"313 460 CURVE SMOOTH",
"318 468 OFFCURVE",
"322 469 OFFCURVE",
"327 470 CURVE SMOOTH",
"338 472 OFFCURVE",
"349 472 OFFCURVE",
"358 472 CURVE SMOOTH",
"378 472 OFFCURVE",
"396 470 OFFCURVE",
"418 470 CURVE SMOOTH",
"443 470 OFFCURVE",
"454 469 OFFCURVE",
"454 462 CURVE SMOOTH",
"454 458 OFFCURVE",
"450 453 OFFCURVE",
"444 444 CURVE SMOOTH",
"432 428 OFFCURVE",
"423 419 OFFCURVE",
"422 416 CURVE",
"417 410 OFFCURVE",
"415 405 OFFCURVE",
"415 403 CURVE SMOOTH",
"415 402 OFFCURVE",
"416 401 OFFCURVE",
"417 401 CURVE SMOOTH",
"421 401 OFFCURVE",
"428 405 OFFCURVE",
"432 409 CURVE",
"470 457 OFFCURVE",
"530 484 OFFCURVE",
"531 491 CURVE SMOOTH",
"532 494 OFFCURVE",
"532 496 OFFCURVE",
"530 502 CURVE",
"524 504 LINE",
"332 505 LINE",
"335 512 OFFCURVE",
"336 518 OFFCURVE",
"336 524 CURVE SMOOTH",
"336 538 OFFCURVE",
"327 546 OFFCURVE",
"319 546 CURVE SMOOTH",
"313 546 OFFCURVE",
"307 542 OFFCURVE",
"305 533 CURVE",
"297 517 OFFCURVE",
"304 504 OFFCURVE",
"279 507 CURVE SMOOTH",
"253 510 OFFCURVE",
"219 513 OFFCURVE",
"185 513 CURVE SMOOTH",
"112 513 OFFCURVE",
"38 497 OFFCURVE",
"38 420 CURVE SMOOTH",
"38 410 OFFCURVE",
"39 398 OFFCURVE",
"42 386 CURVE SMOOTH",
"46 366 OFFCURVE",
"55 332 OFFCURVE",
"61 313 CURVE SMOOTH",
"66 299 OFFCURVE",
"71 294 OFFCURVE",
"74 294 CURVE SMOOTH",
"78 294 OFFCURVE",
"80 298 OFFCURVE",
"80 302 CURVE SMOOTH",
"80 303 OFFCURVE",
"79 304 OFFCURVE",
"79 305 CURVE",
"69 332 OFFCURVE",
"55 365 OFFCURVE",
"55 396 CURVE SMOOTH",
"55 451 OFFCURVE",
"89 469 OFFCURVE",
"163 471 CURVE SMOOTH",
"285 475 LINE",
"267 427 OFFCURVE",
"228 353 OFFCURVE",
"192 278 CURVE",
"178 276 OFFCURVE",
"165 273 OFFCURVE",
"154 272 CURVE SMOOTH",
"140 271 OFFCURVE",
"122 259 OFFCURVE",
"115 249 CURVE SMOOTH",
"113 246 OFFCURVE",
"110 241 OFFCURVE",
"110 237 CURVE SMOOTH",
"110 233 OFFCURVE",
"114 229 OFFCURVE",
"124 229 CURVE SMOOTH",
"127 229 OFFCURVE",
"130 230 OFFCURVE",
"133 230 CURVE SMOOTH",
"144 231 OFFCURVE",
"158 235 OFFCURVE",
"174 239 CURVE",
"145 175 OFFCURVE",
"123 115 OFFCURVE",
"123 77 CURVE SMOOTH",
"123 51 OFFCURVE",
"138 16 OFFCURVE",
"166 0 CURVE SMOOTH",
"196 -17 OFFCURVE",
"230 -24 OFFCURVE",
"265 -24 CURVE SMOOTH"
);
},
{
closed = 1;
nodes = (
"500 572 OFFCURVE",
"503 574 OFFCURVE",
"503 576 CURVE",
"504 577 OFFCURVE",
"502 603 OFFCURVE",
"499 652 CURVE SMOOTH",
"499 653 OFFCURVE",
"496 655 OFFCURVE",
"490 655 CURVE SMOOTH",
"485 655 OFFCURVE",
"478 655 OFFCURVE",
"469 654 CURVE",
"386 603 OFFCURVE",
"343 578 OFFCURVE",
"341 576 CURVE",
"341 573 OFFCURVE",
"344 572 OFFCURVE",
"349 572 CURVE SMOOTH",
"353 572 OFFCURVE",
"393 590 OFFCURVE",
"467 624 CURVE",
"485 576 LINE SMOOTH",
"486 573 OFFCURVE",
"490 571 OFFCURVE",
"495 571 CURVE SMOOTH"
);
}
);
width = 450;
}
);
note = Ecircumflex;
unicode = 00CA;
},
{
color = 11;
glyphname = Edieresis;
lastChange = "2021-08-23 17:44:31 +0000";
layers = (
{
layerId = "C2A7C206-1962-4FAA-88DB-FE8C23752EC9";
paths = (
{
closed = 1;
nodes = (
"328 -24 OFFCURVE",
"394 -1 OFFCURVE",
"444 34 CURVE SMOOTH",
"459 44 OFFCURVE",
"472 57 OFFCURVE",
"484 70 CURVE SMOOTH",
"491 78 OFFCURVE",
"493 85 OFFCURVE",
"493 88 CURVE SMOOTH",
"493 90 OFFCURVE",
"493 91 OFFCURVE",
"492 91 CURVE SMOOTH",
"490 91 OFFCURVE",
"488 89 OFFCURVE",
"486 86 CURVE SMOOTH",
"446 36 OFFCURVE",
"376 12 OFFCURVE",
"314 12 CURVE SMOOTH",
"246 12 OFFCURVE",
"171 39 OFFCURVE",
"171 99 CURVE SMOOTH",
"171 124 OFFCURVE",
"189 185 OFFCURVE",
"214 250 CURVE",
"241 256 LINE SMOOTH",
"257 259 OFFCURVE",
"342 279 OFFCURVE",
"393 279 CURVE SMOOTH",
"417 279 OFFCURVE",
"434 275 OFFCURVE",
"434 263 CURVE SMOOTH",
"434 260 OFFCURVE",
"433 257 OFFCURVE",
"431 253 CURVE SMOOTH",
"426 245 OFFCURVE",
"436 244 OFFCURVE",
"440 252 CURVE SMOOTH",
"442 256 OFFCURVE",
"443 260 OFFCURVE",
"443 265 CURVE SMOOTH",
"443 280 OFFCURVE",
"431 296 OFFCURVE",
"402 298 CURVE SMOOTH",
"362 300 OFFCURVE",
"311 296 OFFCURVE",
"257 290 CURVE SMOOTH",
"228 285 LINE",
"260 362 OFFCURVE",
"295 437 OFFCURVE",
"313 460 CURVE SMOOTH",
"318 468 OFFCURVE",
"322 469 OFFCURVE",
"327 470 CURVE SMOOTH",
"338 472 OFFCURVE",
"349 472 OFFCURVE",
"358 472 CURVE SMOOTH",
"378 472 OFFCURVE",
"396 470 OFFCURVE",
"418 470 CURVE SMOOTH",
"443 470 OFFCURVE",
"454 469 OFFCURVE",
"454 462 CURVE SMOOTH",
"454 458 OFFCURVE",
"450 453 OFFCURVE",
"444 444 CURVE SMOOTH",
"432 428 OFFCURVE",
"423 419 OFFCURVE",
"422 416 CURVE",
"417 410 OFFCURVE",
"415 405 OFFCURVE",
"415 403 CURVE SMOOTH",
"415 402 OFFCURVE",
"416 401 OFFCURVE",
"417 401 CURVE SMOOTH",
"421 401 OFFCURVE",
"428 405 OFFCURVE",
"432 409 CURVE",
"470 457 OFFCURVE",
"530 484 OFFCURVE",
"531 491 CURVE SMOOTH",
"532 494 OFFCURVE",
"532 496 OFFCURVE",
"530 502 CURVE",
"524 504 LINE",
"332 505 LINE",
"335 512 OFFCURVE",
"336 518 OFFCURVE",
"336 524 CURVE SMOOTH",
"336 538 OFFCURVE",
"327 546 OFFCURVE",
"319 546 CURVE SMOOTH",
"313 546 OFFCURVE",
"307 542 OFFCURVE",
"305 533 CURVE",
"297 517 OFFCURVE",
"304 504 OFFCURVE",
"279 507 CURVE SMOOTH",
"253 510 OFFCURVE",
"219 513 OFFCURVE",
"185 513 CURVE SMOOTH",
"112 513 OFFCURVE",
"38 497 OFFCURVE",
"38 420 CURVE SMOOTH",
"38 410 OFFCURVE",
"39 398 OFFCURVE",
"42 386 CURVE SMOOTH",
"46 366 OFFCURVE",
"55 332 OFFCURVE",
"61 313 CURVE SMOOTH",
"66 299 OFFCURVE",
"71 294 OFFCURVE",
"74 294 CURVE SMOOTH",
"78 294 OFFCURVE",
"80 298 OFFCURVE",
"80 302 CURVE SMOOTH",
"80 303 OFFCURVE",
"79 304 OFFCURVE",
"79 305 CURVE",
"69 332 OFFCURVE",
"55 365 OFFCURVE",
"55 396 CURVE SMOOTH",
"55 451 OFFCURVE",
"89 469 OFFCURVE",
"163 471 CURVE SMOOTH",
"285 475 LINE",
"267 427 OFFCURVE",
"228 353 OFFCURVE",
"192 278 CURVE",
"178 276 OFFCURVE",
"165 273 OFFCURVE",
"154 272 CURVE SMOOTH",
"140 271 OFFCURVE",
"122 259 OFFCURVE",
"115 249 CURVE SMOOTH",
"113 246 OFFCURVE",
"110 241 OFFCURVE",
"110 237 CURVE SMOOTH",
"110 233 OFFCURVE",
"114 229 OFFCURVE",
"124 229 CURVE SMOOTH",
"127 229 OFFCURVE",
"130 230 OFFCURVE",
"133 230 CURVE SMOOTH",
"144 231 OFFCURVE",
"158 235 OFFCURVE",
"174 239 CURVE",
"145 175 OFFCURVE",
"123 115 OFFCURVE",
"123 77 CURVE SMOOTH",
"123 51 OFFCURVE",
"138 16 OFFCURVE",
"166 0 CURVE SMOOTH",
"196 -17 OFFCURVE",
"230 -24 OFFCURVE",
"265 -24 CURVE SMOOTH"
);
},
{
closed = 1;
nodes = (
"369 578 OFFCURVE",
"379 584 OFFCURVE",
"383 597 CURVE SMOOTH",
"384 601 OFFCURVE",
"387 607 OFFCURVE",
"393 616 CURVE SMOOTH",
"399 625 OFFCURVE",
"402 633 OFFCURVE",
"404 638 CURVE",
"404 640 OFFCURVE",
"403 642 OFFCURVE",
"399 643 CURVE",
"389 643 OFFCURVE",
"379 638 OFFCURVE",
"367 629 CURVE SMOOTH",
"356 620 OFFCURVE",
"348 611 OFFCURVE",
"346 602 CURVE SMOOTH",
"345 597 OFFCURVE",
"344 593 OFFCURVE",
"344 589 CURVE SMOOTH",
"344 582 OFFCURVE",
"347 578 OFFCURVE",
"353 578 CURVE SMOOTH"
);
},
{
closed = 1;
nodes = (
"466 578 OFFCURVE",
"477 584 OFFCURVE",
"481 597 CURVE SMOOTH",
"482 601 OFFCURVE",
"485 607 OFFCURVE",
"490 616 CURVE SMOOTH",
"496 625 OFFCURVE",
"500 633 OFFCURVE",
"501 638 CURVE",
"502 640 OFFCURVE",
"501 642 OFFCURVE",
"497 643 CURVE",
"487 643 OFFCURVE",
"476 638 OFFCURVE",
"465 629 CURVE SMOOTH",
"453 620 OFFCURVE",
"446 611 OFFCURVE",
"443 602 CURVE SMOOTH",
"442 597 OFFCURVE",
"441 593 OFFCURVE",
"441 589 CURVE SMOOTH",
"441 582 OFFCURVE",
"444 578 OFFCURVE",
"450 578 CURVE SMOOTH"
);
}
);
width = 450;
}
);
note = Edieresis;
unicode = 00CB;
},
{
color = 11;
glyphname = Egrave;
lastChange = "2021-08-23 17:44:31 +0000";
layers = (
{
layerId = "C2A7C206-1962-4FAA-88DB-FE8C23752EC9";
paths = (
{
closed = 1;
nodes = (
"328 -24 OFFCURVE",
"394 -1 OFFCURVE",
"444 34 CURVE SMOOTH",
"459 44 OFFCURVE",
"472 57 OFFCURVE",
"484 70 CURVE SMOOTH",
"491 78 OFFCURVE",
"493 85 OFFCURVE",
"493 88 CURVE SMOOTH",
"493 90 OFFCURVE",
"493 91 OFFCURVE",
"492 91 CURVE SMOOTH",
"490 91 OFFCURVE",
"488 89 OFFCURVE",
"486 86 CURVE SMOOTH",
"446 36 OFFCURVE",
"376 12 OFFCURVE",
"314 12 CURVE SMOOTH",
"246 12 OFFCURVE",
"171 39 OFFCURVE",
"171 99 CURVE SMOOTH",
"171 124 OFFCURVE",
"189 185 OFFCURVE",
"214 250 CURVE",
"241 256 LINE SMOOTH",
"257 259 OFFCURVE",
"342 279 OFFCURVE",
"393 279 CURVE SMOOTH",
"417 279 OFFCURVE",
"434 275 OFFCURVE",
"434 263 CURVE SMOOTH",
"434 260 OFFCURVE",
"433 257 OFFCURVE",
"431 253 CURVE SMOOTH",
"426 245 OFFCURVE",
"436 244 OFFCURVE",
"440 252 CURVE SMOOTH",
"442 256 OFFCURVE",
"443 260 OFFCURVE",
"443 265 CURVE SMOOTH",
"443 280 OFFCURVE",
"431 296 OFFCURVE",
"402 298 CURVE SMOOTH",
"362 300 OFFCURVE",
"311 296 OFFCURVE",
"257 290 CURVE SMOOTH",
"228 285 LINE",
"260 362 OFFCURVE",
"295 437 OFFCURVE",
"313 460 CURVE SMOOTH",
"318 468 OFFCURVE",
"322 469 OFFCURVE",
"327 470 CURVE SMOOTH",
"338 472 OFFCURVE",
"349 472 OFFCURVE",
"358 472 CURVE SMOOTH",
"378 472 OFFCURVE",
"396 470 OFFCURVE",
"418 470 CURVE SMOOTH",
"443 470 OFFCURVE",
"454 469 OFFCURVE",
"454 462 CURVE SMOOTH",
"454 458 OFFCURVE",
"450 453 OFFCURVE",
"444 444 CURVE SMOOTH",
"432 428 OFFCURVE",
"423 419 OFFCURVE",
"422 416 CURVE",
"417 410 OFFCURVE",
"415 405 OFFCURVE",
"415 403 CURVE SMOOTH",
"415 402 OFFCURVE",
"416 401 OFFCURVE",
"417 401 CURVE SMOOTH",
"421 401 OFFCURVE",
"428 405 OFFCURVE",
"432 409 CURVE",
"470 457 OFFCURVE",
"530 484 OFFCURVE",
"531 491 CURVE SMOOTH",
"532 494 OFFCURVE",
"532 496 OFFCURVE",
"530 502 CURVE",
"524 504 LINE",
"332 505 LINE",
"335 512 OFFCURVE",
"336 518 OFFCURVE",
"336 524 CURVE SMOOTH",
"336 538 OFFCURVE",
"327 546 OFFCURVE",
"319 546 CURVE SMOOTH",
"313 546 OFFCURVE",
"307 542 OFFCURVE",
"305 533 CURVE",
"297 517 OFFCURVE",
"304 504 OFFCURVE",
"279 507 CURVE SMOOTH",
"253 510 OFFCURVE",
"219 513 OFFCURVE",
"185 513 CURVE SMOOTH",
"112 513 OFFCURVE",
"38 497 OFFCURVE",
"38 420 CURVE SMOOTH",
"38 410 OFFCURVE",
"39 398 OFFCURVE",
"42 386 CURVE SMOOTH",
"46 366 OFFCURVE",
"55 332 OFFCURVE",
"61 313 CURVE SMOOTH",
"66 299 OFFCURVE",
"71 294 OFFCURVE",
"74 294 CURVE SMOOTH",
"78 294 OFFCURVE",
"80 298 OFFCURVE",
"80 302 CURVE SMOOTH",
"80 303 OFFCURVE",
"79 304 OFFCURVE",
"79 305 CURVE",
"69 332 OFFCURVE",
"55 365 OFFCURVE",
"55 396 CURVE SMOOTH",
"55 451 OFFCURVE",
"89 469 OFFCURVE",
"163 471 CURVE SMOOTH",
"285 475 LINE",
"267 427 OFFCURVE",
"228 353 OFFCURVE",
"192 278 CURVE",
"178 276 OFFCURVE",
"165 273 OFFCURVE",
"154 272 CURVE SMOOTH",
"140 271 OFFCURVE",
"122 259 OFFCURVE",
"115 249 CURVE SMOOTH",
"113 246 OFFCURVE",
"110 241 OFFCURVE",
"110 237 CURVE SMOOTH",
"110 233 OFFCURVE",
"114 229 OFFCURVE",
"124 229 CURVE SMOOTH",
"127 229 OFFCURVE",
"130 230 OFFCURVE",
"133 230 CURVE SMOOTH",
"144 231 OFFCURVE",
"158 235 OFFCURVE",
"174 239 CURVE",
"145 175 OFFCURVE",
"123 115 OFFCURVE",
"123 77 CURVE SMOOTH",
"123 51 OFFCURVE",
"138 16 OFFCURVE",
"166 0 CURVE SMOOTH",
"196 -17 OFFCURVE",
"230 -24 OFFCURVE",
"265 -24 CURVE SMOOTH"
);
},
{
closed = 1;
nodes = (
"442 559 OFFCURVE",
"443 561 OFFCURVE",
"444 562 CURVE",
"445 568 OFFCURVE",
"431 583 OFFCURVE",
"405 607 CURVE SMOOTH",
"378 630 OFFCURVE",
"362 643 OFFCURVE",
"359 643 CURVE SMOOTH",
"347 643 OFFCURVE",
"338 636 OFFCURVE",
"335 623 CURVE SMOOTH",
"334 619 OFFCURVE",
"335 615 OFFCURVE",
"339 612 CURVE SMOOTH",
"347 605 OFFCURVE",
"364 595 OFFCURVE",
"387 582 CURVE SMOOTH",
"414 566 OFFCURVE",
"431 558 OFFCURVE",
"438 558 CURVE"
);
}
);
width = 450;
}
);
note = Egrave;
unicode = 00C8;
},
{
glyphname = F;
lastChange = "2021-08-23 17:44:31 +0000";
layers = (
{
layerId = "C2A7C206-1962-4FAA-88DB-FE8C23752EC9";
paths = (
{
closed = 1;
nodes = (
"195 -21 OFFCURVE",
"218 -10 OFFCURVE",
"236 8 CURVE SMOOTH",
"272 42 OFFCURVE",
"304 128 OFFCURVE",
"323 175 CURVE SMOOTH",
"335 204 OFFCURVE",
"347 233 OFFCURVE",
"358 263 CURVE",
"398 271 OFFCURVE",
"438 279 OFFCURVE",
"478 279 CURVE SMOOTH",
"488 279 OFFCURVE",
"518 279 OFFCURVE",
"518 263 CURVE SMOOTH",
"518 257 OFFCURVE",
"514 253 OFFCURVE",
"514 250 CURVE SMOOTH",
"514 248 OFFCURVE",
"515 247 OFFCURVE",
"517 247 CURVE SMOOTH",
"524 247 OFFCURVE",
"528 259 OFFCURVE",
"528 266 CURVE SMOOTH",
"528 298 OFFCURVE",
"486 299 OFFCURVE",
"463 299 CURVE SMOOTH",
"432 299 OFFCURVE",
"401 297 OFFCURVE",
"370 293 CURVE",
"415 410 LINE SMOOTH",
"423 430 OFFCURVE",
"434 447 OFFCURVE",
"443 464 CURVE",
"469 463 OFFCURVE",
"495 463 OFFCURVE",
"521 463 CURVE SMOOTH",
"539 463 OFFCURVE",
"671 464 OFFCURVE",
"671 492 CURVE SMOOTH",
"671 495 OFFCURVE",
"669 499 OFFCURVE",
"666 499 CURVE SMOOTH",
"664 499 OFFCURVE",
"663 498 OFFCURVE",
"661 497 CURVE",
"645 484 OFFCURVE",
"591 484 OFFCURVE",
"571 484 CURVE SMOOTH",
"532 484 OFFCURVE",
"492 485 OFFCURVE",
"453 488 CURVE",
"457 499 OFFCURVE",
"460 511 OFFCURVE",
"461 524 CURVE SMOOTH",
"461 533 OFFCURVE",
"458 541 OFFCURVE",
"448 541 CURVE SMOOTH",
"439 541 OFFCURVE",
"427 535 OFFCURVE",
"422 529 CURVE SMOOTH",
"420 526 OFFCURVE",
"415 509 OFFCURVE",
"410 491 CURVE",
"382 494 OFFCURVE",
"354 497 OFFCURVE",
"327 501 CURVE SMOOTH",
"294 505 OFFCURVE",
"260 510 OFFCURVE",
"227 510 CURVE SMOOTH",
"169 510 OFFCURVE",
"122 493 OFFCURVE",
"122 427 CURVE SMOOTH",
"122 386 OFFCURVE",
"142 354 OFFCURVE",
"142 321 CURVE SMOOTH",
"142 285 OFFCURVE",
"113 243 OFFCURVE",
"74 243 CURVE SMOOTH",
"61 243 OFFCURVE",
"57 251 OFFCURVE",
"52 251 CURVE SMOOTH",
"51 251 OFFCURVE",
"49 250 OFFCURVE",
"49 248 CURVE SMOOTH",
"49 237 OFFCURVE",
"83 231 OFFCURVE",
"91 231 CURVE SMOOTH",
"131 231 OFFCURVE",
"167 258 OFFCURVE",
"167 299 CURVE SMOOTH",
"167 335 OFFCURVE",
"145 367 OFFCURVE",
"145 403 CURVE SMOOTH",
"145 467 OFFCURVE",
"220 473 OFFCURVE",
"268 473 CURVE SMOOTH",
"300 473 OFFCURVE",
"332 471 OFFCURVE",
"363 469 CURVE SMOOTH",
"404 466 LINE",
"398 443 LINE SMOOTH",
"383 394 OFFCURVE",
"366 342 OFFCURVE",
"348 290 CURVE",
"311 285 OFFCURVE",
"275 278 OFFCURVE",
"238 272 CURVE SMOOTH",
"224 270 OFFCURVE",
"194 254 OFFCURVE",
"194 238 CURVE SMOOTH",
"194 231 OFFCURVE",
"203 230 OFFCURVE",
"208 230 CURVE SMOOTH",
"236 230 OFFCURVE",
"294 250 OFFCURVE",
"325 256 CURVE SMOOTH",
"336 258 LINE",
"318 210 OFFCURVE",
"298 162 OFFCURVE",
"277 119 CURVE SMOOTH",
"256 76 OFFCURVE",
"222 29 OFFCURVE",
"170 29 CURVE SMOOTH",
"104 29 OFFCURVE",
"75 79 OFFCURVE",
"65 137 CURVE SMOOTH",
"63 152 OFFCURVE",
"63 167 OFFCURVE",
"61 182 CURVE",
"60 185 OFFCURVE",
"58 188 OFFCURVE",
"55 188 CURVE SMOOTH",
"51 188 OFFCURVE",
"49 185 OFFCURVE",
"49 182 CURVE SMOOTH",
"49 108 OFFCURVE",
"76 -21 OFFCURVE",
"170 -21 CURVE SMOOTH"
);
}
);
width = 421;
}
);
note = F;
unicode = 0046;
},
{
glyphname = G;
lastChange = "2021-08-23 17:44:31 +0000";
layers = (
{
layerId = "C2A7C206-1962-4FAA-88DB-FE8C23752EC9";
paths = (
{
closed = 1;
nodes = (
"227 -278 OFFCURVE",
"258 -269 OFFCURVE",
"281 -256 CURVE SMOOTH",
"417 -178 OFFCURVE",
"455 28 OFFCURVE",
"514 161 CURVE SMOOTH",
"544 228 OFFCURVE",
"573 218 OFFCURVE",
"596 219 CURVE",
"598 223 OFFCURVE",
"600 229 OFFCURVE",
"595 231 CURVE",
"595 231 OFFCURVE",
"464 228 OFFCURVE",
"383 228 CURVE SMOOTH",
"359 228 OFFCURVE",
"339 228 OFFCURVE",
"329 229 CURVE SMOOTH",
"314 230 OFFCURVE",
"305 224 OFFCURVE",
"305 214 CURVE SMOOTH",
"305 210 OFFCURVE",
"307 205 OFFCURVE",
"310 200 CURVE SMOOTH",
"318 187 OFFCURVE",
"335 165 OFFCURVE",
"344 158 CURVE",
"347 154 OFFCURVE",
"350 161 OFFCURVE",
"350 165 CURVE SMOOTH",
"350 166 LINE",
"347 170 OFFCURVE",
"342 177 OFFCURVE",
"342 184 CURVE SMOOTH",
"342 190 OFFCURVE",
"346 197 OFFCURVE",
"361 200 CURVE SMOOTH",
"386 205 OFFCURVE",
"415 208 OFFCURVE",
"439 208 CURVE SMOOTH",
"454 208 OFFCURVE",
"466 207 OFFCURVE",
"474 204 CURVE",
"462 150 OFFCURVE",
"352 75 OFFCURVE",
"312 56 CURVE SMOOTH",
"275 39 OFFCURVE",
"239 30 OFFCURVE",
"207 30 CURVE SMOOTH",
"138 30 OFFCURVE",
"89 70 OFFCURVE",
"89 139 CURVE SMOOTH",
"89 182 OFFCURVE",
"108 237 OFFCURVE",
"154 301 CURVE SMOOTH",
"219 391 OFFCURVE",
"335 487 OFFCURVE",
"459 487 CURVE SMOOTH",
"495 487 OFFCURVE",
"524 480 OFFCURVE",
"524 450 CURVE SMOOTH",
"524 441 OFFCURVE",
"521 430 OFFCURVE",
"515 416 CURVE SMOOTH",
"503 391 OFFCURVE",
"493 365 OFFCURVE",
"488 353 CURVE SMOOTH",
"484 345 OFFCURVE",
"490 340 OFFCURVE",
"495 340 CURVE SMOOTH",
"499 340 OFFCURVE",
"503 342 OFFCURVE",
"505 348 CURVE SMOOTH",
"527 411 OFFCURVE",
"552 459 OFFCURVE",
"595 514 CURVE SMOOTH",
"598 518 OFFCURVE",
"599 521 OFFCURVE",
"599 524 CURVE SMOOTH",
"599 531 OFFCURVE",
"592 535 OFFCURVE",
"584 535 CURVE SMOOTH",
"579 535 OFFCURVE",
"573 533 OFFCURVE",
"567 528 CURVE SMOOTH",
"558 521 OFFCURVE",
"554 504 OFFCURVE",
"544 491 CURVE",
"534 502 OFFCURVE",
"515 507 OFFCURVE",
"492 507 CURVE SMOOTH",
"347 507 OFFCURVE",
"213 423 OFFCURVE",
"123 324 CURVE SMOOTH",
"58 252 OFFCURVE",
"28 180 OFFCURVE",
"28 121 CURVE SMOOTH",
"28 47 OFFCURVE",
"76 -4 OFFCURVE",
"160 -4 CURVE SMOOTH",
"203 -4 OFFCURVE",
"255 9 OFFCURVE",
"316 40 CURVE SMOOTH",
"347 56 OFFCURVE",
"438 114 OFFCURVE",
"476 164 CURVE",
"451 50 OFFCURVE",
"351 -155 OFFCURVE",
"276 -225 CURVE SMOOTH",
"252 -247 OFFCURVE",
"218 -265 OFFCURVE",
"189 -265 CURVE SMOOTH",
"161 -265 OFFCURVE",
"138 -249 OFFCURVE",
"131 -208 CURVE SMOOTH",
"130 -202 OFFCURVE",
"129 -196 OFFCURVE",
"129 -189 CURVE SMOOTH",
"129 -139 OFFCURVE",
"156 -74 OFFCURVE",
"181 -42 CURVE SMOOTH",
"183 -40 OFFCURVE",
"180 -33 OFFCURVE",
"175 -37 CURVE SMOOTH",
"149 -60 OFFCURVE",
"104 -124 OFFCURVE",
"104 -188 CURVE SMOOTH",
"104 -253 OFFCURVE",
"149 -278 OFFCURVE",
"198 -278 CURVE SMOOTH"
);
}
);
width = 561;
}
);
note = G;
unicode = 0047;
},
{
glyphname = H;
lastChange = "2021-08-23 18:11:41 +0000";
layers = (
{
background = {
paths = (
{
closed = 1;
nodes = (
"559 -11 OFFCURVE",
"626 64 OFFCURVE",
"647 88 CURVE SMOOTH",
"700 152 LINE SMOOTH",
"702 155 OFFCURVE",
"702 158 OFFCURVE",
"701 160 CURVE SMOOTH",
"700 161 OFFCURVE",
"700 162 OFFCURVE",
"699 161 CURVE SMOOTH",
"686 145 OFFCURVE",
"644 98 OFFCURVE",
"641 94 CURVE SMOOTH",
"602 51 OFFCURVE",
"574 35 OFFCURVE",
"555 26 CURVE SMOOTH",
"548 23 OFFCURVE",
"543 21 OFFCURVE",
"538 21 CURVE SMOOTH",
"524 21 OFFCURVE",
"519 35 OFFCURVE",
"519 55 CURVE SMOOTH",
"519 100 OFFCURVE",
"545 179 OFFCURVE",
"560 220 CURVE SMOOTH",
"566 238 LINE",
"576 239 OFFCURVE",
"586 239 OFFCURVE",
"595 239 CURVE SMOOTH",
"626 239 OFFCURVE",
"648 235 OFFCURVE",
"648 223 CURVE SMOOTH",
"648 220 OFFCURVE",
"647 217 OFFCURVE",
"644 213 CURVE SMOOTH",
"638 205 OFFCURVE",
"651 204 OFFCURVE",
"657 212 CURVE SMOOTH",
"660 216 OFFCURVE",
"662 221 OFFCURVE",
"662 225 CURVE SMOOTH",
"662 240 OFFCURVE",
"644 256 OFFCURVE",
"603 258 CURVE SMOOTH",
"592 258 OFFCURVE",
"583 259 OFFCURVE",
"574 259 CURVE",
"602 334 OFFCURVE",
"635 409 OFFCURVE",
"672 480 CURVE SMOOTH",
"681 497 OFFCURVE",
"697 518 OFFCURVE",
"709 527 CURVE SMOOTH",
"711 529 OFFCURVE",
"713 538 OFFCURVE",
"706 538 CURVE SMOOTH",
"704 538 OFFCURVE",
"702 537 OFFCURVE",
"700 536 CURVE SMOOTH",
"684 529 OFFCURVE",
"654 519 OFFCURVE",
"646 511 CURVE",
"633 488 OFFCURVE",
"620 462 OFFCURVE",
"604 430 CURVE SMOOTH",
"602 425 OFFCURVE",
"601 422 OFFCURVE",
"601 419 CURVE SMOOTH",
"601 411 OFFCURVE",
"608 409 OFFCURVE",
"611 409 CURVE",
"611 400 OFFCURVE",
"591 355 OFFCURVE",
"564 296 CURVE SMOOTH",
"547 259 LINE",
"469 257 OFFCURVE",
"392 245 OFFCURVE",
"315 236 CURVE",
"364 356 LINE SMOOTH",
"382 399 OFFCURVE",
"395 433 OFFCURVE",
"407 459 CURVE SMOOTH",
"424 499 OFFCURVE",
"433 510 OFFCURVE",
"443 519 CURVE SMOOTH",
"450 525 OFFCURVE",
"462 550 OFFCURVE",
"462 561 CURVE SMOOTH",
"462 566 OFFCURVE",
"459 568 OFFCURVE",
"453 564 CURVE",
"443 552 OFFCURVE",
"434 544 OFFCURVE",
"425 536 CURVE SMOOTH",
"424 535 OFFCURVE",
"423 534 OFFCURVE",
"422 534 CURVE",
"425 539 OFFCURVE",
"427 543 OFFCURVE",
"427 546 CURVE SMOOTH",
"427 550 OFFCURVE",
"425 552 OFFCURVE",
"422 552 CURVE SMOOTH",
"420 552 OFFCURVE",
"418 551 OFFCURVE",
"415 549 CURVE",
"391 527 OFFCURVE",
"294 502 OFFCURVE",
"257 496 CURVE SMOOTH",
"198 486 OFFCURVE",
"100 474 OFFCURVE",
"100 387 CURVE SMOOTH",
"100 371 OFFCURVE",
"103 351 OFFCURVE",
"111 329 CURVE SMOOTH",
"117 311 OFFCURVE",
"128 293 OFFCURVE",
"133 274 CURVE SMOOTH",
"135 264 OFFCURVE",
"137 255 OFFCURVE",
"137 246 CURVE SMOOTH",
"137 204 OFFCURVE",
"113 173 OFFCURVE",
"95 173 CURVE SMOOTH",
"92 173 OFFCURVE",
"89 173 OFFCURVE",
"87 175 CURVE SMOOTH",
"81 179 OFFCURVE",
"78 172 OFFCURVE",
"83 168 CURVE SMOOTH",
"89 164 OFFCURVE",
"97 162 OFFCURVE",
"104 162 CURVE SMOOTH",
"133 162 OFFCURVE",
"167 188 OFFCURVE",
"167 229 CURVE SMOOTH",
"167 236 OFFCURVE",
"166 243 OFFCURVE",
"164 251 CURVE SMOOTH",
"154 285 OFFCURVE",
"121 328 OFFCURVE",
"121 367 CURVE SMOOTH",
"121 405 OFFCURVE",
"144 434 OFFCURVE",
"190 451 CURVE SMOOTH",
"235 467 OFFCURVE",
"323 492 OFFCURVE",
"396 517 CURVE SMOOTH",
"402 519 LINE",
"384 505 OFFCURVE",
"376 493 OFFCURVE",
"374 453 CURVE SMOOTH",
"374 448 LINE",
"373 445 OFFCURVE",
"367 427 OFFCURVE",
"354 393 CURVE SMOOTH",
"342 361 OFFCURVE",
"320 298 OFFCURVE",
"291 234 CURVE",
"289 233 OFFCURVE",
"286 233 OFFCURVE",
"284 233 CURVE SMOOTH",
"265 232 OFFCURVE",
"240 220 OFFCURVE",
"230 210 CURVE SMOOTH",
"227 207 OFFCURVE",
"224 203 OFFCURVE",
"224 199 CURVE SMOOTH",
"224 194 OFFCURVE",
"229 190 OFFCURVE",
"243 190 CURVE SMOOTH",
"246 190 OFFCURVE",
"250 191 OFFCURVE",
"255 191 CURVE SMOOTH",
"260 191 OFFCURVE",
"266 192 OFFCURVE",
"272 193 CURVE",
"253 153 OFFCURVE",
"230 117 OFFCURVE",
"207 90 CURVE SMOOTH",
"182 62 OFFCURVE",
"155 52 OFFCURVE",
"127 52 CURVE SMOOTH",
"60 52 OFFCURVE",
"37 130 OFFCURVE",
"36 184 CURVE",
"37 194 OFFCURVE",
"28 187 OFFCURVE",
"26 181 CURVE SMOOTH",
"25 176 OFFCURVE",
"25 169 OFFCURVE",
"25 162 CURVE SMOOTH",
"25 117 OFFCURVE",
"40 46 OFFCURVE",
"78 17 CURVE SMOOTH",
"97 2 OFFCURVE",
"116 -4 OFFCURVE",
"133 -4 CURVE SMOOTH",
"192 -4 OFFCURVE",
"237 68 OFFCURVE",
"263 120 CURVE SMOOTH",
"274 144 OFFCURVE",
"287 170 OFFCURVE",
"298 197 CURVE",
"321 202 LINE SMOOTH",
"392 216 OFFCURVE",
"464 229 OFFCURVE",
"536 235 CURVE",
"517 196 OFFCURVE",
"499 157 OFFCURVE",
"486 112 CURVE SMOOTH",
"478 85 OFFCURVE",
"472 59 OFFCURVE",
"472 38 CURVE SMOOTH",
"472 9 OFFCURVE",
"483 -11 OFFCURVE",
"514 -11 CURVE SMOOTH"
);
}
);
};
layerId = "C2A7C206-1962-4FAA-88DB-FE8C23752EC9";
paths = (
{
closed = 1;
nodes = (
"559 -11 OFFCURVE",
"626 64 OFFCURVE",
"647 88 CURVE SMOOTH",
"700 152 LINE SMOOTH",
"702 155 OFFCURVE",
"702 158 OFFCURVE",
"701 160 CURVE SMOOTH",
"700 161 OFFCURVE",
"700 162 OFFCURVE",
"699 161 CURVE SMOOTH",
"686 145 OFFCURVE",
"644 98 OFFCURVE",
"641 94 CURVE SMOOTH",
"610 60 OFFCURVE",
"561 21 OFFCURVE",
"538 21 CURVE SMOOTH",
"524 21 OFFCURVE",
"519 35 OFFCURVE",
"519 55 CURVE SMOOTH",
"519 100 OFFCURVE",
"545 179 OFFCURVE",
"560 220 CURVE SMOOTH",
"566 238 LINE",
"576 239 OFFCURVE",
"586 239 OFFCURVE",
"595 239 CURVE SMOOTH",
"626 239 OFFCURVE",
"648 235 OFFCURVE",
"648 223 CURVE SMOOTH",
"648 220 OFFCURVE",
"647 217 OFFCURVE",
"644 213 CURVE SMOOTH",
"638 205 OFFCURVE",
"651 204 OFFCURVE",
"657 212 CURVE SMOOTH",
"660 216 OFFCURVE",
"662 221 OFFCURVE",
"662 225 CURVE SMOOTH",
"662 240 OFFCURVE",
"644 256 OFFCURVE",
"603 258 CURVE SMOOTH",
"592 258 OFFCURVE",
"583 259 OFFCURVE",
"574 259 CURVE",
"602 334 OFFCURVE",
"635 409 OFFCURVE",
"672 480 CURVE SMOOTH",
"681 497 OFFCURVE",
"697 518 OFFCURVE",
"709 527 CURVE SMOOTH",
"711 529 OFFCURVE",
"713 538 OFFCURVE",
"706 538 CURVE SMOOTH",
"704 538 OFFCURVE",
"702 537 OFFCURVE",
"700 536 CURVE SMOOTH",
"684 529 OFFCURVE",
"654 519 OFFCURVE",
"646 511 CURVE",
"635 492 OFFCURVE",
"601 429 OFFCURVE",
"601 419 CURVE SMOOTH",
"601 411 OFFCURVE",
"608 409 OFFCURVE",
"611 409 CURVE",
"611 400 OFFCURVE",
"591 355 OFFCURVE",
"564 296 CURVE SMOOTH",
"547 259 LINE",
"469 257 OFFCURVE",
"392 245 OFFCURVE",
"315 236 CURVE",
"364 356 LINE SMOOTH",
"382 399 OFFCURVE",
"395 433 OFFCURVE",
"407 459 CURVE SMOOTH",
"424 499 OFFCURVE",
"433 510 OFFCURVE",
"443 519 CURVE SMOOTH",
"450 525 OFFCURVE",
"462 550 OFFCURVE",
"462 561 CURVE SMOOTH",
"462 566 OFFCURVE",
"459 568 OFFCURVE",
"453 564 CURVE",
"443 552 OFFCURVE",
"434 544 OFFCURVE",
"425 536 CURVE SMOOTH",
"424 535 OFFCURVE",
"423 534 OFFCURVE",
"422 534 CURVE",
"425 539 OFFCURVE",
"427 543 OFFCURVE",
"427 546 CURVE SMOOTH",
"427 550 OFFCURVE",
"425 552 OFFCURVE",
"422 552 CURVE SMOOTH",
"420 552 OFFCURVE",
"418 551 OFFCURVE",
"415 549 CURVE",
"391 527 OFFCURVE",
"294 502 OFFCURVE",
"257 496 CURVE SMOOTH",
"198 486 OFFCURVE",
"100 474 OFFCURVE",
"100 387 CURVE SMOOTH",
"100 327 OFFCURVE",
"137 298 OFFCURVE",
"137 246 CURVE SMOOTH",
"137 204 OFFCURVE",
"113 173 OFFCURVE",
"95 173 CURVE SMOOTH",
"92 173 OFFCURVE",
"89 173 OFFCURVE",
"87 175 CURVE SMOOTH",
"81 179 OFFCURVE",
"78 172 OFFCURVE",
"83 168 CURVE SMOOTH",
"89 164 OFFCURVE",
"97 162 OFFCURVE",
"104 162 CURVE SMOOTH",
"133 162 OFFCURVE",
"167 188 OFFCURVE",
"167 229 CURVE SMOOTH",
"167 274 OFFCURVE",
"121 319 OFFCURVE",
"121 367 CURVE SMOOTH",
"121 405 OFFCURVE",
"144 434 OFFCURVE",
"190 451 CURVE SMOOTH",
"235 467 OFFCURVE",
"323 492 OFFCURVE",
"396 517 CURVE SMOOTH",
"402 519 LINE",
"384 505 OFFCURVE",
"376 493 OFFCURVE",
"374 453 CURVE SMOOTH",
"374 448 LINE",
"373 445 OFFCURVE",
"367 427 OFFCURVE",
"354 393 CURVE SMOOTH",
"342 361 OFFCURVE",
"320 298 OFFCURVE",
"291 234 CURVE",
"289 233 OFFCURVE",
"286 233 OFFCURVE",
"284 233 CURVE SMOOTH",
"265 232 OFFCURVE",
"240 220 OFFCURVE",
"230 210 CURVE SMOOTH",
"227 207 OFFCURVE",
"224 203 OFFCURVE",
"224 199 CURVE SMOOTH",
"224 194 OFFCURVE",
"229 190 OFFCURVE",
"243 190 CURVE SMOOTH",
"246 190 OFFCURVE",
"250 191 OFFCURVE",
"255 191 CURVE SMOOTH",
"260 191 OFFCURVE",
"266 192 OFFCURVE",
"272 193 CURVE",
"253 153 OFFCURVE",
"230 117 OFFCURVE",
"207 90 CURVE SMOOTH",
"182 62 OFFCURVE",
"155 52 OFFCURVE",
"127 52 CURVE SMOOTH",
"60 52 OFFCURVE",
"37 130 OFFCURVE",
"36 184 CURVE",
"37 194 OFFCURVE",
"28 187 OFFCURVE",
"26 181 CURVE SMOOTH",
"25 176 OFFCURVE",
"25 169 OFFCURVE",
"25 162 CURVE SMOOTH",
"25 84 OFFCURVE",
"61 -4 OFFCURVE",
"133 -4 CURVE SMOOTH",
"192 -4 OFFCURVE",
"237 68 OFFCURVE",
"263 120 CURVE SMOOTH",
"274 144 OFFCURVE",
"287 170 OFFCURVE",
"298 197 CURVE",
"321 202 LINE SMOOTH",
"392 216 OFFCURVE",
"464 229 OFFCURVE",
"536 235 CURVE",
"517 196 OFFCURVE",
"499 157 OFFCURVE",
"486 112 CURVE SMOOTH",
"478 85 OFFCURVE",
"472 59 OFFCURVE",
"472 38 CURVE SMOOTH",
"472 9 OFFCURVE",
"483 -11 OFFCURVE",
"514 -11 CURVE SMOOTH"
);
}
);
width = 597;
}
);
note = H;
unicode = 0048;
},
{
glyphname = I;
lastChange = "2021-08-23 17:44:31 +0000";
layers = (
{
layerId = "C2A7C206-1962-4FAA-88DB-FE8C23752EC9";
paths = (
{
closed = 1;
nodes = (
"191 -37 OFFCURVE",
"233 40 OFFCURVE",
"254 88 CURVE SMOOTH",
"290 170 OFFCURVE",
"316 256 OFFCURVE",
"347 340 CURVE SMOOTH",
"359 375 OFFCURVE",
"371 409 OFFCURVE",
"384 443 CURVE SMOOTH",
"393 466 OFFCURVE",
"401 485 OFFCURVE",
"417 503 CURVE SMOOTH",
"425 511 OFFCURVE",
"433 533 OFFCURVE",
"433 544 CURVE SMOOTH",
"433 546 OFFCURVE",
"433 550 OFFCURVE",
"430 550 CURVE SMOOTH",
"424 550 OFFCURVE",
"404 524 OFFCURVE",
"395 519 CURVE SMOOTH",
"334 482 OFFCURVE",
"140 495 OFFCURVE",
"140 405 CURVE SMOOTH",
"140 363 OFFCURVE",
"182 326 OFFCURVE",
"182 280 CURVE SMOOTH",
"182 262 OFFCURVE",
"170 220 OFFCURVE",
"147 220 CURVE SMOOTH",
"143 220 OFFCURVE",
"140 223 OFFCURVE",
"139 223 CURVE SMOOTH",
"137 223 OFFCURVE",
"136 222 OFFCURVE",
"136 220 CURVE SMOOTH",
"136 214 OFFCURVE",
"151 212 OFFCURVE",
"156 212 CURVE SMOOTH",
"184 212 OFFCURVE",
"206 239 OFFCURVE",
"206 266 CURVE SMOOTH",
"206 305 OFFCURVE",
"169 339 OFFCURVE",
"169 380 CURVE SMOOTH",
"169 415 OFFCURVE",
"195 435 OFFCURVE",
"225 447 CURVE SMOOTH",
"272 465 OFFCURVE",
"321 480 OFFCURVE",
"369 496 CURVE",
"350 478 OFFCURVE",
"353 456 OFFCURVE",
"352 432 CURVE SMOOTH",
"352 427 OFFCURVE",
"337 383 OFFCURVE",
"335 377 CURVE SMOOTH",
"304 281 OFFCURVE",
"262 134 OFFCURVE",
"199 57 CURVE SMOOTH",
"179 33 OFFCURVE",
"154 19 OFFCURVE",
"122 19 CURVE SMOOTH",
"67 19 OFFCURVE",
"39 71 OFFCURVE",
"29 118 CURVE SMOOTH",
"26 130 OFFCURVE",
"23 143 OFFCURVE",
"23 154 CURVE SMOOTH",
"23 156 OFFCURVE",
"23 157 OFFCURVE",
"21 157 CURVE SMOOTH",
"14 157 OFFCURVE",
"14 145 OFFCURVE",
"14 140 CURVE SMOOTH",
"14 72 OFFCURVE",
"49 -37 OFFCURVE",
"131 -37 CURVE SMOOTH"
);
}
);
width = 322;
}
);
note = I;
unicode = 0049;
},
{
color = 11;
glyphname = Iacute;
lastChange = "2021-08-23 17:44:31 +0000";
layers = (
{
layerId = "C2A7C206-1962-4FAA-88DB-FE8C23752EC9";
paths = (
{
closed = 1;
nodes = (
"191 -37 OFFCURVE",
"233 40 OFFCURVE",
"254 88 CURVE SMOOTH",
"290 170 OFFCURVE",
"316 256 OFFCURVE",
"347 340 CURVE SMOOTH",
"359 375 OFFCURVE",
"371 409 OFFCURVE",
"384 443 CURVE SMOOTH",
"393 466 OFFCURVE",
"401 485 OFFCURVE",
"417 503 CURVE SMOOTH",
"425 511 OFFCURVE",
"433 533 OFFCURVE",
"433 544 CURVE SMOOTH",
"433 546 OFFCURVE",
"433 550 OFFCURVE",
"430 550 CURVE SMOOTH",
"424 550 OFFCURVE",
"404 524 OFFCURVE",
"395 519 CURVE SMOOTH",
"334 482 OFFCURVE",
"140 495 OFFCURVE",
"140 405 CURVE SMOOTH",
"140 363 OFFCURVE",
"182 326 OFFCURVE",
"182 280 CURVE SMOOTH",
"182 262 OFFCURVE",
"170 220 OFFCURVE",
"147 220 CURVE SMOOTH",
"143 220 OFFCURVE",
"140 223 OFFCURVE",
"139 223 CURVE SMOOTH",
"137 223 OFFCURVE",
"136 222 OFFCURVE",
"136 220 CURVE SMOOTH",
"136 214 OFFCURVE",
"151 212 OFFCURVE",
"156 212 CURVE SMOOTH",
"184 212 OFFCURVE",
"206 239 OFFCURVE",
"206 266 CURVE SMOOTH",
"206 305 OFFCURVE",
"169 339 OFFCURVE",
"169 380 CURVE SMOOTH",
"169 415 OFFCURVE",
"195 435 OFFCURVE",
"225 447 CURVE SMOOTH",
"272 465 OFFCURVE",
"321 480 OFFCURVE",
"369 496 CURVE",
"350 478 OFFCURVE",
"353 456 OFFCURVE",
"352 432 CURVE SMOOTH",
"352 427 OFFCURVE",
"337 383 OFFCURVE",
"335 377 CURVE SMOOTH",
"304 281 OFFCURVE",
"262 134 OFFCURVE",
"199 57 CURVE SMOOTH",
"179 33 OFFCURVE",
"154 19 OFFCURVE",
"122 19 CURVE SMOOTH",
"67 19 OFFCURVE",
"39 71 OFFCURVE",
"29 118 CURVE SMOOTH",
"26 130 OFFCURVE",
"23 143 OFFCURVE",
"23 154 CURVE SMOOTH",
"23 156 OFFCURVE",
"23 157 OFFCURVE",
"21 157 CURVE SMOOTH",
"14 157 OFFCURVE",
"14 145 OFFCURVE",
"14 140 CURVE SMOOTH",
"14 72 OFFCURVE",
"49 -37 OFFCURVE",
"131 -37 CURVE SMOOTH"
);
},
{
closed = 1;
nodes = (
"359 560 OFFCURVE",
"365 563 OFFCURVE",
"447 616 CURVE SMOOTH",
"493 644 LINE SMOOTH",
"499 648 OFFCURVE",
"503 652 OFFCURVE",
"505 657 CURVE SMOOTH",
"507 661 OFFCURVE",
"508 665 OFFCURVE",
"508 668 CURVE SMOOTH",
"508 675 OFFCURVE",
"504 680 OFFCURVE",
"497 680 CURVE SMOOTH",
"496 680 LINE SMOOTH",
"492 680 OFFCURVE",
"487 678 OFFCURVE",
"482 674 CURVE SMOOTH",
"463 662 OFFCURVE",
"432 639 OFFCURVE",
"389 607 CURVE SMOOTH",
"338 568 OFFCURVE",
"348 571 OFFCURVE",
"346 564 CURVE SMOOTH",
"345 561 OFFCURVE",
"347 560 OFFCURVE",
"349 560 CURVE SMOOTH"
);
}
);
width = 322;
}
);
note = Iacute;
unicode = 00CD;
},
{
color = 11;
glyphname = Icircumflex;
lastChange = "2021-08-23 17:44:31 +0000";
layers = (
{
layerId = "C2A7C206-1962-4FAA-88DB-FE8C23752EC9";
paths = (
{
closed = 1;
nodes = (
"191 -37 OFFCURVE",
"233 40 OFFCURVE",
"254 88 CURVE SMOOTH",
"290 170 OFFCURVE",
"316 256 OFFCURVE",
"347 340 CURVE SMOOTH",
"359 375 OFFCURVE",
"371 409 OFFCURVE",
"384 443 CURVE SMOOTH",
"393 466 OFFCURVE",
"401 485 OFFCURVE",
"417 503 CURVE SMOOTH",
"425 511 OFFCURVE",
"433 533 OFFCURVE",
"433 544 CURVE SMOOTH",
"433 546 OFFCURVE",
"433 550 OFFCURVE",
"430 550 CURVE SMOOTH",
"424 550 OFFCURVE",
"404 524 OFFCURVE",
"395 519 CURVE SMOOTH",
"334 482 OFFCURVE",
"140 495 OFFCURVE",
"140 405 CURVE SMOOTH",
"140 363 OFFCURVE",
"182 326 OFFCURVE",
"182 280 CURVE SMOOTH",
"182 262 OFFCURVE",
"170 220 OFFCURVE",
"147 220 CURVE SMOOTH",
"143 220 OFFCURVE",
"140 223 OFFCURVE",
"139 223 CURVE SMOOTH",
"137 223 OFFCURVE",
"136 222 OFFCURVE",
"136 220 CURVE SMOOTH",
"136 214 OFFCURVE",
"151 212 OFFCURVE",
"156 212 CURVE SMOOTH",
"184 212 OFFCURVE",
"206 239 OFFCURVE",
"206 266 CURVE SMOOTH",
"206 305 OFFCURVE",
"169 339 OFFCURVE",
"169 380 CURVE SMOOTH",
"169 415 OFFCURVE",
"195 435 OFFCURVE",
"225 447 CURVE SMOOTH",
"272 465 OFFCURVE",
"321 480 OFFCURVE",
"369 496 CURVE",
"350 478 OFFCURVE",
"353 456 OFFCURVE",
"352 432 CURVE SMOOTH",
"352 427 OFFCURVE",
"337 383 OFFCURVE",
"335 377 CURVE SMOOTH",
"304 281 OFFCURVE",
"262 134 OFFCURVE",
"199 57 CURVE SMOOTH",
"179 33 OFFCURVE",
"154 19 OFFCURVE",
"122 19 CURVE SMOOTH",
"67 19 OFFCURVE",
"39 71 OFFCURVE",
"29 118 CURVE SMOOTH",
"26 130 OFFCURVE",
"23 143 OFFCURVE",
"23 154 CURVE SMOOTH",
"23 156 OFFCURVE",
"23 157 OFFCURVE",
"21 157 CURVE SMOOTH",
"14 157 OFFCURVE",
"14 145 OFFCURVE",
"14 140 CURVE SMOOTH",
"14 72 OFFCURVE",
"49 -37 OFFCURVE",
"131 -37 CURVE SMOOTH"
);
},
{
closed = 1;
nodes = (
"489 572 OFFCURVE",
"491 574 OFFCURVE",
"492 576 CURVE",
"492 576 LINE",
"487 652 LINE SMOOTH",
"487 653 OFFCURVE",
"484 655 OFFCURVE",
"478 655 CURVE SMOOTH",
"473 655 OFFCURVE",
"467 655 OFFCURVE",
"458 654 CURVE",
"374 603 OFFCURVE",
"331 578 OFFCURVE",
"329 576 CURVE",
"330 573 OFFCURVE",
"332 572 OFFCURVE",
"337 572 CURVE SMOOTH",
"341 572 OFFCURVE",
"381 590 OFFCURVE",
"455 624 CURVE",
"473 576 LINE",
"475 573 OFFCURVE",
"478 571 OFFCURVE",
"483 571 CURVE SMOOTH"
);
}
);
width = 322;
}
);
note = Icircumflex;
unicode = 00CE;
},
{
color = 11;
glyphname = Idieresis;
lastChange = "2021-08-23 17:44:31 +0000";
layers = (
{
layerId = "C2A7C206-1962-4FAA-88DB-FE8C23752EC9";
paths = (
{
closed = 1;
nodes = (
"191 -37 OFFCURVE",
"233 40 OFFCURVE",
"254 88 CURVE SMOOTH",
"290 170 OFFCURVE",
"316 256 OFFCURVE",
"347 340 CURVE SMOOTH",
"359 375 OFFCURVE",
"371 409 OFFCURVE",
"384 443 CURVE SMOOTH",
"393 466 OFFCURVE",
"401 485 OFFCURVE",
"417 503 CURVE SMOOTH",
"425 511 OFFCURVE",
"433 533 OFFCURVE",
"433 544 CURVE SMOOTH",
"433 546 OFFCURVE",
"433 550 OFFCURVE",
"430 550 CURVE SMOOTH",
"424 550 OFFCURVE",
"404 524 OFFCURVE",
"395 519 CURVE SMOOTH",
"334 482 OFFCURVE",
"140 495 OFFCURVE",
"140 405 CURVE SMOOTH",
"140 363 OFFCURVE",
"182 326 OFFCURVE",
"182 280 CURVE SMOOTH",
"182 262 OFFCURVE",
"170 220 OFFCURVE",
"147 220 CURVE SMOOTH",
"143 220 OFFCURVE",
"140 223 OFFCURVE",
"139 223 CURVE SMOOTH",
"137 223 OFFCURVE",
"136 222 OFFCURVE",
"136 220 CURVE SMOOTH",
"136 214 OFFCURVE",
"151 212 OFFCURVE",
"156 212 CURVE SMOOTH",
"184 212 OFFCURVE",
"206 239 OFFCURVE",
"206 266 CURVE SMOOTH",
"206 305 OFFCURVE",
"169 339 OFFCURVE",
"169 380 CURVE SMOOTH",
"169 415 OFFCURVE",
"195 435 OFFCURVE",
"225 447 CURVE SMOOTH",
"272 465 OFFCURVE",
"321 480 OFFCURVE",
"369 496 CURVE",
"350 478 OFFCURVE",
"353 456 OFFCURVE",
"352 432 CURVE SMOOTH",
"352 427 OFFCURVE",
"337 383 OFFCURVE",
"335 377 CURVE SMOOTH",
"304 281 OFFCURVE",
"262 134 OFFCURVE",
"199 57 CURVE SMOOTH",
"179 33 OFFCURVE",
"154 19 OFFCURVE",
"122 19 CURVE SMOOTH",
"67 19 OFFCURVE",
"39 71 OFFCURVE",
"29 118 CURVE SMOOTH",
"26 130 OFFCURVE",
"23 143 OFFCURVE",
"23 154 CURVE SMOOTH",
"23 156 OFFCURVE",
"23 157 OFFCURVE",
"21 157 CURVE SMOOTH",
"14 157 OFFCURVE",
"14 145 OFFCURVE",
"14 140 CURVE SMOOTH",
"14 72 OFFCURVE",
"49 -37 OFFCURVE",
"131 -37 CURVE SMOOTH"
);
},
{
closed = 1;
nodes = (
"394 578 OFFCURVE",
"405 584 OFFCURVE",
"408 597 CURVE SMOOTH",
"409 601 OFFCURVE",
"412 607 OFFCURVE",
"418 616 CURVE SMOOTH",
"424 625 OFFCURVE",
"428 633 OFFCURVE",
"429 638 CURVE",
"430 640 OFFCURVE",
"429 642 OFFCURVE",
"424 643 CURVE",
"414 643 OFFCURVE",
"404 638 OFFCURVE",
"392 629 CURVE SMOOTH",
"381 620 OFFCURVE",
"374 611 OFFCURVE",
"371 602 CURVE SMOOTH",
"370 597 OFFCURVE",
"369 593 OFFCURVE",
"369 589 CURVE SMOOTH",
"369 582 OFFCURVE",
"372 578 OFFCURVE",
"378 578 CURVE SMOOTH"
);
},
{
closed = 1;
nodes = (
"491 578 OFFCURVE",
"502 584 OFFCURVE",
"506 597 CURVE SMOOTH",
"507 601 OFFCURVE",
"510 607 OFFCURVE",
"516 616 CURVE",
"527 638 LINE",
"527 640 OFFCURVE",
"526 642 OFFCURVE",
"522 643 CURVE",
"512 643 OFFCURVE",
"501 638 OFFCURVE",
"490 629 CURVE SMOOTH",
"478 620 OFFCURVE",
"471 611 OFFCURVE",
"469 602 CURVE SMOOTH",
"467 597 OFFCURVE",
"466 593 OFFCURVE",
"466 589 CURVE SMOOTH",
"466 582 OFFCURVE",
"469 578 OFFCURVE",
"476 578 CURVE SMOOTH"
);
}
);
width = 322;
}
);
note = Idieresis;
unicode = 00CF;
},
{
color = 11;
glyphname = Igrave;
lastChange = "2021-08-23 17:44:31 +0000";
layers = (
{
layerId = "C2A7C206-1962-4FAA-88DB-FE8C23752EC9";
paths = (
{
closed = 1;
nodes = (
"191 -37 OFFCURVE",
"233 40 OFFCURVE",
"254 88 CURVE SMOOTH",
"290 170 OFFCURVE",
"316 256 OFFCURVE",
"347 340 CURVE SMOOTH",
"359 375 OFFCURVE",
"371 409 OFFCURVE",
"384 443 CURVE SMOOTH",
"393 466 OFFCURVE",
"401 485 OFFCURVE",
"417 503 CURVE SMOOTH",
"425 511 OFFCURVE",
"433 533 OFFCURVE",
"433 544 CURVE SMOOTH",
"433 546 OFFCURVE",
"433 550 OFFCURVE",
"430 550 CURVE SMOOTH",
"424 550 OFFCURVE",
"404 524 OFFCURVE",
"395 519 CURVE SMOOTH",
"334 482 OFFCURVE",
"140 495 OFFCURVE",
"140 405 CURVE SMOOTH",
"140 363 OFFCURVE",
"182 326 OFFCURVE",
"182 280 CURVE SMOOTH",
"182 262 OFFCURVE",
"170 220 OFFCURVE",
"147 220 CURVE SMOOTH",
"143 220 OFFCURVE",
"140 223 OFFCURVE",
"139 223 CURVE SMOOTH",
"137 223 OFFCURVE",
"136 222 OFFCURVE",
"136 220 CURVE SMOOTH",
"136 214 OFFCURVE",
"151 212 OFFCURVE",
"156 212 CURVE SMOOTH",
"184 212 OFFCURVE",
"206 239 OFFCURVE",
"206 266 CURVE SMOOTH",
"206 305 OFFCURVE",
"169 339 OFFCURVE",
"169 380 CURVE SMOOTH",
"169 415 OFFCURVE",
"195 435 OFFCURVE",
"225 447 CURVE SMOOTH",
"272 465 OFFCURVE",
"321 480 OFFCURVE",
"369 496 CURVE",
"350 478 OFFCURVE",
"353 456 OFFCURVE",
"352 432 CURVE SMOOTH",
"352 427 OFFCURVE",
"337 383 OFFCURVE",
"335 377 CURVE SMOOTH",
"304 281 OFFCURVE",
"262 134 OFFCURVE",
"199 57 CURVE SMOOTH",
"179 33 OFFCURVE",
"154 19 OFFCURVE",
"122 19 CURVE SMOOTH",
"67 19 OFFCURVE",
"39 71 OFFCURVE",
"29 118 CURVE SMOOTH",
"26 130 OFFCURVE",
"23 143 OFFCURVE",
"23 154 CURVE SMOOTH",
"23 156 OFFCURVE",
"23 157 OFFCURVE",
"21 157 CURVE SMOOTH",
"14 157 OFFCURVE",
"14 145 OFFCURVE",
"14 140 CURVE SMOOTH",
"14 72 OFFCURVE",
"49 -37 OFFCURVE",
"131 -37 CURVE SMOOTH"
);
},
{
closed = 1;
nodes = (
"459 582 OFFCURVE",
"460 583 OFFCURVE",
"460 584 CURVE SMOOTH",
"462 591 OFFCURVE",
"448 606 OFFCURVE",
"421 629 CURVE SMOOTH",
"395 653 OFFCURVE",
"379 665 OFFCURVE",
"375 665 CURVE SMOOTH",
"363 665 OFFCURVE",
"355 658 OFFCURVE",
"352 646 CURVE SMOOTH",
"350 641 OFFCURVE",
"352 637 OFFCURVE",
"355 635 CURVE SMOOTH",
"364 628 OFFCURVE",
"381 618 OFFCURVE",
"404 604 CURVE SMOOTH",
"431 589 OFFCURVE",
"448 580 OFFCURVE",
"455 580 CURVE"
);
}
);
width = 322;
}
);
note = Igrave;
unicode = 00CC;
},
{
glyphname = J;
lastChange = "2021-08-23 17:44:31 +0000";
layers = (
{
layerId = "C2A7C206-1962-4FAA-88DB-FE8C23752EC9";
paths = (
{
closed = 1;
nodes = (
"144 -155 OFFCURVE",
"166 -150 OFFCURVE",
"186 -141 CURVE SMOOTH",
"365 -59 OFFCURVE",
"448 278 OFFCURVE",
"518 459 CURVE SMOOTH",
"533 499 OFFCURVE",
"542 510 OFFCURVE",
"551 519 CURVE SMOOTH",
"557 524 OFFCURVE",
"567 549 OFFCURVE",
"567 560 CURVE SMOOTH",
"567 565 OFFCURVE",
"565 568 OFFCURVE",
"559 564 CURVE",
"548 552 OFFCURVE",
"541 544 OFFCURVE",
"531 536 CURVE SMOOTH",
"529 534 LINE",
"499 519 OFFCURVE",
"441 508 OFFCURVE",
"416 504 CURVE SMOOTH",
"368 496 OFFCURVE",
"274 483 OFFCURVE",
"274 421 CURVE SMOOTH",
"274 409 OFFCURVE",
"277 395 OFFCURVE",
"286 378 CURVE SMOOTH",
"293 364 OFFCURVE",
"308 335 OFFCURVE",
"312 319 CURVE SMOOTH",
"314 311 OFFCURVE",
"315 303 OFFCURVE",
"315 295 CURVE SMOOTH",
"315 257 OFFCURVE",
"289 229 OFFCURVE",
"275 238 CURVE SMOOTH",
"270 241 OFFCURVE",
"267 235 OFFCURVE",
"272 233 CURVE SMOOTH",
"277 230 OFFCURVE",
"283 228 OFFCURVE",
"289 228 CURVE SMOOTH",
"313 228 OFFCURVE",
"340 249 OFFCURVE",
"340 283 CURVE SMOOTH",
"340 288 OFFCURVE",
"340 294 OFFCURVE",
"338 300 CURVE SMOOTH",
"330 328 OFFCURVE",
"303 363 OFFCURVE",
"303 394 CURVE SMOOTH",
"303 426 OFFCURVE",
"321 449 OFFCURVE",
"359 463 CURVE SMOOTH",
"502 512 LINE",
"489 499 OFFCURVE",
"483 485 OFFCURVE",
"483 451 CURVE SMOOTH",
"483 449 OFFCURVE",
"482 443 OFFCURVE",
"480 438 CURVE",
"443 301 OFFCURVE",
"362 73 OFFCURVE",
"279 -31 CURVE SMOOTH",
"240 -80 OFFCURVE",
"184 -109 OFFCURVE",
"136 -109 CURVE SMOOTH",
"86 -109 OFFCURVE",
"46 -76 OFFCURVE",
"46 0 CURVE SMOOTH",
"46 46 OFFCURVE",
"60 99 OFFCURVE",
"105 142 CURVE",
"106 136 OFFCURVE",
"110 134 OFFCURVE",
"114 134 CURVE SMOOTH",
"121 134 OFFCURVE",
"131 141 OFFCURVE",
"134 146 CURVE SMOOTH",
"138 155 OFFCURVE",
"153 185 OFFCURVE",
"140 179 CURVE SMOOTH",
"130 174 OFFCURVE",
"100 158 OFFCURVE",
"78 133 CURVE SMOOTH",
"43 92 OFFCURVE",
"9 34 OFFCURVE",
"9 -40 CURVE SMOOTH",
"9 -119 OFFCURVE",
"63 -155 OFFCURVE",
"122 -155 CURVE SMOOTH"
);
}
);
width = 409;
}
);
note = J;
unicode = 004A;
},
{
glyphname = K;
lastChange = "2021-08-23 17:44:31 +0000";
layers = (
{
layerId = "C2A7C206-1962-4FAA-88DB-FE8C23752EC9";
paths = (
{
closed = 1;
nodes = (
"621 -44 OFFCURVE",
"642 -21 OFFCURVE",
"642 11 CURVE SMOOTH",
"642 22 OFFCURVE",
"640 33 OFFCURVE",
"635 45 CURVE SMOOTH",
"628 65 OFFCURVE",
"617 90 OFFCURVE",
"605 108 CURVE SMOOTH",
"603 112 OFFCURVE",
"599 114 OFFCURVE",
"597 114 CURVE SMOOTH",
"596 114 OFFCURVE",
"595 113 OFFCURVE",
"595 111 CURVE SMOOTH",
"595 110 OFFCURVE",
"596 108 OFFCURVE",
"597 106 CURVE SMOOTH",
"611 80 OFFCURVE",
"628 44 OFFCURVE",
"628 16 CURVE SMOOTH",
"628 -5 OFFCURVE",
"617 -13 OFFCURVE",
"603 -13 CURVE SMOOTH",
"595 -13 OFFCURVE",
"587 -10 OFFCURVE",
"579 -6 CURVE SMOOTH",
"533 20 OFFCURVE",
"489 84 OFFCURVE",
"466 116 CURVE SMOOTH",
"441 150 OFFCURVE",
"391 223 OFFCURVE",
"377 250 CURVE",
"403 278 OFFCURVE",
"616 479 OFFCURVE",
"734 552 CURVE SMOOTH",
"756 566 OFFCURVE",
"785 579 OFFCURVE",
"811 579 CURVE SMOOTH",
"833 579 OFFCURVE",
"853 570 OFFCURVE",
"866 546 CURVE SMOOTH",
"869 541 OFFCURVE",
"872 539 OFFCURVE",
"874 539 CURVE SMOOTH",
"876 539 OFFCURVE",
"878 541 OFFCURVE",
"878 545 CURVE SMOOTH",
"878 549 LINE",
"859 584 OFFCURVE",
"829 596 OFFCURVE",
"797 596 CURVE SMOOTH",
"738 596 OFFCURVE",
"667 553 OFFCURVE",
"625 520 CURVE SMOOTH",
"532 445 OFFCURVE",
"393 304 OFFCURVE",
"287 185 CURVE",
"309 246 OFFCURVE",
"330 309 OFFCURVE",
"342 343 CURVE SMOOTH",
"380 446 LINE SMOOTH",
"395 486 OFFCURVE",
"404 497 OFFCURVE",
"413 505 CURVE SMOOTH",
"419 511 OFFCURVE",
"429 535 OFFCURVE",
"429 546 CURVE SMOOTH",
"429 552 OFFCURVE",
"427 554 OFFCURVE",
"421 550 CURVE",
"410 538 OFFCURVE",
"403 531 OFFCURVE",
"393 523 CURVE",
"391 522 OFFCURVE",
"390 520 OFFCURVE",
"389 519 CURVE",
"359 506 OFFCURVE",
"302 495 OFFCURVE",
"278 491 CURVE SMOOTH",
"230 483 OFFCURVE",
"136 470 OFFCURVE",
"136 408 CURVE SMOOTH",
"136 396 OFFCURVE",
"139 382 OFFCURVE",
"148 365 CURVE SMOOTH",
"155 350 OFFCURVE",
"170 321 OFFCURVE",
"174 305 CURVE SMOOTH",
"176 297 OFFCURVE",
"177 289 OFFCURVE",
"177 281 CURVE SMOOTH",
"177 243 OFFCURVE",
"151 216 OFFCURVE",
"137 224 CURVE SMOOTH",
"132 227 OFFCURVE",
"129 222 OFFCURVE",
"134 219 CURVE SMOOTH",
"139 216 OFFCURVE",
"145 214 OFFCURVE",
"151 214 CURVE SMOOTH",
"175 214 OFFCURVE",
"202 235 OFFCURVE",
"202 269 CURVE SMOOTH",
"202 275 OFFCURVE",
"202 281 OFFCURVE",
"200 287 CURVE SMOOTH",
"192 315 OFFCURVE",
"165 349 OFFCURVE",
"165 381 CURVE SMOOTH",
"165 412 OFFCURVE",
"183 436 OFFCURVE",
"221 449 CURVE SMOOTH",
"252 461 OFFCURVE",
"311 481 OFFCURVE",
"365 499 CURVE",
"353 486 OFFCURVE",
"348 473 OFFCURVE",
"348 440 CURVE SMOOTH",
"348 435 LINE",
"331 379 LINE SMOOTH",
"311 321 OFFCURVE",
"260 139 OFFCURVE",
"195 60 CURVE SMOOTH",
"172 31 OFFCURVE",
"145 22 OFFCURVE",
"117 22 CURVE SMOOTH",
"50 22 OFFCURVE",
"24 100 OFFCURVE",
"19 154 CURVE",
"20 164 OFFCURVE",
"11 157 OFFCURVE",
"9 151 CURVE",
"7 110 OFFCURVE",
"24 21 OFFCURVE",
"71 -13 CURVE SMOOTH",
"91 -28 OFFCURVE",
"110 -34 OFFCURVE",
"127 -34 CURVE SMOOTH",
"185 -34 OFFCURVE",
"226 38 OFFCURVE",
"249 90 CURVE SMOOTH",
"275 153 LINE",
"309 191 OFFCURVE",
"335 214 OFFCURVE",
"351 227 CURVE",
"363 223 OFFCURVE",
"462 15 OFFCURVE",
"553 -34 CURVE SMOOTH",
"566 -41 OFFCURVE",
"579 -44 OFFCURVE",
"590 -44 CURVE SMOOTH"
);
}
);
width = 644;
}
);
note = K;
unicode = 004B;
},
{
glyphname = L;
lastChange = "2021-08-23 17:44:31 +0000";
layers = (
{
layerId = "C2A7C206-1962-4FAA-88DB-FE8C23752EC9";
paths = (
{
closed = 1;
nodes = (
"489 -67 OFFCURVE",
"500 -67 OFFCURVE",
"512 -65 CURVE SMOOTH",
"563 -58 OFFCURVE",
"603 -28 OFFCURVE",
"603 7 CURVE SMOOTH",
"603 24 OFFCURVE",
"593 42 OFFCURVE",
"570 59 CURVE SMOOTH",
"566 62 OFFCURVE",
"560 64 OFFCURVE",
"558 58 CURVE SMOOTH",
"557 53 OFFCURVE",
"573 41 OFFCURVE",
"577 22 CURVE SMOOTH",
"584 -23 OFFCURVE",
"552 -46 OFFCURVE",
"512 -47 CURVE SMOOTH",
"418 -47 OFFCURVE",
"307 8 OFFCURVE",
"217 57 CURVE",
"247 124 OFFCURVE",
"309 307 OFFCURVE",
"371 412 CURVE SMOOTH",
"401 461 OFFCURVE",
"435 494 OFFCURVE",
"469 494 CURVE SMOOTH",
"536 494 OFFCURVE",
"563 416 OFFCURVE",
"567 361 CURVE",
"566 352 OFFCURVE",
"575 359 OFFCURVE",
"577 365 CURVE",
"579 405 OFFCURVE",
"564 497 OFFCURVE",
"516 529 CURVE SMOOTH",
"500 539 OFFCURVE",
"485 544 OFFCURVE",
"470 544 CURVE SMOOTH",
"412 544 OFFCURVE",
"361 479 OFFCURVE",
"337 425 CURVE SMOOTH",
"285 308 OFFCURVE",
"246 185 OFFCURVE",
"198 66 CURVE",
"134 102 OFFCURVE",
"82 131 OFFCURVE",
"56 131 CURVE SMOOTH",
"31 131 OFFCURVE",
"20 108 OFFCURVE",
"20 78 CURVE SMOOTH",
"20 45 OFFCURVE",
"34 2 OFFCURVE",
"56 -28 CURVE SMOOTH",
"75 -54 OFFCURVE",
"96 -66 OFFCURVE",
"117 -66 CURVE SMOOTH",
"140 -66 OFFCURVE",
"163 -49 OFFCURVE",
"180 -20 CURVE SMOOTH",
"186 -10 OFFCURVE",
"193 6 OFFCURVE",
"202 24 CURVE",
"290 -21 OFFCURVE",
"385 -67 OFFCURVE",
"477 -67 CURVE SMOOTH"
);
},
{
closed = 1;
nodes = (
"95 -53 OFFCURVE",
"75 -29 OFFCURVE",
"67 33 CURVE SMOOTH",
"66 42 OFFCURVE",
"65 49 OFFCURVE",
"65 55 CURVE SMOOTH",
"65 70 OFFCURVE",
"69 78 OFFCURVE",
"82 78 CURVE SMOOTH",
"90 78 OFFCURVE",
"101 75 OFFCURVE",
"117 67 CURVE SMOOTH",
"139 57 OFFCURVE",
"161 45 OFFCURVE",
"185 33 CURVE",
"177 14 OFFCURVE",
"170 -1 OFFCURVE",
"165 -10 CURVE SMOOTH",
"151 -36 OFFCURVE",
"133 -53 OFFCURVE",
"116 -53 CURVE SMOOTH"
);
}
);
width = 602;
}
);
note = L;
unicode = 004C;
},
{
glyphname = M;
lastChange = "2021-08-23 17:44:31 +0000";
layers = (
{
layerId = "C2A7C206-1962-4FAA-88DB-FE8C23752EC9";
paths = (
{
closed = 1;
nodes = (
"196 -22 OFFCURVE",
"242 60 OFFCURVE",
"262 106 CURVE SMOOTH",
"276 138 OFFCURVE",
"309 221 OFFCURVE",
"329 275 CURVE SMOOTH",
"349 333 LINE",
"375 252 OFFCURVE",
"425 179 OFFCURVE",
"448 108 CURVE",
"430 74 OFFCURVE",
"423 48 OFFCURVE",
"423 30 CURVE SMOOTH",
"423 11 OFFCURVE",
"431 1 OFFCURVE",
"442 1 CURVE SMOOTH",
"456 1 OFFCURVE",
"474 16 OFFCURVE",
"486 47 CURVE SMOOTH",
"490 58 OFFCURVE",
"493 69 OFFCURVE",
"493 81 CURVE SMOOTH",
"493 91 OFFCURVE",
"491 103 OFFCURVE",
"486 117 CURVE",
"530 184 OFFCURVE",
"660 330 OFFCURVE",
"710 405 CURVE",
"707 391 OFFCURVE",
"701 372 OFFCURVE",
"691 343 CURVE SMOOTH",
"660 250 OFFCURVE",
"628 186 OFFCURVE",
"610 115 CURVE SMOOTH",
"604 92 OFFCURVE",
"601 70 OFFCURVE",
"601 51 CURVE SMOOTH",
"601 14 OFFCURVE",
"613 -11 OFFCURVE",
"639 -11 CURVE SMOOTH",
"655 -11 OFFCURVE",
"676 -2 OFFCURVE",
"703 18 CURVE SMOOTH",
"750 53 OFFCURVE",
"788 105 OFFCURVE",
"823 152 CURVE SMOOTH",
"825 155 OFFCURVE",
"824 158 OFFCURVE",
"823 160 CURVE",
"823 161 OFFCURVE",
"822 162 OFFCURVE",
"822 161 CURVE",
"784 113 OFFCURVE",
"740 53 OFFCURVE",
"685 26 CURVE SMOOTH",
"679 23 OFFCURVE",
"673 21 OFFCURVE",
"669 21 CURVE SMOOTH",
"653 21 OFFCURVE",
"647 38 OFFCURVE",
"647 63 CURVE SMOOTH",
"647 110 OFFCURVE",
"668 187 OFFCURVE",
"681 228 CURVE SMOOTH",
"709 319 OFFCURVE",
"743 411 OFFCURVE",
"782 497 CURVE SMOOTH",
"790 515 OFFCURVE",
"806 536 OFFCURVE",
"818 546 CURVE SMOOTH",
"820 548 OFFCURVE",
"822 557 OFFCURVE",
"815 557 CURVE SMOOTH",
"813 557 OFFCURVE",
"811 556 OFFCURVE",
"809 555 CURVE SMOOTH",
"792 547 OFFCURVE",
"768 522 OFFCURVE",
"760 513 CURVE",
"743 510 OFFCURVE",
"734 493 OFFCURVE",
"729 479 CURVE SMOOTH",
"719 455 OFFCURVE",
"718 447 OFFCURVE",
"716 437 CURVE",
"678 383 OFFCURVE",
"543 232 OFFCURVE",
"469 140 CURVE",
"440 210 OFFCURVE",
"379 323 OFFCURVE",
"374 400 CURVE",
"385 427 OFFCURVE",
"393 436 OFFCURVE",
"402 444 CURVE SMOOTH",
"408 450 OFFCURVE",
"418 475 OFFCURVE",
"418 487 CURVE SMOOTH",
"418 492 OFFCURVE",
"416 494 OFFCURVE",
"410 490 CURVE",
"399 478 OFFCURVE",
"391 470 OFFCURVE",
"382 462 CURVE SMOOTH",
"347 433 OFFCURVE",
"334 431 OFFCURVE",
"334 376 CURVE SMOOTH",
"334 371 LINE",
"333 367 OFFCURVE",
"328 349 OFFCURVE",
"316 313 CURVE SMOOTH",
"296 253 OFFCURVE",
"255 134 OFFCURVE",
"206 75 CURVE SMOOTH",
"182 46 OFFCURVE",
"154 36 OFFCURVE",
"125 36 CURVE SMOOTH",
"56 36 OFFCURVE",
"28 116 OFFCURVE",
"23 173 CURVE",
"25 183 OFFCURVE",
"15 176 OFFCURVE",
"13 169 CURVE",
"11 127 OFFCURVE",
"29 35 OFFCURVE",
"77 -1 CURVE SMOOTH",
"97 -16 OFFCURVE",
"115 -22 OFFCURVE",
"133 -22 CURVE SMOOTH"
);
},
{
closed = 1;
nodes = (
"122 156 OFFCURVE",
"165 185 OFFCURVE",
"165 229 CURVE SMOOTH",
"165 237 OFFCURVE",
"163 246 OFFCURVE",
"160 255 CURVE SMOOTH",
"148 290 OFFCURVE",
"113 324 OFFCURVE",
"113 364 CURVE SMOOTH",
"113 403 OFFCURVE",
"144 433 OFFCURVE",
"207 450 CURVE SMOOTH",
"303 476 OFFCURVE",
"466 496 OFFCURVE",
"504 537 CURVE SMOOTH",
"508 541 OFFCURVE",
"507 546 OFFCURVE",
"503 546 CURVE SMOOTH",
"502 546 OFFCURVE",
"501 546 OFFCURVE",
"499 544 CURVE SMOOTH",
"474 517 OFFCURVE",
"384 506 OFFCURVE",
"298 495 CURVE SMOOTH",
"218 485 OFFCURVE",
"88 475 OFFCURVE",
"88 388 CURVE SMOOTH",
"88 371 OFFCURVE",
"93 351 OFFCURVE",
"104 328 CURVE SMOOTH",
"113 309 OFFCURVE",
"127 291 OFFCURVE",
"134 271 CURVE SMOOTH",
"138 262 OFFCURVE",
"139 252 OFFCURVE",
"139 244 CURVE SMOOTH",
"139 200 OFFCURVE",
"101 166 OFFCURVE",
"75 166 CURVE SMOOTH",
"71 166 OFFCURVE",
"68 167 OFFCURVE",
"65 168 CURVE",
"61 171 OFFCURVE",
"57 169 OFFCURVE",
"57 166 CURVE SMOOTH",
"57 164 OFFCURVE",
"58 162 OFFCURVE",
"61 161 CURVE SMOOTH",
"68 158 OFFCURVE",
"76 156 OFFCURVE",
"85 156 CURVE SMOOTH"
);
}
);
width = 724;
}
);
note = M;
unicode = 004D;
},
{
glyphname = N;
lastChange = "2021-08-23 17:44:31 +0000";
layers = (
{
layerId = "C2A7C206-1962-4FAA-88DB-FE8C23752EC9";
paths = (
{
closed = 1;
nodes = (
"574 -43 OFFCURVE",
"585 -11 OFFCURVE",
"585 24 CURVE SMOOTH",
"585 60 OFFCURVE",
"573 95 OFFCURVE",
"562 117 CURVE",
"568 198 OFFCURVE",
"661 482 OFFCURVE",
"695 544 CURVE",
"693 553 OFFCURVE",
"685 557 OFFCURVE",
"677 557 CURVE SMOOTH",
"672 557 OFFCURVE",
"667 554 OFFCURVE",
"664 550 CURVE",
"652 527 OFFCURVE",
"636 505 OFFCURVE",
"627 475 CURVE",
"625 471 OFFCURVE",
"632 463 OFFCURVE",
"632 458 CURVE SMOOTH",
"632 456 LINE",
"596 349 OFFCURVE",
"552 178 OFFCURVE",
"543 138 CURVE",
"537 145 OFFCURVE",
"485 253 OFFCURVE",
"368 378 CURVE",
"385 423 OFFCURVE",
"395 460 OFFCURVE",
"400 482 CURVE SMOOTH",
"403 496 OFFCURVE",
"397 504 OFFCURVE",
"390 504 CURVE SMOOTH",
"385 504 OFFCURVE",
"378 499 OFFCURVE",
"375 488 CURVE SMOOTH",
"347 401 OFFCURVE",
"357 420 OFFCURVE",
"349 394 CURVE",
"304 436 OFFCURVE",
"223 514 OFFCURVE",
"157 514 CURVE SMOOTH",
"98 514 OFFCURVE",
"54 474 OFFCURVE",
"54 411 CURVE SMOOTH",
"54 394 OFFCURVE",
"57 375 OFFCURVE",
"64 355 CURVE SMOOTH",
"71 336 OFFCURVE",
"81 319 OFFCURVE",
"87 300 CURVE SMOOTH",
"90 290 OFFCURVE",
"91 281 OFFCURVE",
"91 272 CURVE SMOOTH",
"91 224 OFFCURVE",
"59 189 OFFCURVE",
"41 200 CURVE SMOOTH",
"35 204 OFFCURVE",
"31 198 OFFCURVE",
"37 194 CURVE SMOOTH",
"43 190 OFFCURVE",
"51 188 OFFCURVE",
"59 188 CURVE SMOOTH",
"87 188 OFFCURVE",
"121 213 OFFCURVE",
"121 255 CURVE SMOOTH",
"121 262 OFFCURVE",
"120 269 OFFCURVE",
"118 277 CURVE SMOOTH",
"108 311 OFFCURVE",
"75 354 OFFCURVE",
"75 392 CURVE SMOOTH",
"75 455 OFFCURVE",
"103 478 OFFCURVE",
"138 478 CURVE SMOOTH",
"144 478 OFFCURVE",
"151 477 OFFCURVE",
"157 476 CURVE SMOOTH",
"219 463 OFFCURVE",
"276 401 OFFCURVE",
"317 357 CURVE",
"323 349 OFFCURVE",
"326 339 OFFCURVE",
"326 327 CURVE SMOOTH",
"326 322 OFFCURVE",
"326 317 OFFCURVE",
"324 312 CURVE SMOOTH",
"314 276 OFFCURVE",
"280 190 OFFCURVE",
"264 155 CURVE SMOOTH",
"243 113 OFFCURVE",
"217 67 OFFCURVE",
"183 39 CURVE SMOOTH",
"162 22 OFFCURVE",
"138 13 OFFCURVE",
"116 13 CURVE SMOOTH",
"89 13 OFFCURVE",
"63 25 OFFCURVE",
"42 49 CURVE SMOOTH",
"21 73 OFFCURVE",
"16 97 OFFCURVE",
"9 129 CURVE",
"3 131 OFFCURVE",
"2 129 OFFCURVE",
"1 123 CURVE",
"3 93 OFFCURVE",
"11 49 OFFCURVE",
"31 16 CURVE SMOOTH",
"52 -18 OFFCURVE",
"84 -37 OFFCURVE",
"116 -37 CURVE SMOOTH",
"140 -37 OFFCURVE",
"164 -27 OFFCURVE",
"184 -7 CURVE SMOOTH",
"255 65 OFFCURVE",
"329 264 OFFCURVE",
"348 315 CURVE",
"348 315 OFFCURVE",
"352 322 OFFCURVE",
"357 318 CURVE SMOOTH",
"427 262 OFFCURVE",
"480 165 OFFCURVE",
"534 85 CURVE",
"529 64 OFFCURVE",
"527 45 OFFCURVE",
"527 28 CURVE SMOOTH",
"527 16 OFFCURVE",
"528 4 OFFCURVE",
"529 -6 CURVE SMOOTH",
"532 -26 OFFCURVE",
"543 -43 OFFCURVE",
"555 -43 CURVE SMOOTH"
);
}
);
width = 665;
}
);
note = N;
unicode = 004E;
},
{
glyphname = Eng;
lastChange = "2021-08-23 17:44:31 +0000";
layers = (
{
background = {
paths = (
{
closed = 0;
nodes = (
"230 -309 LINE SMOOTH",
"186 -309 OFFCURVE",
"153 -285 OFFCURVE",
"153 -237 CURVE SMOOTH",
"153 -230 OFFCURVE",
"155 -224 OFFCURVE",
"155 -217 CURVE SMOOTH",
"155 -216 OFFCURVE",
"154 -216 OFFCURVE",
"153 -216 CURVE SMOOTH",
"142 -216 OFFCURVE",
"144 -233 OFFCURVE",
"144 -241 CURVE SMOOTH",
"144 -255 OFFCURVE",
"146 -271 OFFCURVE",
"152 -284 CURVE SMOOTH",
"169 -321 OFFCURVE",
"208 -339 OFFCURVE",
"246 -339 CURVE SMOOTH"
);
}
);
};
layerId = "C2A7C206-1962-4FAA-88DB-FE8C23752EC9";
paths = (
{
closed = 1;
nodes = (
"279 -343 OFFCURVE",
"299 -340 OFFCURVE",
"316 -333 CURVE SMOOTH",
"480 -270 OFFCURVE",
"516 -23 OFFCURVE",
"562 117 CURVE SMOOTH",
"585 198 OFFCURVE",
"661 482 OFFCURVE",
"695 544 CURVE",
"693 553 OFFCURVE",
"685 557 OFFCURVE",
"677 557 CURVE SMOOTH",
"672 557 OFFCURVE",
"667 554 OFFCURVE",
"664 550 CURVE",
"652 527 OFFCURVE",
"636 505 OFFCURVE",
"627 475 CURVE",
"625 471 OFFCURVE",
"632 463 OFFCURVE",
"632 458 CURVE SMOOTH",
"632 456 LINE",
"596 349 OFFCURVE",
"552 178 OFFCURVE",
"543 138 CURVE",
"537 145 OFFCURVE",
"485 253 OFFCURVE",
"368 378 CURVE",
"385 423 OFFCURVE",
"395 460 OFFCURVE",
"400 482 CURVE SMOOTH",
"403 496 OFFCURVE",
"397 504 OFFCURVE",
"390 504 CURVE SMOOTH",
"385 504 OFFCURVE",
"378 499 OFFCURVE",
"375 488 CURVE SMOOTH",
"347 401 OFFCURVE",
"357 420 OFFCURVE",
"349 394 CURVE",
"304 436 OFFCURVE",
"223 514 OFFCURVE",
"157 514 CURVE SMOOTH",
"103 514 OFFCURVE",
"58 479 OFFCURVE",
"58 437 CURVE SMOOTH",
"58 423 OFFCURVE",
"63 408 OFFCURVE",
"75 394 CURVE",
"76 455 OFFCURVE",
"103 478 OFFCURVE",
"138 478 CURVE SMOOTH",
"144 478 OFFCURVE",
"151 477 OFFCURVE",
"157 476 CURVE SMOOTH",
"219 463 OFFCURVE",
"276 401 OFFCURVE",
"317 357 CURVE",
"323 349 OFFCURVE",
"326 339 OFFCURVE",
"326 327 CURVE SMOOTH",
"326 322 OFFCURVE",
"326 317 OFFCURVE",
"324 312 CURVE SMOOTH",
"314 276 OFFCURVE",
"280 190 OFFCURVE",
"264 155 CURVE SMOOTH",
"243 113 OFFCURVE",
"217 67 OFFCURVE",
"183 39 CURVE SMOOTH",
"162 22 OFFCURVE",
"138 13 OFFCURVE",
"116 13 CURVE SMOOTH",
"89 13 OFFCURVE",
"63 25 OFFCURVE",
"42 49 CURVE SMOOTH",
"21 73 OFFCURVE",
"16 97 OFFCURVE",
"9 129 CURVE",
"3 131 OFFCURVE",
"2 129 OFFCURVE",
"1 123 CURVE",
"3 93 OFFCURVE",
"11 49 OFFCURVE",
"31 16 CURVE SMOOTH",
"52 -18 OFFCURVE",
"84 -37 OFFCURVE",
"116 -37 CURVE SMOOTH",
"140 -37 OFFCURVE",
"164 -27 OFFCURVE",
"184 -7 CURVE SMOOTH",
"255 65 OFFCURVE",
"329 264 OFFCURVE",
"348 315 CURVE",
"348 315 OFFCURVE",
"352 322 OFFCURVE",
"357 318 CURVE SMOOTH",
"424 264 OFFCURVE",
"476 172 OFFCURVE",
"528 94 CURVE",
"505 -13 OFFCURVE",
"457 -172 OFFCURVE",
"393 -248 CURVE SMOOTH",
"360 -287 OFFCURVE",
"299 -312 OFFCURVE",
"247 -312 CURVE SMOOTH",
"196 -312 OFFCURVE",
"153 -288 OFFCURVE",
"153 -230 CURVE SMOOTH",
"153 -216 OFFCURVE",
"142 -224 OFFCURVE",
"142 -246 CURVE SMOOTH",
"142 -314 OFFCURVE",
"201 -343 OFFCURVE",
"258 -343 CURVE SMOOTH"
);
}
);
width = 675;
}
);
unicode = 014A;
},
{
color = 11;
glyphname = Ntilde;
lastChange = "2021-08-23 17:44:31 +0000";
layers = (
{
layerId = "C2A7C206-1962-4FAA-88DB-FE8C23752EC9";
paths = (
{
closed = 1;
nodes = (
"574 -43 OFFCURVE",
"585 -11 OFFCURVE",
"585 24 CURVE SMOOTH",
"585 60 OFFCURVE",
"573 95 OFFCURVE",
"562 117 CURVE",
"568 198 OFFCURVE",
"661 482 OFFCURVE",
"695 544 CURVE",
"693 553 OFFCURVE",
"685 557 OFFCURVE",
"677 557 CURVE SMOOTH",
"672 557 OFFCURVE",
"667 554 OFFCURVE",
"664 550 CURVE",
"652 527 OFFCURVE",
"636 505 OFFCURVE",
"627 475 CURVE",
"625 471 OFFCURVE",
"632 463 OFFCURVE",
"632 458 CURVE SMOOTH",
"632 456 LINE",
"596 349 OFFCURVE",
"552 178 OFFCURVE",
"543 138 CURVE",
"537 145 OFFCURVE",
"485 253 OFFCURVE",
"368 378 CURVE",
"385 423 OFFCURVE",
"395 460 OFFCURVE",
"400 482 CURVE SMOOTH",
"403 496 OFFCURVE",
"397 504 OFFCURVE",
"390 504 CURVE SMOOTH",
"385 504 OFFCURVE",
"378 499 OFFCURVE",
"375 488 CURVE SMOOTH",
"347 401 OFFCURVE",
"357 420 OFFCURVE",
"349 394 CURVE",
"304 436 OFFCURVE",
"223 514 OFFCURVE",
"157 514 CURVE SMOOTH",
"98 514 OFFCURVE",
"54 474 OFFCURVE",
"54 411 CURVE SMOOTH",
"54 394 OFFCURVE",
"57 375 OFFCURVE",
"64 355 CURVE SMOOTH",
"71 336 OFFCURVE",
"81 319 OFFCURVE",
"87 300 CURVE SMOOTH",
"90 290 OFFCURVE",
"91 281 OFFCURVE",
"91 272 CURVE SMOOTH",
"91 224 OFFCURVE",
"59 189 OFFCURVE",
"41 200 CURVE SMOOTH",
"35 204 OFFCURVE",
"31 198 OFFCURVE",
"37 194 CURVE SMOOTH",
"43 190 OFFCURVE",
"51 188 OFFCURVE",
"59 188 CURVE SMOOTH",
"87 188 OFFCURVE",
"121 213 OFFCURVE",
"121 255 CURVE SMOOTH",
"121 262 OFFCURVE",
"120 269 OFFCURVE",
"118 277 CURVE SMOOTH",
"108 311 OFFCURVE",
"75 354 OFFCURVE",
"75 392 CURVE SMOOTH",
"75 455 OFFCURVE",
"103 478 OFFCURVE",
"138 478 CURVE SMOOTH",
"144 478 OFFCURVE",
"151 477 OFFCURVE",
"157 476 CURVE SMOOTH",
"219 463 OFFCURVE",
"276 401 OFFCURVE",
"317 357 CURVE",
"323 349 OFFCURVE",
"326 339 OFFCURVE",
"326 327 CURVE SMOOTH",
"326 322 OFFCURVE",
"326 317 OFFCURVE",
"324 312 CURVE SMOOTH",
"314 276 OFFCURVE",
"280 190 OFFCURVE",
"264 155 CURVE SMOOTH",
"243 113 OFFCURVE",
"217 67 OFFCURVE",
"183 39 CURVE SMOOTH",
"162 22 OFFCURVE",
"138 13 OFFCURVE",
"116 13 CURVE SMOOTH",
"89 13 OFFCURVE",
"63 25 OFFCURVE",
"42 49 CURVE SMOOTH",
"21 73 OFFCURVE",
"16 97 OFFCURVE",
"9 129 CURVE",
"3 131 OFFCURVE",
"2 129 OFFCURVE",
"1 123 CURVE",
"3 93 OFFCURVE",
"11 49 OFFCURVE",
"31 16 CURVE SMOOTH",
"52 -18 OFFCURVE",
"84 -37 OFFCURVE",
"116 -37 CURVE SMOOTH",
"140 -37 OFFCURVE",
"164 -27 OFFCURVE",
"184 -7 CURVE SMOOTH",
"255 65 OFFCURVE",
"329 264 OFFCURVE",
"348 315 CURVE",
"348 315 OFFCURVE",
"352 322 OFFCURVE",
"357 318 CURVE SMOOTH",
"427 262 OFFCURVE",
"480 165 OFFCURVE",
"534 85 CURVE",
"529 64 OFFCURVE",
"527 45 OFFCURVE",
"527 28 CURVE SMOOTH",
"527 16 OFFCURVE",
"528 4 OFFCURVE",
"529 -6 CURVE SMOOTH",
"532 -26 OFFCURVE",
"543 -43 OFFCURVE",
"555 -43 CURVE SMOOTH"
);
},
{
closed = 1;
nodes = (
"577 558 OFFCURVE",
"586 561 OFFCURVE",
"594 565 CURVE SMOOTH",
"622 581 OFFCURVE",
"639 595 OFFCURVE",
"639 604 CURVE SMOOTH",
"639 607 OFFCURVE",
"636 608 OFFCURVE",
"632 608 CURVE",
"619 596 OFFCURVE",
"606 590 OFFCURVE",
"593 590 CURVE SMOOTH",
"585 590 OFFCURVE",
"572 593 OFFCURVE",
"557 599 CURVE SMOOTH",
"541 605 OFFCURVE",
"528 608 OFFCURVE",
"518 608 CURVE SMOOTH",
"507 608 OFFCURVE",
"496 605 OFFCURVE",
"485 599 CURVE SMOOTH",
"458 586 OFFCURVE",
"441 574 OFFCURVE",
"437 562 CURVE",
"438 559 LINE",
"450 559 OFFCURVE",
"469 581 OFFCURVE",
"491 581 CURVE SMOOTH",
"500 581 OFFCURVE",
"513 577 OFFCURVE",
"529 570 CURVE SMOOTH",
"544 562 OFFCURVE",
"558 558 OFFCURVE",
"568 558 CURVE SMOOTH"
);
}
);
width = 665;
}
);
note = Ntilde;
unicode = 00D1;
},
{
glyphname = O;
lastChange = "2021-08-23 17:44:31 +0000";
layers = (
{
layerId = "C2A7C206-1962-4FAA-88DB-FE8C23752EC9";
paths = (
{
closed = 1;
nodes = (
"347 -18 OFFCURVE",
"446 100 OFFCURVE",
"502 205 CURVE SMOOTH",
"524 245 OFFCURVE",
"536 291 OFFCURVE",
"536 334 CURVE SMOOTH",
"536 414 OFFCURVE",
"495 485 OFFCURVE",
"399 499 CURVE",
"420 512 OFFCURVE",
"446 526 OFFCURVE",
"463 526 CURVE SMOOTH",
"473 526 OFFCURVE",
"480 521 OFFCURVE",
"480 507 CURVE SMOOTH",
"480 499 OFFCURVE",
"490 501 OFFCURVE",
"491 509 CURVE SMOOTH",
"493 533 OFFCURVE",
"479 542 OFFCURVE",
"457 542 CURVE SMOOTH",
"418 542 OFFCURVE",
"356 513 OFFCURVE",
"332 497 CURVE",
"222 488 OFFCURVE",
"50 432 OFFCURVE",
"50 309 CURVE SMOOTH",
"50 303 OFFCURVE",
"50 296 OFFCURVE",
"51 289 CURVE SMOOTH",
"54 261 OFFCURVE",
"77 235 OFFCURVE",
"106 213 CURVE",
"92 175 OFFCURVE",
"85 138 OFFCURVE",
"85 106 CURVE SMOOTH",
"85 34 OFFCURVE",
"123 -18 OFFCURVE",
"216 -18 CURVE SMOOTH"
);
},
{
closed = 1;
nodes = (
"107 240 LINE SMOOTH",
"81 268 OFFCURVE",
"70 293 OFFCURVE",
"70 316 CURVE SMOOTH",
"70 391 OFFCURVE",
"191 438 OFFCURVE",
"276 458 CURVE",
"214 407 OFFCURVE",
"159 335 OFFCURVE",
"122 251 CURVE SMOOTH",
"114 232 LINE"
);
},
{
closed = 1;
nodes = (
"160 -3 OFFCURVE",
"131 36 OFFCURVE",
"131 99 CURVE SMOOTH",
"131 124 OFFCURVE",
"136 154 OFFCURVE",
"146 186 CURVE",
"179 166 OFFCURVE",
"212 151 OFFCURVE",
"231 143 CURVE SMOOTH",
"234 142 OFFCURVE",
"237 146 OFFCURVE",
"237 150 CURVE SMOOTH",
"237 151 OFFCURVE",
"236 153 OFFCURVE",
"235 154 CURVE",
"214 166 OFFCURVE",
"182 180 OFFCURVE",
"152 201 CURVE",
"159 222 OFFCURVE",
"169 243 OFFCURVE",
"181 266 CURVE SMOOTH",
"240 376 OFFCURVE",
"314 442 OFFCURVE",
"359 470 CURVE",
"375 475 OFFCURVE",
"391 477 OFFCURVE",
"405 477 CURVE SMOOTH",
"471 477 OFFCURVE",
"510 425 OFFCURVE",
"510 350 CURVE SMOOTH",
"510 313 OFFCURVE",
"501 271 OFFCURVE",
"480 226 CURVE SMOOTH",
"438 136 OFFCURVE",
"324 -3 OFFCURVE",
"213 -3 CURVE SMOOTH"
);
}
);
width = 469;
}
);
note = O;
unicode = 004F;
},
{
color = 11;
glyphname = Oacute;
lastChange = "2021-08-23 17:44:31 +0000";
layers = (
{
layerId = "C2A7C206-1962-4FAA-88DB-FE8C23752EC9";
paths = (
{
closed = 1;
nodes = (
"347 -18 OFFCURVE",
"446 100 OFFCURVE",
"502 205 CURVE SMOOTH",
"524 245 OFFCURVE",
"536 291 OFFCURVE",
"536 334 CURVE SMOOTH",
"536 414 OFFCURVE",
"495 485 OFFCURVE",
"399 499 CURVE",
"420 512 OFFCURVE",
"446 526 OFFCURVE",
"463 526 CURVE SMOOTH",
"473 526 OFFCURVE",
"480 521 OFFCURVE",
"480 507 CURVE SMOOTH",
"480 499 OFFCURVE",
"490 501 OFFCURVE",
"491 509 CURVE SMOOTH",
"493 533 OFFCURVE",
"479 542 OFFCURVE",
"457 542 CURVE SMOOTH",
"418 542 OFFCURVE",
"356 513 OFFCURVE",
"332 497 CURVE",
"222 488 OFFCURVE",
"50 432 OFFCURVE",
"50 309 CURVE SMOOTH",
"50 303 OFFCURVE",
"50 296 OFFCURVE",
"51 289 CURVE SMOOTH",
"54 261 OFFCURVE",
"77 235 OFFCURVE",
"106 213 CURVE",
"92 175 OFFCURVE",
"85 138 OFFCURVE",
"85 106 CURVE SMOOTH",
"85 34 OFFCURVE",
"123 -18 OFFCURVE",
"216 -18 CURVE SMOOTH"
);
},
{
closed = 1;
nodes = (
"107 240 LINE SMOOTH",
"81 268 OFFCURVE",
"70 293 OFFCURVE",
"70 316 CURVE SMOOTH",
"70 391 OFFCURVE",
"191 438 OFFCURVE",
"276 458 CURVE",
"214 407 OFFCURVE",
"159 335 OFFCURVE",
"122 251 CURVE SMOOTH",
"114 232 LINE"
);
},
{
closed = 1;
nodes = (
"160 -3 OFFCURVE",
"131 36 OFFCURVE",
"131 99 CURVE SMOOTH",
"131 124 OFFCURVE",
"136 154 OFFCURVE",
"146 186 CURVE",
"179 166 OFFCURVE",
"212 151 OFFCURVE",
"231 143 CURVE SMOOTH",
"234 142 OFFCURVE",
"237 146 OFFCURVE",
"237 150 CURVE SMOOTH",
"237 151 OFFCURVE",
"236 153 OFFCURVE",
"235 154 CURVE",
"214 166 OFFCURVE",
"182 180 OFFCURVE",
"152 201 CURVE",
"159 222 OFFCURVE",
"169 243 OFFCURVE",
"181 266 CURVE SMOOTH",
"240 376 OFFCURVE",
"314 442 OFFCURVE",
"359 470 CURVE",
"375 475 OFFCURVE",
"391 477 OFFCURVE",
"405 477 CURVE SMOOTH",
"471 477 OFFCURVE",
"510 425 OFFCURVE",
"510 350 CURVE SMOOTH",
"510 313 OFFCURVE",
"501 271 OFFCURVE",
"480 226 CURVE SMOOTH",
"438 136 OFFCURVE",
"324 -3 OFFCURVE",
"213 -3 CURVE SMOOTH"
);
},
{
closed = 1;
nodes = (
"399 557 OFFCURVE",
"404 560 OFFCURVE",
"487 613 CURVE SMOOTH",
"507 626 OFFCURVE",
"523 635 OFFCURVE",
"533 641 CURVE SMOOTH",
"538 645 OFFCURVE",
"542 649 OFFCURVE",
"545 654 CURVE SMOOTH",
"547 658 OFFCURVE",
"548 661 OFFCURVE",
"548 664 CURVE SMOOTH",
"548 671 OFFCURVE",
"544 677 OFFCURVE",
"537 677 CURVE SMOOTH",
"536 677 LINE SMOOTH",
"532 677 OFFCURVE",
"527 674 OFFCURVE",
"522 671 CURVE SMOOTH",
"503 659 OFFCURVE",
"471 636 OFFCURVE",
"428 603 CURVE SMOOTH",
"377 565 OFFCURVE",
"387 568 OFFCURVE",
"385 561 CURVE SMOOTH",
"384 558 OFFCURVE",
"387 557 OFFCURVE",
"389 557 CURVE SMOOTH"
);
}
);
width = 469;
}
);
note = Oacute;
unicode = 00D3;
},
{
color = 11;
glyphname = Ocircumflex;
lastChange = "2021-08-23 17:44:31 +0000";
layers = (
{
layerId = "C2A7C206-1962-4FAA-88DB-FE8C23752EC9";
paths = (
{
closed = 1;
nodes = (
"347 -18 OFFCURVE",
"446 100 OFFCURVE",
"502 205 CURVE SMOOTH",
"524 245 OFFCURVE",
"536 291 OFFCURVE",
"536 334 CURVE SMOOTH",
"536 414 OFFCURVE",
"495 485 OFFCURVE",
"399 499 CURVE",
"420 512 OFFCURVE",
"446 526 OFFCURVE",
"463 526 CURVE SMOOTH",
"473 526 OFFCURVE",
"480 521 OFFCURVE",
"480 507 CURVE SMOOTH",
"480 499 OFFCURVE",
"490 501 OFFCURVE",
"491 509 CURVE SMOOTH",
"493 533 OFFCURVE",
"479 542 OFFCURVE",
"457 542 CURVE SMOOTH",
"418 542 OFFCURVE",
"356 513 OFFCURVE",
"332 497 CURVE",
"222 488 OFFCURVE",
"50 432 OFFCURVE",
"50 309 CURVE SMOOTH",
"50 303 OFFCURVE",
"50 296 OFFCURVE",
"51 289 CURVE SMOOTH",
"54 261 OFFCURVE",
"77 235 OFFCURVE",
"106 213 CURVE",
"92 175 OFFCURVE",
"85 138 OFFCURVE",
"85 106 CURVE SMOOTH",
"85 34 OFFCURVE",
"123 -18 OFFCURVE",
"216 -18 CURVE SMOOTH"
);
},
{
closed = 1;
nodes = (
"107 240 LINE SMOOTH",
"81 268 OFFCURVE",
"70 293 OFFCURVE",
"70 316 CURVE SMOOTH",
"70 391 OFFCURVE",
"191 438 OFFCURVE",
"276 458 CURVE",
"214 407 OFFCURVE",
"159 335 OFFCURVE",
"122 251 CURVE SMOOTH",
"114 232 LINE"
);
},
{
closed = 1;
nodes = (
"160 -3 OFFCURVE",
"131 36 OFFCURVE",
"131 99 CURVE SMOOTH",
"131 124 OFFCURVE",
"136 154 OFFCURVE",
"146 186 CURVE",
"179 166 OFFCURVE",
"212 151 OFFCURVE",
"231 143 CURVE SMOOTH",
"234 142 OFFCURVE",
"237 146 OFFCURVE",
"237 150 CURVE SMOOTH",
"237 151 OFFCURVE",
"236 153 OFFCURVE",
"235 154 CURVE",
"214 166 OFFCURVE",
"182 180 OFFCURVE",
"152 201 CURVE",
"159 222 OFFCURVE",
"169 243 OFFCURVE",
"181 266 CURVE SMOOTH",
"240 376 OFFCURVE",
"314 442 OFFCURVE",
"359 470 CURVE",
"375 475 OFFCURVE",
"391 477 OFFCURVE",
"405 477 CURVE SMOOTH",
"471 477 OFFCURVE",
"510 425 OFFCURVE",
"510 350 CURVE SMOOTH",
"510 313 OFFCURVE",
"501 271 OFFCURVE",
"480 226 CURVE SMOOTH",
"438 136 OFFCURVE",
"324 -3 OFFCURVE",
"213 -3 CURVE SMOOTH"
);
},
{
closed = 1;
nodes = (
"543 564 OFFCURVE",
"546 566 OFFCURVE",
"546 567 CURVE",
"547 569 OFFCURVE",
"545 595 OFFCURVE",
"542 644 CURVE SMOOTH",
"542 645 OFFCURVE",
"539 647 OFFCURVE",
"533 647 CURVE SMOOTH",
"528 647 OFFCURVE",
"521 646 OFFCURVE",
"512 645 CURVE",
"429 595 OFFCURVE",
"386 570 OFFCURVE",
"384 568 CURVE",
"384 565 OFFCURVE",
"387 564 OFFCURVE",
"392 564 CURVE SMOOTH",
"396 564 OFFCURVE",
"436 582 OFFCURVE",
"510 616 CURVE",
"527 568 LINE",
"529 565 OFFCURVE",
"533 563 OFFCURVE",
"538 563 CURVE SMOOTH"
);
}
);
width = 469;
}
);
note = Ocircumflex;
unicode = 00D4;
},
{
color = 11;
glyphname = Odieresis;
lastChange = "2021-08-23 17:44:31 +0000";
layers = (
{
layerId = "C2A7C206-1962-4FAA-88DB-FE8C23752EC9";
paths = (
{
closed = 1;
nodes = (
"347 -18 OFFCURVE",
"446 100 OFFCURVE",
"502 205 CURVE SMOOTH",
"524 245 OFFCURVE",
"536 291 OFFCURVE",
"536 334 CURVE SMOOTH",
"536 414 OFFCURVE",
"495 485 OFFCURVE",
"399 499 CURVE",
"420 512 OFFCURVE",
"446 526 OFFCURVE",
"463 526 CURVE SMOOTH",
"473 526 OFFCURVE",
"480 521 OFFCURVE",
"480 507 CURVE SMOOTH",
"480 499 OFFCURVE",
"490 501 OFFCURVE",
"491 509 CURVE SMOOTH",
"493 533 OFFCURVE",
"479 542 OFFCURVE",
"457 542 CURVE SMOOTH",
"418 542 OFFCURVE",
"356 513 OFFCURVE",
"332 497 CURVE",
"222 488 OFFCURVE",
"50 432 OFFCURVE",
"50 309 CURVE SMOOTH",
"50 303 OFFCURVE",
"50 296 OFFCURVE",
"51 289 CURVE SMOOTH",
"54 261 OFFCURVE",
"77 235 OFFCURVE",
"106 213 CURVE",
"92 175 OFFCURVE",
"85 138 OFFCURVE",
"85 106 CURVE SMOOTH",
"85 34 OFFCURVE",
"123 -18 OFFCURVE",
"216 -18 CURVE SMOOTH"
);
},
{
closed = 1;
nodes = (
"107 240 LINE SMOOTH",
"81 268 OFFCURVE",
"70 293 OFFCURVE",
"70 316 CURVE SMOOTH",
"70 391 OFFCURVE",
"191 438 OFFCURVE",
"276 458 CURVE",
"214 407 OFFCURVE",
"159 335 OFFCURVE",
"122 251 CURVE SMOOTH",
"114 232 LINE"
);
},
{
closed = 1;
nodes = (
"160 -3 OFFCURVE",
"131 36 OFFCURVE",
"131 99 CURVE SMOOTH",
"131 124 OFFCURVE",
"136 154 OFFCURVE",
"146 186 CURVE",
"179 166 OFFCURVE",
"212 151 OFFCURVE",
"231 143 CURVE SMOOTH",
"234 142 OFFCURVE",
"237 146 OFFCURVE",
"237 150 CURVE SMOOTH",
"237 151 OFFCURVE",
"236 153 OFFCURVE",
"235 154 CURVE",
"214 166 OFFCURVE",
"182 180 OFFCURVE",
"152 201 CURVE",
"159 222 OFFCURVE",
"169 243 OFFCURVE",
"181 266 CURVE SMOOTH",
"240 376 OFFCURVE",
"314 442 OFFCURVE",
"359 470 CURVE",
"375 475 OFFCURVE",
"391 477 OFFCURVE",
"405 477 CURVE SMOOTH",
"471 477 OFFCURVE",
"510 425 OFFCURVE",
"510 350 CURVE SMOOTH",
"510 313 OFFCURVE",
"501 271 OFFCURVE",
"480 226 CURVE SMOOTH",
"438 136 OFFCURVE",
"324 -3 OFFCURVE",
"213 -3 CURVE SMOOTH"
);
},
{
closed = 1;
nodes = (
"423 571 OFFCURVE",
"434 577 OFFCURVE",
"438 589 CURVE SMOOTH",
"439 593 OFFCURVE",
"442 600 OFFCURVE",
"448 609 CURVE SMOOTH",
"454 619 OFFCURVE",
"457 626 OFFCURVE",
"459 631 CURVE",
"459 633 OFFCURVE",
"458 635 OFFCURVE",
"454 635 CURVE SMOOTH",
"444 635 OFFCURVE",
"433 631 OFFCURVE",
"422 622 CURVE SMOOTH",
"411 613 OFFCURVE",
"404 604 OFFCURVE",
"401 594 CURVE SMOOTH",
"400 589 OFFCURVE",
"399 585 OFFCURVE",
"399 582 CURVE SMOOTH",
"399 575 OFFCURVE",
"402 571 OFFCURVE",
"408 571 CURVE SMOOTH"
);
},
{
closed = 1;
nodes = (
"521 571 OFFCURVE",
"532 577 OFFCURVE",
"535 589 CURVE SMOOTH",
"536 593 OFFCURVE",
"540 600 OFFCURVE",
"545 609 CURVE SMOOTH",
"551 619 OFFCURVE",
"555 626 OFFCURVE",
"556 631 CURVE",
"557 633 OFFCURVE",
"556 635 OFFCURVE",
"551 635 CURVE SMOOTH",
"541 635 OFFCURVE",
"531 631 OFFCURVE",
"520 622 CURVE SMOOTH",
"509 613 OFFCURVE",
"501 604 OFFCURVE",
"499 594 CURVE SMOOTH",
"498 589 OFFCURVE",
"497 585 OFFCURVE",
"497 581 CURVE SMOOTH",
"497 575 OFFCURVE",
"499 571 OFFCURVE",
"505 571 CURVE SMOOTH"
);
}
);
width = 469;
}
);
note = Odieresis;
unicode = 00D6;
},
{
color = 11;
glyphname = Ograve;
lastChange = "2021-08-23 17:44:31 +0000";
layers = (
{
layerId = "C2A7C206-1962-4FAA-88DB-FE8C23752EC9";
paths = (
{
closed = 1;
nodes = (
"347 -18 OFFCURVE",
"446 100 OFFCURVE",
"502 205 CURVE SMOOTH",
"524 245 OFFCURVE",
"536 291 OFFCURVE",
"536 334 CURVE SMOOTH",
"536 414 OFFCURVE",
"495 485 OFFCURVE",
"399 499 CURVE",
"420 512 OFFCURVE",
"446 526 OFFCURVE",
"463 526 CURVE SMOOTH",
"473 526 OFFCURVE",
"480 521 OFFCURVE",
"480 507 CURVE SMOOTH",
"480 499 OFFCURVE",
"490 501 OFFCURVE",
"491 509 CURVE SMOOTH",
"493 533 OFFCURVE",
"479 542 OFFCURVE",
"457 542 CURVE SMOOTH",
"418 542 OFFCURVE",
"356 513 OFFCURVE",
"332 497 CURVE",
"222 488 OFFCURVE",
"50 432 OFFCURVE",
"50 309 CURVE SMOOTH",
"50 303 OFFCURVE",
"50 296 OFFCURVE",
"51 289 CURVE SMOOTH",
"54 261 OFFCURVE",
"77 235 OFFCURVE",
"106 213 CURVE",
"92 175 OFFCURVE",
"85 138 OFFCURVE",
"85 106 CURVE SMOOTH",
"85 34 OFFCURVE",
"123 -18 OFFCURVE",
"216 -18 CURVE SMOOTH"
);
},
{
closed = 1;
nodes = (
"107 240 LINE SMOOTH",
"81 268 OFFCURVE",
"70 293 OFFCURVE",
"70 316 CURVE SMOOTH",
"70 391 OFFCURVE",
"191 438 OFFCURVE",
"276 458 CURVE",
"214 407 OFFCURVE",
"159 335 OFFCURVE",
"122 251 CURVE SMOOTH",
"114 232 LINE"
);
},
{
closed = 1;
nodes = (
"160 -3 OFFCURVE",
"131 36 OFFCURVE",
"131 99 CURVE SMOOTH",
"131 124 OFFCURVE",
"136 154 OFFCURVE",
"146 186 CURVE",
"179 166 OFFCURVE",
"212 151 OFFCURVE",
"231 143 CURVE SMOOTH",
"234 142 OFFCURVE",
"237 146 OFFCURVE",
"237 150 CURVE SMOOTH",
"237 151 OFFCURVE",
"236 153 OFFCURVE",
"235 154 CURVE",
"214 166 OFFCURVE",
"182 180 OFFCURVE",
"152 201 CURVE",
"159 222 OFFCURVE",
"169 243 OFFCURVE",
"181 266 CURVE SMOOTH",
"240 376 OFFCURVE",
"314 442 OFFCURVE",
"359 470 CURVE",
"375 475 OFFCURVE",
"391 477 OFFCURVE",
"405 477 CURVE SMOOTH",
"471 477 OFFCURVE",
"510 425 OFFCURVE",
"510 350 CURVE SMOOTH",
"510 313 OFFCURVE",
"501 271 OFFCURVE",
"480 226 CURVE SMOOTH",
"438 136 OFFCURVE",
"324 -3 OFFCURVE",
"213 -3 CURVE SMOOTH"
);
},
{
closed = 1;
nodes = (
"510 567 OFFCURVE",
"511 569 OFFCURVE",
"512 570 CURVE",
"514 576 OFFCURVE",
"499 592 OFFCURVE",
"473 615 CURVE SMOOTH",
"446 638 OFFCURVE",
"430 651 OFFCURVE",
"427 651 CURVE SMOOTH",
"415 651 OFFCURVE",
"407 644 OFFCURVE",
"403 631 CURVE SMOOTH",
"402 627 OFFCURVE",
"403 623 OFFCURVE",
"407 620 CURVE SMOOTH",
"415 613 OFFCURVE",
"432 604 OFFCURVE",
"455 590 CURVE SMOOTH",
"482 574 OFFCURVE",
"499 566 OFFCURVE",
"506 566 CURVE"
);
}
);
width = 469;
}
);
note = Ograve;
unicode = 00D2;
},
{
glyphname = Oslash;
lastChange = "2021-08-23 17:44:31 +0000";
layers = (
{
layerId = "C2A7C206-1962-4FAA-88DB-FE8C23752EC9";
paths = (
{
closed = 1;
nodes = (
"14 -106 OFFCURVE",
"30 -99 OFFCURVE",
"33 -91 CURVE",
"33 -90 OFFCURVE",
"33 -88 OFFCURVE",
"32 -87 CURVE SMOOTH",
"29 -84 OFFCURVE",
"27 -80 OFFCURVE",
"27 -75 CURVE SMOOTH",
"27 -72 OFFCURVE",
"27 -70 OFFCURVE",
"28 -67 CURVE SMOOTH",
"31 -60 OFFCURVE",
"34 -51 OFFCURVE",
"41 -41 CURVE SMOOTH",
"54 -20 OFFCURVE",
"74 4 OFFCURVE",
"99 32 CURVE SMOOTH",
"102 35 LINE",
"121 2 OFFCURVE",
"158 -18 OFFCURVE",
"216 -18 CURVE SMOOTH",
"347 -18 OFFCURVE",
"446 100 OFFCURVE",
"502 205 CURVE SMOOTH",
"523 245 OFFCURVE",
"535 290 OFFCURVE",
"535 333 CURVE SMOOTH",
"535 370 OFFCURVE",
"527 405 OFFCURVE",
"508 433 CURVE",
"549 470 LINE SMOOTH",
"590 507 OFFCURVE",
"621 535 OFFCURVE",
"642 553 CURVE SMOOTH",
"651 562 OFFCURVE",
"656 568 OFFCURVE",
"656 577 CURVE SMOOTH",
"656 585 OFFCURVE",
"650 589 OFFCURVE",
"638 589 CURVE SMOOTH",
"626 589 OFFCURVE",
"575 546 OFFCURVE",
"485 461 CURVE",
"464 480 OFFCURVE",
"436 494 OFFCURVE",
"399 499 CURVE",
"420 512 OFFCURVE",
"446 526 OFFCURVE",
"463 526 CURVE SMOOTH",
"473 526 OFFCURVE",
"480 521 OFFCURVE",
"480 507 CURVE SMOOTH",
"480 499 OFFCURVE",
"490 501 OFFCURVE",
"491 509 CURVE SMOOTH",
"494 533 OFFCURVE",
"478 542 OFFCURVE",
"456 542 CURVE SMOOTH",
"417 542 OFFCURVE",
"356 514 OFFCURVE",
"333 497 CURVE",
"223 489 OFFCURVE",
"50 432 OFFCURVE",
"50 309 CURVE SMOOTH",
"50 303 OFFCURVE",
"50 296 OFFCURVE",
"51 289 CURVE SMOOTH",
"54 262 OFFCURVE",
"78 236 OFFCURVE",
"107 213 CURVE",
"93 174 OFFCURVE",
"85 137 OFFCURVE",
"85 105 CURVE SMOOTH",
"85 91 OFFCURVE",
"87 77 OFFCURVE",
"90 65 CURVE",
"67 38 OFFCURVE",
"50 17 OFFCURVE",
"40 2 CURVE SMOOTH",
"19 -29 OFFCURVE",
"5 -57 OFFCURVE",
"-2 -80 CURVE SMOOTH",
"-4 -85 OFFCURVE",
"-5 -90 OFFCURVE",
"-5 -94 CURVE SMOOTH",
"-5 -102 OFFCURVE",
"-1 -106 OFFCURVE",
"7 -106 CURVE SMOOTH"
);
},
{
closed = 1;
nodes = (
"132 132 OFFCURVE",
"137 158 OFFCURVE",
"146 186 CURVE",
"184 165 LINE",
"163 143 LINE",
"131 109 LINE"
);
},
{
closed = 1;
nodes = (
"107 240 LINE SMOOTH",
"81 268 OFFCURVE",
"70 293 OFFCURVE",
"70 316 CURVE SMOOTH",
"70 391 OFFCURVE",
"192 438 OFFCURVE",
"277 458 CURVE",
"215 407 OFFCURVE",
"160 336 OFFCURVE",
"122 251 CURVE SMOOTH",
"114 232 LINE"
);
},
{
closed = 1;
nodes = (
"169 -3 OFFCURVE",
"141 24 OFFCURVE",
"133 69 CURVE",
"164 100 LINE",
"213 151 LINE",
"231 143 LINE SMOOTH",
"234 142 OFFCURVE",
"237 146 OFFCURVE",
"237 150 CURVE SMOOTH",
"237 151 OFFCURVE",
"236 153 OFFCURVE",
"235 154 CURVE",
"231 156 OFFCURVE",
"227 158 OFFCURVE",
"223 161 CURVE",
"301 240 OFFCURVE",
"392 327 OFFCURVE",
"495 421 CURVE",
"505 401 OFFCURVE",
"510 377 OFFCURVE",
"510 350 CURVE SMOOTH",
"510 313 OFFCURVE",
"501 271 OFFCURVE",
"480 226 CURVE SMOOTH",
"438 136 OFFCURVE",
"324 -3 OFFCURVE",
"213 -3 CURVE SMOOTH"
);
},
{
closed = 1;
nodes = (
"181 184 OFFCURVE",
"166 192 OFFCURVE",
"152 202 CURVE",
"159 222 OFFCURVE",
"169 244 OFFCURVE",
"181 266 CURVE SMOOTH",
"240 376 OFFCURVE",
"314 442 OFFCURVE",
"359 470 CURVE",
"375 474 OFFCURVE",
"390 477 OFFCURVE",
"404 477 CURVE SMOOTH",
"433 477 OFFCURVE",
"456 467 OFFCURVE",
"474 450 CURVE",
"313 295 LINE",
"195 176 LINE"
);
}
);
width = 469;
}
);
note = Oslash;
unicode = 00D8;
},
{
color = 11;
glyphname = Otilde;
lastChange = "2021-08-23 17:44:31 +0000";
layers = (
{
layerId = "C2A7C206-1962-4FAA-88DB-FE8C23752EC9";
paths = (
{
closed = 1;
nodes = (
"347 -18 OFFCURVE",
"446 100 OFFCURVE",
"502 205 CURVE SMOOTH",
"524 245 OFFCURVE",
"536 291 OFFCURVE",
"536 334 CURVE SMOOTH",
"536 414 OFFCURVE",
"495 485 OFFCURVE",
"399 499 CURVE",
"420 512 OFFCURVE",
"446 526 OFFCURVE",
"463 526 CURVE SMOOTH",
"473 526 OFFCURVE",
"480 521 OFFCURVE",
"480 507 CURVE SMOOTH",
"480 499 OFFCURVE",
"490 501 OFFCURVE",
"491 509 CURVE SMOOTH",
"493 533 OFFCURVE",
"479 542 OFFCURVE",
"457 542 CURVE SMOOTH",
"418 542 OFFCURVE",
"356 513 OFFCURVE",
"332 497 CURVE",
"222 488 OFFCURVE",
"50 432 OFFCURVE",
"50 309 CURVE SMOOTH",
"50 303 OFFCURVE",
"50 296 OFFCURVE",
"51 289 CURVE SMOOTH",
"54 261 OFFCURVE",
"77 235 OFFCURVE",
"106 213 CURVE",
"92 175 OFFCURVE",
"85 138 OFFCURVE",
"85 106 CURVE SMOOTH",
"85 34 OFFCURVE",
"123 -18 OFFCURVE",
"216 -18 CURVE SMOOTH"
);
},
{
closed = 1;
nodes = (
"107 240 LINE SMOOTH",
"81 268 OFFCURVE",
"70 293 OFFCURVE",
"70 316 CURVE SMOOTH",
"70 391 OFFCURVE",
"191 438 OFFCURVE",
"276 458 CURVE",
"214 407 OFFCURVE",
"159 335 OFFCURVE",
"122 251 CURVE SMOOTH",
"114 232 LINE"
);
},
{
closed = 1;
nodes = (
"160 -3 OFFCURVE",
"131 36 OFFCURVE",
"131 99 CURVE SMOOTH",
"131 124 OFFCURVE",
"136 154 OFFCURVE",
"146 186 CURVE",
"179 166 OFFCURVE",
"212 151 OFFCURVE",
"231 143 CURVE SMOOTH",
"234 142 OFFCURVE",
"237 146 OFFCURVE",
"237 150 CURVE SMOOTH",
"237 151 OFFCURVE",
"236 153 OFFCURVE",
"235 154 CURVE",
"214 166 OFFCURVE",
"182 180 OFFCURVE",
"152 201 CURVE",
"159 222 OFFCURVE",
"169 243 OFFCURVE",
"181 266 CURVE SMOOTH",
"240 376 OFFCURVE",
"314 442 OFFCURVE",
"359 470 CURVE",
"375 475 OFFCURVE",
"391 477 OFFCURVE",
"405 477 CURVE SMOOTH",
"471 477 OFFCURVE",
"510 425 OFFCURVE",
"510 350 CURVE SMOOTH",
"510 313 OFFCURVE",
"501 271 OFFCURVE",
"480 226 CURVE SMOOTH",
"438 136 OFFCURVE",
"324 -3 OFFCURVE",
"213 -3 CURVE SMOOTH"
);
},
{
closed = 1;
nodes = (
"343 569 OFFCURVE",
"362 591 OFFCURVE",
"384 591 CURVE SMOOTH",
"393 591 OFFCURVE",
"405 588 OFFCURVE",
"421 580 CURVE SMOOTH",
"437 572 OFFCURVE",
"450 569 OFFCURVE",
"461 569 CURVE SMOOTH",
"469 569 OFFCURVE",
"478 571 OFFCURVE",
"487 576 CURVE SMOOTH",
"513 590 OFFCURVE",
"529 602 OFFCURVE",
"532 613 CURVE SMOOTH",
"533 617 OFFCURVE",
"530 619 OFFCURVE",
"525 618 CURVE",
"512 606 OFFCURVE",
"499 601 OFFCURVE",
"486 601 CURVE SMOOTH",
"477 601 OFFCURVE",
"465 603 OFFCURVE",
"449 609 CURVE SMOOTH",
"434 615 OFFCURVE",
"421 618 OFFCURVE",
"411 618 CURVE SMOOTH",
"400 618 OFFCURVE",
"389 615 OFFCURVE",
"377 609 CURVE SMOOTH",
"350 596 OFFCURVE",
"333 584 OFFCURVE",
"330 573 CURVE",
"330 569 LINE"
);
}
);
width = 469;
}
);
note = Otilde;
unicode = 00D5;
},
{
glyphname = OE;
lastChange = "2021-08-23 17:44:31 +0000";
layers = (
{
layerId = "C2A7C206-1962-4FAA-88DB-FE8C23752EC9";
paths = (
{
closed = 1;
nodes = (
"647 -25 OFFCURVE",
"736 11 OFFCURVE",
"788 70 CURVE SMOOTH",
"791 74 OFFCURVE",
"797 81 OFFCURVE",
"797 88 CURVE SMOOTH",
"797 89 OFFCURVE",
"797 90 OFFCURVE",
"795 90 CURVE SMOOTH",
"793 90 OFFCURVE",
"790 87 OFFCURVE",
"789 86 CURVE SMOOTH",
"747 36 OFFCURVE",
"685 12 OFFCURVE",
"621 12 CURVE SMOOTH",
"567 12 OFFCURVE",
"474 31 OFFCURVE",
"474 99 CURVE SMOOTH",
"474 123 OFFCURVE",
"490 180 OFFCURVE",
"500 201 CURVE SMOOTH",
"507 218 OFFCURVE",
"516 233 OFFCURVE",
"522 251 CURVE",
"576 264 OFFCURVE",
"642 279 OFFCURVE",
"697 279 CURVE SMOOTH",
"707 279 OFFCURVE",
"737 279 OFFCURVE",
"737 263 CURVE SMOOTH",
"737 257 OFFCURVE",
"733 253 OFFCURVE",
"733 250 CURVE SMOOTH",
"733 248 OFFCURVE",
"734 247 OFFCURVE",
"736 247 CURVE SMOOTH",
"744 247 OFFCURVE",
"747 260 OFFCURVE",
"747 266 CURVE SMOOTH",
"747 298 OFFCURVE",
"706 299 OFFCURVE",
"683 299 CURVE SMOOTH",
"633 299 OFFCURVE",
"581 293 OFFCURVE",
"532 285 CURVE",
"548 323 OFFCURVE",
"592 430 OFFCURVE",
"616 460 CURVE SMOOTH",
"621 466 OFFCURVE",
"623 469 OFFCURVE",
"630 470 CURVE SMOOTH",
"641 471 OFFCURVE",
"652 472 OFFCURVE",
"663 472 CURVE SMOOTH",
"686 472 OFFCURVE",
"708 470 OFFCURVE",
"732 470 CURVE SMOOTH",
"742 470 OFFCURVE",
"757 469 OFFCURVE",
"757 462 CURVE SMOOTH",
"757 450 OFFCURVE",
"718 413 OFFCURVE",
"718 403 CURVE SMOOTH",
"718 402 OFFCURVE",
"719 401 OFFCURVE",
"720 401 CURVE SMOOTH",
"725 401 OFFCURVE",
"733 406 OFFCURVE",
"736 409 CURVE SMOOTH",
"751 427 LINE SMOOTH",
"770 446 OFFCURVE",
"792 461 OFFCURVE",
"814 476 CURVE SMOOTH",
"818 478 OFFCURVE",
"833 487 OFFCURVE",
"834 491 CURVE SMOOTH",
"834 492 OFFCURVE",
"835 494 OFFCURVE",
"835 494 CURVE",
"835 497 OFFCURVE",
"834 499 OFFCURVE",
"833 502 CURVE",
"827 504 LINE",
"636 505 LINE",
"638 511 OFFCURVE",
"639 518 OFFCURVE",
"639 524 CURVE SMOOTH",
"639 534 OFFCURVE",
"634 546 OFFCURVE",
"623 546 CURVE SMOOTH",
"600 546 OFFCURVE",
"614 507 OFFCURVE",
"588 507 CURVE SMOOTH",
"578 507 OFFCURVE",
"569 508 OFFCURVE",
"559 508 CURVE SMOOTH",
"555 508 OFFCURVE",
"535 508 OFFCURVE",
"535 501 CURVE SMOOTH",
"535 487 OFFCURVE",
"577 475 OFFCURVE",
"588 475 CURVE",
"573 435 OFFCURVE",
"553 396 OFFCURVE",
"534 357 CURVE",
"526 435 OFFCURVE",
"478 488 OFFCURVE",
"399 499 CURVE",
"415 509 OFFCURVE",
"444 526 OFFCURVE",
"463 526 CURVE SMOOTH",
"486 526 OFFCURVE",
"474 502 OFFCURVE",
"484 502 CURVE SMOOTH",
"491 502 OFFCURVE",
"491 509 OFFCURVE",
"491 513 CURVE SMOOTH",
"491 535 OFFCURVE",
"475 542 OFFCURVE",
"456 542 CURVE SMOOTH",
"421 542 OFFCURVE",
"361 518 OFFCURVE",
"333 497 CURVE",
"231 490 OFFCURVE",
"49 436 OFFCURVE",
"49 309 CURVE SMOOTH",
"49 264 OFFCURVE",
"74 239 OFFCURVE",
"107 213 CURVE",
"95 179 OFFCURVE",
"86 142 OFFCURVE",
"86 105 CURVE SMOOTH",
"86 22 OFFCURVE",
"135 -18 OFFCURVE",
"216 -18 CURVE SMOOTH",
"302 -18 OFFCURVE",
"373 33 OFFCURVE",
"427 95 CURVE",
"427 90 OFFCURVE",
"426 84 OFFCURVE",
"426 79 CURVE SMOOTH",
"426 2 OFFCURVE",
"505 -25 OFFCURVE",
"569 -25 CURVE SMOOTH"
);
},
{
closed = 1;
nodes = (
"92 254 OFFCURVE",
"70 283 OFFCURVE",
"70 315 CURVE SMOOTH",
"70 398 OFFCURVE",
"213 443 OFFCURVE",
"277 458 CURVE",
"205 400 OFFCURVE",
"149 318 OFFCURVE",
"114 232 CURVE"
);
},
{
closed = 1;
nodes = (
"153 -3 OFFCURVE",
"131 46 OFFCURVE",
"131 98 CURVE SMOOTH",
"131 128 OFFCURVE",
"137 158 OFFCURVE",
"146 186 CURVE",
"155 181 OFFCURVE",
"225 143 OFFCURVE",
"231 143 CURVE SMOOTH",
"235 143 OFFCURVE",
"237 145 OFFCURVE",
"237 149 CURVE SMOOTH",
"237 151 OFFCURVE",
"236 152 OFFCURVE",
"235 154 CURVE",
"210 171 OFFCURVE",
"178 184 OFFCURVE",
"152 202 CURVE",
"160 224 OFFCURVE",
"170 245 OFFCURVE",
"181 266 CURVE SMOOTH",
"218 335 OFFCURVE",
"268 401 OFFCURVE",
"330 449 CURVE SMOOTH",
"339 456 OFFCURVE",
"350 465 OFFCURVE",
"359 470 CURVE",
"370 474 OFFCURVE",
"393 477 OFFCURVE",
"405 477 CURVE SMOOTH",
"477 477 OFFCURVE",
"510 417 OFFCURVE",
"510 351 CURVE SMOOTH",
"510 327 OFFCURVE",
"508 300 OFFCURVE",
"496 279 CURVE",
"469 274 OFFCURVE",
"436 274 OFFCURVE",
"418 249 CURVE SMOOTH",
"416 246 OFFCURVE",
"414 242 OFFCURVE",
"414 238 CURVE SMOOTH",
"414 230 OFFCURVE",
"422 230 OFFCURVE",
"428 230 CURVE SMOOTH",
"444 230 OFFCURVE",
"462 235 OFFCURVE",
"478 240 CURVE",
"459 196 LINE SMOOTH",
"456 189 OFFCURVE",
"453 179 OFFCURVE",
"450 173 CURVE SMOOTH",
"442 159 OFFCURVE",
"431 145 OFFCURVE",
"421 132 CURVE SMOOTH",
"373 71 OFFCURVE",
"295 -3 OFFCURVE",
"213 -3 CURVE SMOOTH"
);
}
);
width = 793;
}
);
note = OE;
unicode = 0152;
},
{
glyphname = P;
lastChange = "2021-08-23 17:44:31 +0000";
layers = (
{
layerId = "C2A7C206-1962-4FAA-88DB-FE8C23752EC9";
paths = (
{
closed = 1;
nodes = (
"195 -16 OFFCURVE",
"237 56 OFFCURVE",
"259 108 CURVE SMOOTH",
"273 139 OFFCURVE",
"287 175 OFFCURVE",
"300 211 CURVE",
"321 201 OFFCURVE",
"348 198 OFFCURVE",
"373 198 CURVE SMOOTH",
"390 198 OFFCURVE",
"406 200 OFFCURVE",
"419 202 CURVE SMOOTH",
"520 222 OFFCURVE",
"593 299 OFFCURVE",
"593 370 CURVE SMOOTH",
"593 425 OFFCURVE",
"549 476 OFFCURVE",
"441 494 CURVE SMOOTH",
"431 496 OFFCURVE",
"420 498 OFFCURVE",
"410 499 CURVE",
"418 507 LINE",
"425 512 OFFCURVE",
"435 536 OFFCURVE",
"435 548 CURVE SMOOTH",
"435 553 OFFCURVE",
"432 556 OFFCURVE",
"426 552 CURVE",
"416 540 OFFCURVE",
"408 532 OFFCURVE",
"399 525 CURVE SMOOTH",
"387 515 OFFCURVE",
"378 509 OFFCURVE",
"371 502 CURVE",
"361 502 OFFCURVE",
"351 503 OFFCURVE",
"340 503 CURVE SMOOTH",
"221 503 OFFCURVE",
"50 475 OFFCURVE",
"50 362 CURVE SMOOTH",
"50 275 OFFCURVE",
"139 224 OFFCURVE",
"165 210 CURVE SMOOTH",
"169 208 OFFCURVE",
"174 212 OFFCURVE",
"171 215 CURVE SMOOTH",
"160 227 OFFCURVE",
"144 239 OFFCURVE",
"130 251 CURVE SMOOTH",
"93 285 OFFCURVE",
"78 317 OFFCURVE",
"78 345 CURVE SMOOTH",
"78 413 OFFCURVE",
"163 461 OFFCURVE",
"249 473 CURVE SMOOTH",
"275 477 OFFCURVE",
"315 480 OFFCURVE",
"357 479 CURVE",
"354 470 OFFCURVE",
"353 458 OFFCURVE",
"353 441 CURVE SMOOTH",
"353 428 OFFCURVE",
"340 393 OFFCURVE",
"336 381 CURVE SMOOTH",
"326 352 OFFCURVE",
"309 296 OFFCURVE",
"287 237 CURVE",
"281 241 OFFCURVE",
"276 245 OFFCURVE",
"272 251 CURVE SMOOTH",
"268 256 OFFCURVE",
"265 258 OFFCURVE",
"263 258 CURVE SMOOTH",
"262 258 OFFCURVE",
"261 257 OFFCURVE",
"261 255 CURVE SMOOTH",
"261 253 OFFCURVE",
"261 251 OFFCURVE",
"262 249 CURVE SMOOTH",
"266 238 OFFCURVE",
"273 229 OFFCURVE",
"281 222 CURVE",
"259 166 OFFCURVE",
"232 110 OFFCURVE",
"202 73 CURVE SMOOTH",
"178 44 OFFCURVE",
"152 34 OFFCURVE",
"124 34 CURVE SMOOTH",
"57 34 OFFCURVE",
"34 118 OFFCURVE",
"29 173 CURVE",
"30 182 OFFCURVE",
"21 175 OFFCURVE",
"20 169 CURVE SMOOTH",
"17 129 OFFCURVE",
"34 39 OFFCURVE",
"81 5 CURVE SMOOTH",
"101 -10 OFFCURVE",
"120 -16 OFFCURVE",
"137 -16 CURVE SMOOTH"
);
},
{
closed = 1;
nodes = (
"347 217 OFFCURVE",
"325 220 OFFCURVE",
"306 227 CURVE",
"348 344 LINE SMOOTH",
"363 388 OFFCURVE",
"375 421 OFFCURVE",
"385 447 CURVE SMOOTH",
"389 459 OFFCURVE",
"394 469 OFFCURVE",
"397 477 CURVE",
"409 476 OFFCURVE",
"420 474 OFFCURVE",
"431 472 CURVE SMOOTH",
"516 457 OFFCURVE",
"549 414 OFFCURVE",
"549 368 CURVE SMOOTH",
"549 304 OFFCURVE",
"486 234 OFFCURVE",
"410 221 CURVE SMOOTH",
"397 219 OFFCURVE",
"383 217 OFFCURVE",
"369 217 CURVE SMOOTH"
);
}
);
width = 455;
}
);
note = P;
unicode = 0050;
},
{
glyphname = Thorn;
lastChange = "2021-08-23 17:44:31 +0000";
layers = (
{
layerId = "C2A7C206-1962-4FAA-88DB-FE8C23752EC9";
paths = (
{
closed = 1;
nodes = (
"9 -140 OFFCURVE",
"11 -140 OFFCURVE",
"13 -139 CURVE SMOOTH",
"-2 -145 OFFCURVE",
"133 -123 OFFCURVE",
"120 -103 CURVE SMOOTH",
"115 -95 OFFCURVE",
"112 -80 OFFCURVE",
"112 -61 CURVE SMOOTH",
"112 -17 OFFCURVE",
"124 50 OFFCURVE",
"139 115 CURVE",
"153 114 OFFCURVE",
"172 113 OFFCURVE",
"193 113 CURVE SMOOTH",
"245 113 OFFCURVE",
"310 118 OFFCURVE",
"352 138 CURVE SMOOTH",
"408 164 OFFCURVE",
"449 221 OFFCURVE",
"449 281 CURVE SMOOTH",
"449 314 OFFCURVE",
"436 349 OFFCURVE",
"405 378 CURVE SMOOTH",
"354 426 OFFCURVE",
"266 424 OFFCURVE",
"209 424 CURVE",
"232 497 OFFCURVE",
"256 558 OFFCURVE",
"272 579 CURVE SMOOTH",
"291 603 OFFCURVE",
"302 604 OFFCURVE",
"315 604 CURVE SMOOTH",
"329 604 OFFCURVE",
"334 606 OFFCURVE",
"334 609 CURVE SMOOTH",
"334 613 OFFCURVE",
"323 618 OFFCURVE",
"316 618 CURVE SMOOTH",
"281 618 OFFCURVE",
"237 590 OFFCURVE",
"205 576 CURVE",
"195 595 OFFCURVE",
"133 298 OFFCURVE",
"118 236 CURVE SMOOTH",
"104 177 OFFCURVE",
"91 118 OFFCURVE",
"78 59 CURVE SMOOTH",
"67 11 OFFCURVE",
"55 -36 OFFCURVE",
"42 -83 CURVE SMOOTH",
"36 -108 OFFCURVE",
"21 -126 OFFCURVE",
"-7 -131 CURVE",
"-10 -134 OFFCURVE",
"-3 -140 OFFCURVE",
"7 -140 CURVE SMOOTH"
);
},
{
closed = 1;
nodes = (
"166 134 OFFCURVE",
"154 135 OFFCURVE",
"144 136 CURVE",
"151 165 LINE SMOOTH",
"169 238 OFFCURVE",
"194 348 OFFCURVE",
"209 384 CURVE SMOOTH",
"217 403 OFFCURVE",
"249 408 OFFCURVE",
"275 408 CURVE SMOOTH",
"283 408 OFFCURVE",
"290 408 OFFCURVE",
"296 407 CURVE SMOOTH",
"355 399 OFFCURVE",
"397 335 OFFCURVE",
"397 272 CURVE SMOOTH",
"397 161 OFFCURVE",
"264 134 OFFCURVE",
"180 134 CURVE SMOOTH"
);
}
);
width = 541;
}
);
note = Thorn;
unicode = 00DE;
},
{
glyphname = Q;
lastChange = "2021-08-23 17:44:31 +0000";
layers = (
{
layerId = "C2A7C206-1962-4FAA-88DB-FE8C23752EC9";
paths = (
{
closed = 1;
nodes = (
"350 -19 OFFCURVE",
"450 100 OFFCURVE",
"506 206 CURVE SMOOTH",
"528 246 OFFCURVE",
"540 292 OFFCURVE",
"540 335 CURVE SMOOTH",
"540 416 OFFCURVE",
"499 488 OFFCURVE",
"403 501 CURVE",
"424 514 OFFCURVE",
"450 529 OFFCURVE",
"467 529 CURVE SMOOTH",
"477 529 OFFCURVE",
"484 523 OFFCURVE",
"484 509 CURVE SMOOTH",
"484 502 OFFCURVE",
"494 503 OFFCURVE",
"495 511 CURVE SMOOTH",
"497 536 OFFCURVE",
"483 544 OFFCURVE",
"461 544 CURVE SMOOTH",
"422 544 OFFCURVE",
"361 515 OFFCURVE",
"336 500 CURVE",
"309 498 OFFCURVE",
"278 493 OFFCURVE",
"247 485 CURVE SMOOTH",
"229 480 OFFCURVE",
"212 465 OFFCURVE",
"212 455 CURVE SMOOTH",
"212 451 OFFCURVE",
"216 448 OFFCURVE",
"224 448 CURVE SMOOTH",
"230 448 OFFCURVE",
"237 449 OFFCURVE",
"247 452 CURVE SMOOTH",
"258 455 OFFCURVE",
"269 458 OFFCURVE",
"280 460 CURVE",
"217 409 OFFCURVE",
"162 337 OFFCURVE",
"124 252 CURVE SMOOTH",
"101 199 OFFCURVE",
"87 148 OFFCURVE",
"87 104 CURVE SMOOTH",
"87 32 OFFCURVE",
"125 -19 OFFCURVE",
"219 -19 CURVE SMOOTH"
);
},
{
closed = 1;
nodes = (
"549 -313 OFFCURVE",
"616 -299 OFFCURVE",
"616 -248 CURVE SMOOTH",
"616 -232 OFFCURVE",
"609 -214 OFFCURVE",
"596 -196 CURVE",
"593 -193 OFFCURVE",
"585 -192 OFFCURVE",
"585 -197 CURVE",
"585 -197 OFFCURVE",
"586 -198 OFFCURVE",
"586 -199 CURVE",
"592 -210 OFFCURVE",
"594 -221 OFFCURVE",
"594 -232 CURVE SMOOTH",
"594 -267 OFFCURVE",
"566 -297 OFFCURVE",
"524 -297 CURVE SMOOTH",
"516 -297 OFFCURVE",
"507 -296 OFFCURVE",
"498 -293 CURVE SMOOTH",
"330 -248 OFFCURVE",
"179 -29 OFFCURVE",
"114 -15 CURVE SMOOTH",
"73 -6 OFFCURVE",
"50 -66 OFFCURVE",
"48 -124 CURVE SMOOTH",
"48 -133 OFFCURVE",
"50 -137 OFFCURVE",
"53 -137 CURVE SMOOTH",
"57 -137 OFFCURVE",
"60 -133 OFFCURVE",
"60 -126 CURVE SMOOTH",
"60 -124 LINE SMOOTH",
"59 -108 OFFCURVE",
"64 -90 OFFCURVE",
"68 -82 CURVE SMOOTH",
"73 -73 OFFCURVE",
"82 -68 OFFCURVE",
"93 -68 CURVE SMOOTH",
"110 -68 OFFCURVE",
"131 -77 OFFCURVE",
"149 -92 CURVE SMOOTH",
"262 -186 OFFCURVE",
"373 -313 OFFCURVE",
"509 -313 CURVE SMOOTH"
);
},
{
closed = 1;
nodes = (
"160 -3 OFFCURVE",
"131 36 OFFCURVE",
"131 99 CURVE SMOOTH",
"131 144 OFFCURVE",
"147 202 OFFCURVE",
"181 266 CURVE SMOOTH",
"240 376 OFFCURVE",
"314 442 OFFCURVE",
"359 470 CURVE",
"375 475 OFFCURVE",
"391 478 OFFCURVE",
"405 478 CURVE SMOOTH",
"471 478 OFFCURVE",
"510 425 OFFCURVE",
"510 349 CURVE SMOOTH",
"510 313 OFFCURVE",
"500 270 OFFCURVE",
"480 226 CURVE SMOOTH",
"438 136 OFFCURVE",
"324 -3 OFFCURVE",
"213 -3 CURVE SMOOTH"
);
}
);
width = 469;
}
);
note = Q;
unicode = 0051;
},
{
glyphname = R;
lastChange = "2021-08-23 17:44:31 +0000";
layers = (
{
layerId = "C2A7C206-1962-4FAA-88DB-FE8C23752EC9";
paths = (
{
closed = 1;
nodes = (
"194 -13 OFFCURVE",
"235 59 OFFCURVE",
"258 112 CURVE SMOOTH",
"273 146 OFFCURVE",
"289 186 OFFCURVE",
"303 225 CURVE",
"364 147 OFFCURVE",
"425 38 OFFCURVE",
"490 4 CURVE SMOOTH",
"503 -3 OFFCURVE",
"516 -6 OFFCURVE",
"527 -6 CURVE SMOOTH",
"558 -6 OFFCURVE",
"579 17 OFFCURVE",
"579 49 CURVE SMOOTH",
"579 60 OFFCURVE",
"577 71 OFFCURVE",
"572 83 CURVE SMOOTH",
"565 103 OFFCURVE",
"554 128 OFFCURVE",
"542 146 CURVE SMOOTH",
"540 150 OFFCURVE",
"536 152 OFFCURVE",
"534 152 CURVE SMOOTH",
"533 152 OFFCURVE",
"532 151 OFFCURVE",
"532 149 CURVE SMOOTH",
"532 148 OFFCURVE",
"533 146 OFFCURVE",
"534 144 CURVE SMOOTH",
"548 117 OFFCURVE",
"565 82 OFFCURVE",
"565 54 CURVE SMOOTH",
"565 33 OFFCURVE",
"554 25 OFFCURVE",
"541 25 CURVE SMOOTH",
"533 25 OFFCURVE",
"524 28 OFFCURVE",
"516 32 CURVE SMOOTH",
"472 57 OFFCURVE",
"405 151 OFFCURVE",
"353 220 CURVE",
"368 212 OFFCURVE",
"386 209 OFFCURVE",
"404 209 CURVE SMOOTH",
"489 209 OFFCURVE",
"591 283 OFFCURVE",
"591 375 CURVE SMOOTH",
"591 429 OFFCURVE",
"547 479 OFFCURVE",
"439 498 CURVE SMOOTH",
"408 502 LINE",
"417 510 LINE SMOOTH",
"423 516 OFFCURVE",
"433 540 OFFCURVE",
"433 551 CURVE SMOOTH",
"433 556 OFFCURVE",
"430 559 OFFCURVE",
"424 555 CURVE",
"414 543 OFFCURVE",
"406 536 OFFCURVE",
"397 528 CURVE SMOOTH",
"369 505 LINE",
"358 506 OFFCURVE",
"347 506 OFFCURVE",
"335 506 CURVE SMOOTH",
"217 506 OFFCURVE",
"49 477 OFFCURVE",
"49 366 CURVE SMOOTH",
"49 279 OFFCURVE",
"137 228 OFFCURVE",
"164 213 CURVE SMOOTH",
"167 211 OFFCURVE",
"172 216 OFFCURVE",
"169 219 CURVE SMOOTH",
"158 230 OFFCURVE",
"143 242 OFFCURVE",
"129 255 CURVE SMOOTH",
"92 289 OFFCURVE",
"77 321 OFFCURVE",
"77 349 CURVE SMOOTH",
"77 416 OFFCURVE",
"161 464 OFFCURVE",
"247 476 CURVE SMOOTH",
"274 480 OFFCURVE",
"313 483 OFFCURVE",
"355 482 CURVE",
"352 473 OFFCURVE",
"351 462 OFFCURVE",
"351 445 CURVE SMOOTH",
"351 431 OFFCURVE",
"338 396 OFFCURVE",
"334 384 CURVE SMOOTH",
"327 363 OFFCURVE",
"316 326 OFFCURVE",
"301 284 CURVE",
"294 292 OFFCURVE",
"288 296 OFFCURVE",
"285 296 CURVE",
"280 293 OFFCURVE",
"240 262 OFFCURVE",
"248 265 CURVE SMOOTH",
"260 268 OFFCURVE",
"272 262 OFFCURVE",
"280 253 CURVE SMOOTH",
"287 244 LINE",
"264 182 OFFCURVE",
"234 117 OFFCURVE",
"200 76 CURVE SMOOTH",
"177 48 OFFCURVE",
"151 38 OFFCURVE",
"123 38 CURVE SMOOTH",
"56 38 OFFCURVE",
"32 121 OFFCURVE",
"27 176 CURVE",
"29 186 OFFCURVE",
"19 179 OFFCURVE",
"18 173 CURVE SMOOTH",
"15 132 OFFCURVE",
"33 43 OFFCURVE",
"79 8 CURVE SMOOTH",
"99 -7 OFFCURVE",
"118 -13 OFFCURVE",
"135 -13 CURVE SMOOTH"
);
},
{
closed = 1;
nodes = (
"379 221 OFFCURVE",
"357 228 OFFCURVE",
"336 245 CURVE",
"332 247 LINE",
"317 266 LINE",
"329 298 OFFCURVE",
"338 327 OFFCURVE",
"346 348 CURVE SMOOTH",
"362 391 OFFCURVE",
"373 424 OFFCURVE",
"383 451 CURVE SMOOTH",
"395 480 LINE",
"407 479 OFFCURVE",
"418 478 OFFCURVE",
"429 476 CURVE SMOOTH",
"514 461 OFFCURVE",
"547 418 OFFCURVE",
"548 372 CURVE SMOOTH",
"548 301 OFFCURVE",
"476 221 OFFCURVE",
"402 221 CURVE SMOOTH"
);
}
);
width = 579;
}
);
note = R;
unicode = 0052;
},
{
glyphname = S;
lastChange = "2021-08-23 17:44:31 +0000";
layers = (
{
layerId = "C2A7C206-1962-4FAA-88DB-FE8C23752EC9";
paths = (
{
closed = 1;
nodes = (
"172 -27 OFFCURVE",
"244 2 OFFCURVE",
"280 33 CURVE SMOOTH",
"309 57 OFFCURVE",
"325 91 OFFCURVE",
"325 125 CURVE SMOOTH",
"325 152 OFFCURVE",
"314 179 OFFCURVE",
"289 200 CURVE SMOOTH",
"227 251 OFFCURVE",
"107 266 OFFCURVE",
"107 344 CURVE SMOOTH",
"107 395 OFFCURVE",
"174 462 OFFCURVE",
"284 476 CURVE SMOOTH",
"298 478 OFFCURVE",
"314 479 OFFCURVE",
"329 479 CURVE SMOOTH",
"391 479 OFFCURVE",
"453 461 OFFCURVE",
"453 408 CURVE SMOOTH",
"453 395 OFFCURVE",
"449 380 OFFCURVE",
"441 363 CURVE SMOOTH",
"438 356 OFFCURVE",
"439 351 OFFCURVE",
"443 351 CURVE SMOOTH",
"446 351 OFFCURVE",
"450 354 OFFCURVE",
"455 360 CURVE SMOOTH",
"466 374 OFFCURVE",
"472 392 OFFCURVE",
"472 411 CURVE SMOOTH",
"472 460 OFFCURVE",
"433 515 OFFCURVE",
"334 515 CURVE SMOOTH",
"321 515 OFFCURVE",
"308 514 OFFCURVE",
"293 512 CURVE SMOOTH",
"196 499 OFFCURVE",
"94 417 OFFCURVE",
"79 351 CURVE SMOOTH",
"76 339 OFFCURVE",
"75 328 OFFCURVE",
"75 318 CURVE SMOOTH",
"75 246 OFFCURVE",
"140 228 OFFCURVE",
"209 190 CURVE SMOOTH",
"271 156 OFFCURVE",
"289 135 OFFCURVE",
"289 105 CURVE SMOOTH",
"289 44 OFFCURVE",
"197 -2 OFFCURVE",
"122 -2 CURVE SMOOTH",
"83 -2 OFFCURVE",
"49 10 OFFCURVE",
"35 39 CURVE SMOOTH",
"33 44 OFFCURVE",
"32 49 OFFCURVE",
"32 55 CURVE SMOOTH",
"32 63 OFFCURVE",
"34 72 OFFCURVE",
"40 81 CURVE SMOOTH",
"42 84 OFFCURVE",
"44 92 OFFCURVE",
"39 92 CURVE SMOOTH",
"37 92 LINE",
"22 87 OFFCURVE",
"10 70 OFFCURVE",
"10 49 CURVE SMOOTH",
"10 42 OFFCURVE",
"11 35 OFFCURVE",
"14 28 CURVE SMOOTH",
"24 1 OFFCURVE",
"58 -27 OFFCURVE",
"116 -27 CURVE SMOOTH"
);
}
);
width = 337;
}
);
note = S;
unicode = 0053;
},
{
glyphname = Germandbls;
lastChange = "2021-08-23 17:44:31 +0000";
layers = (
{
background = {
hints = (
{
horizontal = 1;
place = "{-16, 32}";
type = Stem;
},
{
horizontal = 1;
place = "{304, 27}";
type = Stem;
},
{
horizontal = 1;
place = "{569, 29}";
type = Stem;
},
{
place = "{512, 62}";
type = Stem;
}
);
paths = (
{
closed = 1;
nodes = (
"556 200 OFFCURVE",
"517 256 OFFCURVE",
"418 269 CURVE SMOOTH",
"399 271 OFFCURVE",
"405 275 OFFCURVE",
"420 279 CURVE SMOOTH",
"495 296 OFFCURVE",
"542 349 OFFCURVE",
"546 400 CURVE SMOOTH",
"549 460 OFFCURVE",
"488 492 OFFCURVE",
"413 505 CURVE",
"422 522 OFFCURVE",
"432 538 OFFCURVE",
"448 552 CURVE SMOOTH",
"456 560 OFFCURVE",
"467 582 OFFCURVE",
"468 593 CURVE",
"469 595 OFFCURVE",
"468 601 OFFCURVE",
"466 599 CURVE SMOOTH",
"438 572 OFFCURVE",
"410 554 OFFCURVE",
"393 545 CURVE",
"381 534 OFFCURVE",
"378 522 OFFCURVE",
"376 510 CURVE",
"297 518 OFFCURVE",
"211 509 OFFCURVE",
"173 498 CURVE SMOOTH",
"99 477 OFFCURVE",
"52 435 OFFCURVE",
"52 355 CURVE SMOOTH",
"52 283 OFFCURVE",
"111 246 OFFCURVE",
"156 201 CURVE",
"159 197 OFFCURVE",
"165 203 OFFCURVE",
"161 207 CURVE SMOOTH",
"134 234 OFFCURVE",
"111 259 OFFCURVE",
"93 291 CURVE SMOOTH",
"60 349 OFFCURVE",
"71 399 OFFCURVE",
"125 440 CURVE SMOOTH",
"159 466 OFFCURVE",
"279 489 OFFCURVE",
"373 480 CURVE",
"370 470 OFFCURVE",
"353 432 OFFCURVE",
"351 426 CURVE SMOOTH",
"289 282 LINE",
"281 281 OFFCURVE",
"273 279 OFFCURVE",
"267 273 CURVE SMOOTH",
"258 265 OFFCURVE",
"253 258 OFFCURVE",
"253 254 CURVE SMOOTH",
"253 249 OFFCURVE",
"261 250 OFFCURVE",
"276 252 CURVE",
"231 147 LINE SMOOTH",
"206 90 OFFCURVE",
"183 69 OFFCURVE",
"173 65 CURVE SMOOTH",
"164 61 OFFCURVE",
"171 52 OFFCURVE",
"194 67 CURVE SMOOTH",
"207 76 OFFCURVE",
"227 72 OFFCURVE",
"241 107 CURVE SMOOTH",
"302 256 LINE",
"463 271 OFFCURVE",
"506 205 OFFCURVE",
"495 139 CURVE SMOOTH",
"484 72 OFFCURVE",
"416 1 OFFCURVE",
"282 9 CURVE SMOOTH",
"229 13 OFFCURVE",
"109 47 OFFCURVE",
"71 39 CURVE SMOOTH",
"50 34 OFFCURVE",
"37 25 OFFCURVE",
"31 11 CURVE SMOOTH",
"21 -11 OFFCURVE",
"40 -39 OFFCURVE",
"97 -28 CURVE SMOOTH",
"104 -26 OFFCURVE",
"106 -15 OFFCURVE",
"97 -18 CURVE SMOOTH",
"46 -35 OFFCURVE",
"22 28 OFFCURVE",
"142 2 CURVE SMOOTH",
"169 -4 OFFCURVE",
"232 -8 OFFCURVE",
"279 -9 CURVE SMOOTH",
"453 -15 OFFCURVE",
"541 66 OFFCURVE",
"550 142 CURVE SMOOTH"
);
},
{
closed = 1;
nodes = (
"358 390 LINE SMOOTH",
"370 419 OFFCURVE",
"384 448 OFFCURVE",
"399 476 CURVE",
"455 466 OFFCURVE",
"497 443 OFFCURVE",
"497 398 CURVE SMOOTH",
"497 345 OFFCURVE",
"439 281 OFFCURVE",
"329 281 CURVE SMOOTH",
"323 281 OFFCURVE",
"318 281 OFFCURVE",
"313 282 CURVE"
);
}
);
};
layerId = "C2A7C206-1962-4FAA-88DB-FE8C23752EC9";
paths = (
{
closed = 1;
nodes = (
"42 -68 OFFCURVE",
"72 -33 OFFCURVE",
"99 34 CURVE SMOOTH",
"146 161 OFFCURVE",
"194 401 OFFCURVE",
"265 484 CURVE SMOOTH",
"289 513 OFFCURVE",
"319 532 OFFCURVE",
"354 532 CURVE SMOOTH",
"398 532 OFFCURVE",
"420 493 OFFCURVE",
"420 450 CURVE SMOOTH",
"420 427 OFFCURVE",
"414 403 OFFCURVE",
"401 383 CURVE SMOOTH",
"376 342 OFFCURVE",
"305 300 OFFCURVE",
"260 289 CURVE",
"255 287 OFFCURVE",
"252 282 OFFCURVE",
"252 273 CURVE SMOOTH",
"252 263 OFFCURVE",
"257 249 OFFCURVE",
"269 230 CURVE SMOOTH",
"291 197 OFFCURVE",
"342 147 OFFCURVE",
"342 75 CURVE SMOOTH",
"342 20 OFFCURVE",
"291 -10 OFFCURVE",
"239 -10 CURVE SMOOTH",
"193 -10 OFFCURVE",
"147 14 OFFCURVE",
"143 67 CURVE",
"145 75 OFFCURVE",
"125 69 OFFCURVE",
"125 52 CURVE SMOOTH",
"125 49 OFFCURVE",
"125 46 OFFCURVE",
"127 42 CURVE SMOOTH",
"150 -7 OFFCURVE",
"195 -28 OFFCURVE",
"241 -28 CURVE SMOOTH",
"311 -28 OFFCURVE",
"383 20 OFFCURVE",
"383 90 CURVE SMOOTH",
"383 114 OFFCURVE",
"375 140 OFFCURVE",
"356 167 CURVE SMOOTH",
"336 197 OFFCURVE",
"288 237 OFFCURVE",
"288 267 CURVE SMOOTH",
"288 272 OFFCURVE",
"289 277 OFFCURVE",
"292 281 CURVE",
"337 287 OFFCURVE",
"404 319 OFFCURVE",
"429 354 CURVE SMOOTH",
"448 381 OFFCURVE",
"457 410 OFFCURVE",
"457 437 CURVE SMOOTH",
"457 497 OFFCURVE",
"414 546 OFFCURVE",
"351 546 CURVE SMOOTH",
"310 544 OFFCURVE",
"278 526 OFFCURVE",
"251 496 CURVE SMOOTH",
"145 381 OFFCURVE",
"102 138 OFFCURVE",
"32 -42 CURVE SMOOTH",
"29 -50 OFFCURVE",
"27 -56 OFFCURVE",
"27 -61 CURVE SMOOTH",
"27 -66 OFFCURVE",
"29 -68 OFFCURVE",
"32 -68 CURVE SMOOTH"
);
}
);
width = 543;
}
);
unicode = 1E9E;
},
{
glyphname = Schwa;
lastChange = "2021-08-23 17:44:31 +0000";
layers = (
{
layerId = "C2A7C206-1962-4FAA-88DB-FE8C23752EC9";
paths = (
{
closed = 1;
nodes = (
"227 -18 OFFCURVE",
"338 192 OFFCURVE",
"383 260 CURVE",
"399 266 OFFCURVE",
"412 274 OFFCURVE",
"412 278 CURVE SMOOTH",
"412 281 OFFCURVE",
"407 283 OFFCURVE",
"395 283 CURVE",
"419 331 OFFCURVE",
"436 384 OFFCURVE",
"436 430 CURVE SMOOTH",
"436 497 OFFCURVE",
"400 548 OFFCURVE",
"299 548 CURVE SMOOTH",
"208 548 OFFCURVE",
"85 464 OFFCURVE",
"71 431 CURVE",
"70 427 OFFCURVE",
"68 423 OFFCURVE",
"68 421 CURVE",
"68 421 OFFCURVE",
"68 420 OFFCURVE",
"69 420 CURVE SMOOTH",
"70 420 OFFCURVE",
"73 421 OFFCURVE",
"76 424 CURVE SMOOTH",
"129 472 OFFCURVE",
"179 513 OFFCURVE",
"268 513 CURVE SMOOTH",
"360 513 OFFCURVE",
"394 478 OFFCURVE",
"394 426 CURVE SMOOTH",
"394 385 OFFCURVE",
"372 333 OFFCURVE",
"341 280 CURVE",
"358 288 OFFCURVE",
"247 263 OFFCURVE",
"172 223 CURVE SMOOTH",
"133 202 OFFCURVE",
"61 136 OFFCURVE",
"52 83 CURVE SMOOTH",
"50 74 OFFCURVE",
"50 65 OFFCURVE",
"50 56 CURVE SMOOTH",
"50 12 OFFCURVE",
"73 -18 OFFCURVE",
"138 -18 CURVE SMOOTH"
);
},
{
closed = 1;
nodes = (
"110 4 OFFCURVE",
"105 6 OFFCURVE",
"101 9 CURVE SMOOTH",
"92 17 OFFCURVE",
"88 29 OFFCURVE",
"88 42 CURVE SMOOTH",
"88 75 OFFCURVE",
"110 119 OFFCURVE",
"138 148 CURVE SMOOTH",
"194 209 OFFCURVE",
"233 222 OFFCURVE",
"334 259 CURVE",
"319 229 OFFCURVE",
"278 142 OFFCURVE",
"234 91 CURVE SMOOTH",
"182 31 OFFCURVE",
"141 4 OFFCURVE",
"116 4 CURVE SMOOTH"
);
}
);
width = 486;
}
);
unicode = 018F;
},
{
glyphname = T;
lastChange = "2021-08-23 18:10:35 +0000";
layers = (
{
background = {
paths = (
{
closed = 1;
nodes = (
"193 -29 OFFCURVE",
"216 -20 OFFCURVE",
"236 0 CURVE SMOOTH",
"272 35 OFFCURVE",
"302 120 OFFCURVE",
"319 167 CURVE SMOOTH",
"340 223 OFFCURVE",
"345 233 OFFCURVE",
"403 402 CURVE SMOOTH",
"409 420 OFFCURVE",
"417 433 OFFCURVE",
"427 451 CURVE",
"484 441 OFFCURVE",
"537 432 OFFCURVE",
"574 428 CURVE SMOOTH",
"610 424 OFFCURVE",
"632 446 OFFCURVE",
"632 467 CURVE SMOOTH",
"632 478 OFFCURVE",
"626 489 OFFCURVE",
"612 495 CURVE SMOOTH",
"602 499 OFFCURVE",
"603 491 OFFCURVE",
"609 486 CURVE SMOOTH",
"615 481 OFFCURVE",
"618 476 OFFCURVE",
"618 472 CURVE SMOOTH",
"618 464 OFFCURVE",
"609 459 OFFCURVE",
"603 459 CURVE SMOOTH",
"602 459 LINE SMOOTH",
"549 460 OFFCURVE",
"495 474 OFFCURVE",
"445 483 CURVE SMOOTH",
"443 483 OFFCURVE",
"442 483 OFFCURVE",
"441 484 CURVE",
"444 494 OFFCURVE",
"445 505 OFFCURVE",
"445 516 CURVE SMOOTH",
"445 529 OFFCURVE",
"439 534 OFFCURVE",
"431 534 CURVE SMOOTH",
"423 534 OFFCURVE",
"413 528 OFFCURVE",
"406 521 CURVE",
"403 515 OFFCURVE",
"400 504 OFFCURVE",
"397 492 CURVE",
"342 503 OFFCURVE",
"264 516 OFFCURVE",
"195 516 CURVE SMOOTH",
"93 516 OFFCURVE",
"13 477 OFFCURVE",
"13 389 CURVE SMOOTH",
"13 375 OFFCURVE",
"15 359 OFFCURVE",
"21 343 CURVE SMOOTH",
"35 300 OFFCURVE",
"69 262 OFFCURVE",
"93 226 CURVE SMOOTH",
"95 223 OFFCURVE",
"101 226 OFFCURVE",
"101 229 CURVE SMOOTH",
"101 230 OFFCURVE",
"101 230 OFFCURVE",
"100 231 CURVE SMOOTH",
"66 281 OFFCURVE",
"43 334 OFFCURVE",
"43 379 CURVE SMOOTH",
"43 437 OFFCURVE",
"83 480 OFFCURVE",
"191 480 CURVE SMOOTH",
"248 480 OFFCURVE",
"320 469 OFFCURVE",
"390 458 CURVE",
"388 450 OFFCURVE",
"386 442 OFFCURVE",
"385 435 CURVE",
"379 415 LINE SMOOTH",
"351 315 OFFCURVE",
"317 205 OFFCURVE",
"275 111 CURVE SMOOTH",
"255 68 OFFCURVE",
"222 21 OFFCURVE",
"170 21 CURVE SMOOTH",
"70 21 OFFCURVE",
"63 133 OFFCURVE",
"61 174 CURVE SMOOTH",
"61 178 OFFCURVE",
"58 180 OFFCURVE",
"55 180 CURVE SMOOTH",
"52 180 OFFCURVE",
"49 178 OFFCURVE",
"49 174 CURVE SMOOTH",
"49 130 OFFCURVE",
"58 66 OFFCURVE",
"86 22 CURVE SMOOTH",
"106 -11 OFFCURVE",
"138 -29 OFFCURVE",
"170 -29 CURVE SMOOTH"
);
}
);
};
layerId = "C2A7C206-1962-4FAA-88DB-FE8C23752EC9";
paths = (
{
closed = 1;
nodes = (
"250 -29 OFFCURVE",
"286 74 OFFCURVE",
"319 167 CURVE SMOOTH",
"340 223 OFFCURVE",
"345 233 OFFCURVE",
"403 402 CURVE SMOOTH",
"409 420 OFFCURVE",
"417 433 OFFCURVE",
"427 451 CURVE",
"484 441 OFFCURVE",
"537 432 OFFCURVE",
"574 428 CURVE SMOOTH",
"610 424 OFFCURVE",
"632 446 OFFCURVE",
"632 467 CURVE SMOOTH",
"632 478 OFFCURVE",
"626 489 OFFCURVE",
"612 495 CURVE SMOOTH",
"602 499 OFFCURVE",
"603 491 OFFCURVE",
"609 486 CURVE SMOOTH",
"615 481 OFFCURVE",
"618 476 OFFCURVE",
"618 472 CURVE SMOOTH",
"618 464 OFFCURVE",
"609 459 OFFCURVE",
"603 459 CURVE SMOOTH",
"602 459 LINE SMOOTH",
"549 460 OFFCURVE",
"495 474 OFFCURVE",
"445 483 CURVE SMOOTH",
"443 483 OFFCURVE",
"442 483 OFFCURVE",
"441 484 CURVE",
"444 494 OFFCURVE",
"445 505 OFFCURVE",
"445 516 CURVE SMOOTH",
"445 529 OFFCURVE",
"439 534 OFFCURVE",
"431 534 CURVE SMOOTH",
"423 534 OFFCURVE",
"413 528 OFFCURVE",
"406 521 CURVE",
"403 515 OFFCURVE",
"400 504 OFFCURVE",
"397 492 CURVE",
"342 503 OFFCURVE",
"264 516 OFFCURVE",
"195 516 CURVE SMOOTH",
"93 516 OFFCURVE",
"13 477 OFFCURVE",
"13 389 CURVE SMOOTH",
"13 324 OFFCURVE",
"54 285 OFFCURVE",
"93 226 CURVE SMOOTH",
"95 223 OFFCURVE",
"101 226 OFFCURVE",
"101 229 CURVE SMOOTH",
"101 230 OFFCURVE",
"101 230 OFFCURVE",
"100 231 CURVE SMOOTH",
"66 281 OFFCURVE",
"43 334 OFFCURVE",
"43 379 CURVE SMOOTH",
"43 437 OFFCURVE",
"83 480 OFFCURVE",
"191 480 CURVE SMOOTH",
"248 480 OFFCURVE",
"320 469 OFFCURVE",
"390 458 CURVE",
"388 450 OFFCURVE",
"386 442 OFFCURVE",
"385 435 CURVE",
"379 415 LINE SMOOTH",
"351 315 OFFCURVE",
"317 205 OFFCURVE",
"275 111 CURVE SMOOTH",
"255 68 OFFCURVE",
"222 21 OFFCURVE",
"170 21 CURVE SMOOTH",
"70 21 OFFCURVE",
"63 133 OFFCURVE",
"61 174 CURVE SMOOTH",
"61 178 OFFCURVE",
"58 180 OFFCURVE",
"55 180 CURVE SMOOTH",
"52 180 OFFCURVE",
"49 178 OFFCURVE",
"49 174 CURVE SMOOTH",
"49 81 OFFCURVE",
"84 -29 OFFCURVE",
"170 -29 CURVE SMOOTH"
);
}
);
width = 379;
}
);
note = T;
unicode = 0054;
},
{
glyphname = U;
lastChange = "2021-08-23 17:44:31 +0000";
layers = (
{
layerId = "C2A7C206-1962-4FAA-88DB-FE8C23752EC9";
paths = (
{
closed = 1;
nodes = (
"327 -12 OFFCURVE",
"424 141 OFFCURVE",
"478 235 CURVE",
"460 188 OFFCURVE",
"442 139 OFFCURVE",
"433 91 CURVE SMOOTH",
"430 77 OFFCURVE",
"429 63 OFFCURVE",
"429 50 CURVE SMOOTH",
"429 18 OFFCURVE",
"440 -7 OFFCURVE",
"470 -11 CURVE SMOOTH",
"505 -16 OFFCURVE",
"580 63 OFFCURVE",
"600 88 CURVE SMOOTH",
"618 109 OFFCURVE",
"634 131 OFFCURVE",
"650 152 CURVE SMOOTH",
"652 155 OFFCURVE",
"651 158 OFFCURVE",
"650 160 CURVE",
"650 161 OFFCURVE",
"649 162 OFFCURVE",
"649 161 CURVE",
"594 94 LINE SMOOTH",
"549 41 OFFCURVE",
"519 20 OFFCURVE",
"501 20 CURVE SMOOTH",
"484 20 OFFCURVE",
"477 40 OFFCURVE",
"477 69 CURVE SMOOTH",
"477 109 OFFCURVE",
"491 169 OFFCURVE",
"506 220 CURVE SMOOTH",
"533 309 OFFCURVE",
"566 397 OFFCURVE",
"604 480 CURVE SMOOTH",
"612 497 OFFCURVE",
"629 514 OFFCURVE",
"646 518 CURVE SMOOTH",
"649 519 OFFCURVE",
"651 529 OFFCURVE",
"643 529 CURVE SMOOTH",
"642 529 OFFCURVE",
"641 529 OFFCURVE",
"639 528 CURVE SMOOTH",
"622 523 OFFCURVE",
"590 504 OFFCURVE",
"582 496 CURVE",
"555 496 OFFCURVE",
"556 475 OFFCURVE",
"552 461 CURVE SMOOTH",
"543 431 OFFCURVE",
"540 416 OFFCURVE",
"534 396 CURVE",
"532 392 OFFCURVE",
"531 387 OFFCURVE",
"529 382 CURVE SMOOTH",
"502 309 OFFCURVE",
"433 170 OFFCURVE",
"387 115 CURVE SMOOTH",
"340 60 OFFCURVE",
"295 34 OFFCURVE",
"263 34 CURVE SMOOTH",
"231 34 OFFCURVE",
"211 58 OFFCURVE",
"211 106 CURVE SMOOTH",
"211 121 OFFCURVE",
"213 137 OFFCURVE",
"217 155 CURVE SMOOTH",
"241 274 OFFCURVE",
"301 379 OFFCURVE",
"316 406 CURVE SMOOTH",
"321 415 OFFCURVE",
"326 423 OFFCURVE",
"334 431 CURVE SMOOTH",
"342 439 OFFCURVE",
"345 446 OFFCURVE",
"345 451 CURVE SMOOTH",
"345 461 OFFCURVE",
"334 466 OFFCURVE",
"322 466 CURVE SMOOTH",
"310 466 OFFCURVE",
"298 462 OFFCURVE",
"295 454 CURVE SMOOTH",
"260 362 OFFCURVE",
"220 269 OFFCURVE",
"185 173 CURVE SMOOTH",
"176 148 OFFCURVE",
"166 110 OFFCURVE",
"166 76 CURVE SMOOTH",
"166 29 OFFCURVE",
"183 -12 OFFCURVE",
"241 -12 CURVE SMOOTH"
);
},
{
closed = 1;
nodes = (
"95 145 OFFCURVE",
"129 170 OFFCURVE",
"129 212 CURVE SMOOTH",
"129 219 OFFCURVE",
"128 226 OFFCURVE",
"126 234 CURVE SMOOTH",
"116 268 OFFCURVE",
"83 310 OFFCURVE",
"83 349 CURVE SMOOTH",
"83 388 OFFCURVE",
"106 417 OFFCURVE",
"152 433 CURVE SMOOTH",
"197 450 OFFCURVE",
"285 475 OFFCURVE",
"358 499 CURVE SMOOTH",
"381 507 OFFCURVE",
"389 520 OFFCURVE",
"389 528 CURVE SMOOTH",
"389 532 OFFCURVE",
"387 534 OFFCURVE",
"384 534 CURVE SMOOTH",
"382 534 OFFCURVE",
"380 533 OFFCURVE",
"377 531 CURVE",
"353 509 OFFCURVE",
"256 484 OFFCURVE",
"219 478 CURVE SMOOTH",
"160 468 OFFCURVE",
"62 456 OFFCURVE",
"62 370 CURVE SMOOTH",
"62 353 OFFCURVE",
"65 334 OFFCURVE",
"73 312 CURVE SMOOTH",
"79 293 OFFCURVE",
"90 276 OFFCURVE",
"95 256 CURVE SMOOTH",
"98 246 OFFCURVE",
"99 237 OFFCURVE",
"99 228 CURVE SMOOTH",
"99 181 OFFCURVE",
"67 146 OFFCURVE",
"49 157 CURVE SMOOTH",
"43 161 OFFCURVE",
"40 154 OFFCURVE",
"45 151 CURVE SMOOTH",
"51 147 OFFCURVE",
"59 145 OFFCURVE",
"67 145 CURVE SMOOTH"
);
}
);
width = 554;
}
);
note = U;
unicode = 0055;
},
{
color = 11;
glyphname = Uacute;
lastChange = "2021-08-23 17:44:31 +0000";
layers = (
{
layerId = "C2A7C206-1962-4FAA-88DB-FE8C23752EC9";
paths = (
{
closed = 1;
nodes = (
"327 -12 OFFCURVE",
"424 141 OFFCURVE",
"478 235 CURVE",
"460 188 OFFCURVE",
"442 139 OFFCURVE",
"433 91 CURVE SMOOTH",
"430 77 OFFCURVE",
"429 63 OFFCURVE",
"429 50 CURVE SMOOTH",
"429 18 OFFCURVE",
"440 -7 OFFCURVE",
"470 -11 CURVE SMOOTH",
"505 -16 OFFCURVE",
"580 63 OFFCURVE",
"600 88 CURVE SMOOTH",
"618 109 OFFCURVE",
"634 131 OFFCURVE",
"650 152 CURVE SMOOTH",
"652 155 OFFCURVE",
"651 158 OFFCURVE",
"650 160 CURVE",
"650 161 OFFCURVE",
"649 162 OFFCURVE",
"649 161 CURVE",
"594 94 LINE SMOOTH",
"549 41 OFFCURVE",
"519 20 OFFCURVE",
"501 20 CURVE SMOOTH",
"484 20 OFFCURVE",
"477 40 OFFCURVE",
"477 69 CURVE SMOOTH",
"477 109 OFFCURVE",
"491 169 OFFCURVE",
"506 220 CURVE SMOOTH",
"533 309 OFFCURVE",
"566 397 OFFCURVE",
"604 480 CURVE SMOOTH",
"612 497 OFFCURVE",
"629 514 OFFCURVE",
"646 518 CURVE SMOOTH",
"649 519 OFFCURVE",
"651 529 OFFCURVE",
"643 529 CURVE SMOOTH",
"642 529 OFFCURVE",
"641 529 OFFCURVE",
"639 528 CURVE SMOOTH",
"622 523 OFFCURVE",
"590 504 OFFCURVE",
"582 496 CURVE",
"555 496 OFFCURVE",
"556 475 OFFCURVE",
"552 461 CURVE SMOOTH",
"543 431 OFFCURVE",
"540 416 OFFCURVE",
"534 396 CURVE",
"532 392 OFFCURVE",
"531 387 OFFCURVE",
"529 382 CURVE SMOOTH",
"502 309 OFFCURVE",
"433 170 OFFCURVE",
"387 115 CURVE SMOOTH",
"340 60 OFFCURVE",
"295 34 OFFCURVE",
"263 34 CURVE SMOOTH",
"231 34 OFFCURVE",
"211 58 OFFCURVE",
"211 106 CURVE SMOOTH",
"211 121 OFFCURVE",
"213 137 OFFCURVE",
"217 155 CURVE SMOOTH",
"241 274 OFFCURVE",
"301 379 OFFCURVE",
"316 406 CURVE SMOOTH",
"321 415 OFFCURVE",
"326 423 OFFCURVE",
"334 431 CURVE SMOOTH",
"342 439 OFFCURVE",
"345 446 OFFCURVE",
"345 451 CURVE SMOOTH",
"345 461 OFFCURVE",
"334 466 OFFCURVE",
"322 466 CURVE SMOOTH",
"310 466 OFFCURVE",
"298 462 OFFCURVE",
"295 454 CURVE SMOOTH",
"260 362 OFFCURVE",
"220 269 OFFCURVE",
"185 173 CURVE SMOOTH",
"176 148 OFFCURVE",
"166 110 OFFCURVE",
"166 76 CURVE SMOOTH",
"166 29 OFFCURVE",
"183 -12 OFFCURVE",
"241 -12 CURVE SMOOTH"
);
},
{
closed = 1;
nodes = (
"95 145 OFFCURVE",
"129 170 OFFCURVE",
"129 212 CURVE SMOOTH",
"129 219 OFFCURVE",
"128 226 OFFCURVE",
"126 234 CURVE SMOOTH",
"116 268 OFFCURVE",
"83 310 OFFCURVE",
"83 349 CURVE SMOOTH",
"83 388 OFFCURVE",
"106 417 OFFCURVE",
"152 433 CURVE SMOOTH",
"197 450 OFFCURVE",
"285 475 OFFCURVE",
"358 499 CURVE SMOOTH",
"381 507 OFFCURVE",
"389 520 OFFCURVE",
"389 528 CURVE SMOOTH",
"389 532 OFFCURVE",
"387 534 OFFCURVE",
"384 534 CURVE SMOOTH",
"382 534 OFFCURVE",
"380 533 OFFCURVE",
"377 531 CURVE",
"353 509 OFFCURVE",
"256 484 OFFCURVE",
"219 478 CURVE SMOOTH",
"160 468 OFFCURVE",
"62 456 OFFCURVE",
"62 370 CURVE SMOOTH",
"62 353 OFFCURVE",
"65 334 OFFCURVE",
"73 312 CURVE SMOOTH",
"79 293 OFFCURVE",
"90 276 OFFCURVE",
"95 256 CURVE SMOOTH",
"98 246 OFFCURVE",
"99 237 OFFCURVE",
"99 228 CURVE SMOOTH",
"99 181 OFFCURVE",
"67 146 OFFCURVE",
"49 157 CURVE SMOOTH",
"43 161 OFFCURVE",
"40 154 OFFCURVE",
"45 151 CURVE SMOOTH",
"51 147 OFFCURVE",
"59 145 OFFCURVE",
"67 145 CURVE SMOOTH"
);
},
{
closed = 1;
nodes = (
"466 534 OFFCURVE",
"471 537 OFFCURVE",
"554 590 CURVE SMOOTH",
"600 618 LINE SMOOTH",
"606 622 OFFCURVE",
"610 626 OFFCURVE",
"612 631 CURVE SMOOTH",
"614 635 OFFCURVE",
"615 639 OFFCURVE",
"615 642 CURVE SMOOTH",
"615 649 OFFCURVE",
"611 654 OFFCURVE",
"604 654 CURVE SMOOTH",
"603 654 LINE SMOOTH",
"599 654 OFFCURVE",
"594 652 OFFCURVE",
"589 648 CURVE SMOOTH",
"570 636 OFFCURVE",
"539 613 OFFCURVE",
"495 581 CURVE SMOOTH",
"444 542 OFFCURVE",
"455 545 OFFCURVE",
"452 538 CURVE",
"452 535 OFFCURVE",
"454 534 OFFCURVE",
"456 534 CURVE SMOOTH"
);
}
);
width = 554;
}
);
note = Uacute;
unicode = 00DA;
},
{
color = 11;
glyphname = Ucircumflex;
lastChange = "2021-08-23 17:44:31 +0000";
layers = (
{
layerId = "C2A7C206-1962-4FAA-88DB-FE8C23752EC9";
paths = (
{
closed = 1;
nodes = (
"327 -12 OFFCURVE",
"424 141 OFFCURVE",
"478 235 CURVE",
"460 188 OFFCURVE",
"442 139 OFFCURVE",
"433 91 CURVE SMOOTH",
"430 77 OFFCURVE",
"429 63 OFFCURVE",
"429 50 CURVE SMOOTH",
"429 18 OFFCURVE",
"440 -7 OFFCURVE",
"470 -11 CURVE SMOOTH",
"505 -16 OFFCURVE",
"580 63 OFFCURVE",
"600 88 CURVE SMOOTH",
"618 109 OFFCURVE",
"634 131 OFFCURVE",
"650 152 CURVE SMOOTH",
"652 155 OFFCURVE",
"651 158 OFFCURVE",
"650 160 CURVE",
"650 161 OFFCURVE",
"649 162 OFFCURVE",
"649 161 CURVE",
"594 94 LINE SMOOTH",
"549 41 OFFCURVE",
"519 20 OFFCURVE",
"501 20 CURVE SMOOTH",
"484 20 OFFCURVE",
"477 40 OFFCURVE",
"477 69 CURVE SMOOTH",
"477 109 OFFCURVE",
"491 169 OFFCURVE",
"506 220 CURVE SMOOTH",
"533 309 OFFCURVE",
"566 397 OFFCURVE",
"604 480 CURVE SMOOTH",
"612 497 OFFCURVE",
"629 514 OFFCURVE",
"646 518 CURVE SMOOTH",
"649 519 OFFCURVE",
"651 529 OFFCURVE",
"643 529 CURVE SMOOTH",
"642 529 OFFCURVE",
"641 529 OFFCURVE",
"639 528 CURVE SMOOTH",
"622 523 OFFCURVE",
"590 504 OFFCURVE",
"582 496 CURVE",
"555 496 OFFCURVE",
"556 475 OFFCURVE",
"552 461 CURVE SMOOTH",
"543 431 OFFCURVE",
"540 416 OFFCURVE",
"534 396 CURVE",
"532 392 OFFCURVE",
"531 387 OFFCURVE",
"529 382 CURVE SMOOTH",
"502 309 OFFCURVE",
"433 170 OFFCURVE",
"387 115 CURVE SMOOTH",
"340 60 OFFCURVE",
"295 34 OFFCURVE",
"263 34 CURVE SMOOTH",
"231 34 OFFCURVE",
"211 58 OFFCURVE",
"211 106 CURVE SMOOTH",
"211 121 OFFCURVE",
"213 137 OFFCURVE",
"217 155 CURVE SMOOTH",
"241 274 OFFCURVE",
"301 379 OFFCURVE",
"316 406 CURVE SMOOTH",
"321 415 OFFCURVE",
"326 423 OFFCURVE",
"334 431 CURVE SMOOTH",
"342 439 OFFCURVE",
"345 446 OFFCURVE",
"345 451 CURVE SMOOTH",
"345 461 OFFCURVE",
"334 466 OFFCURVE",
"322 466 CURVE SMOOTH",
"310 466 OFFCURVE",
"298 462 OFFCURVE",
"295 454 CURVE SMOOTH",
"260 362 OFFCURVE",
"220 269 OFFCURVE",
"185 173 CURVE SMOOTH",
"176 148 OFFCURVE",
"166 110 OFFCURVE",
"166 76 CURVE SMOOTH",
"166 29 OFFCURVE",
"183 -12 OFFCURVE",
"241 -12 CURVE SMOOTH"
);
},
{
closed = 1;
nodes = (
"95 145 OFFCURVE",
"129 170 OFFCURVE",
"129 212 CURVE SMOOTH",
"129 219 OFFCURVE",
"128 226 OFFCURVE",
"126 234 CURVE SMOOTH",
"116 268 OFFCURVE",
"83 310 OFFCURVE",
"83 349 CURVE SMOOTH",
"83 388 OFFCURVE",
"106 417 OFFCURVE",
"152 433 CURVE SMOOTH",
"197 450 OFFCURVE",
"285 475 OFFCURVE",
"358 499 CURVE SMOOTH",
"381 507 OFFCURVE",
"389 520 OFFCURVE",
"389 528 CURVE SMOOTH",
"389 532 OFFCURVE",
"387 534 OFFCURVE",
"384 534 CURVE SMOOTH",
"382 534 OFFCURVE",
"380 533 OFFCURVE",
"377 531 CURVE",
"353 509 OFFCURVE",
"256 484 OFFCURVE",
"219 478 CURVE SMOOTH",
"160 468 OFFCURVE",
"62 456 OFFCURVE",
"62 370 CURVE SMOOTH",
"62 353 OFFCURVE",
"65 334 OFFCURVE",
"73 312 CURVE SMOOTH",
"79 293 OFFCURVE",
"90 276 OFFCURVE",
"95 256 CURVE SMOOTH",
"98 246 OFFCURVE",
"99 237 OFFCURVE",
"99 228 CURVE SMOOTH",
"99 181 OFFCURVE",
"67 146 OFFCURVE",
"49 157 CURVE SMOOTH",
"43 161 OFFCURVE",
"40 154 OFFCURVE",
"45 151 CURVE SMOOTH",
"51 147 OFFCURVE",
"59 145 OFFCURVE",
"67 145 CURVE SMOOTH"
);
},
{
closed = 1;
nodes = (
"419 554 OFFCURVE",
"459 572 OFFCURVE",
"533 607 CURVE",
"550 559 LINE SMOOTH",
"552 555 OFFCURVE",
"556 554 OFFCURVE",
"561 554 CURVE SMOOTH",
"566 554 OFFCURVE",
"568 557 OFFCURVE",
"569 558 CURVE",
"569 560 OFFCURVE",
"568 586 OFFCURVE",
"564 635 CURVE SMOOTH",
"564 634 LINE",
"563 636 OFFCURVE",
"561 638 OFFCURVE",
"556 638 CURVE SMOOTH",
"551 638 OFFCURVE",
"544 637 OFFCURVE",
"535 636 CURVE",
"451 586 OFFCURVE",
"409 560 OFFCURVE",
"406 559 CURVE",
"407 556 OFFCURVE",
"409 554 OFFCURVE",
"415 554 CURVE SMOOTH"
);
}
);
width = 554;
}
);
note = Ucircumflex;
unicode = 00DB;
},
{
color = 11;
glyphname = Udieresis;
lastChange = "2021-08-23 17:44:31 +0000";
layers = (
{
layerId = "C2A7C206-1962-4FAA-88DB-FE8C23752EC9";
paths = (
{
closed = 1;
nodes = (
"327 -12 OFFCURVE",
"424 141 OFFCURVE",
"478 235 CURVE",
"460 188 OFFCURVE",
"442 139 OFFCURVE",
"433 91 CURVE SMOOTH",
"430 77 OFFCURVE",
"429 63 OFFCURVE",
"429 50 CURVE SMOOTH",
"429 18 OFFCURVE",
"440 -7 OFFCURVE",
"470 -11 CURVE SMOOTH",
"505 -16 OFFCURVE",
"580 63 OFFCURVE",
"600 88 CURVE SMOOTH",
"618 109 OFFCURVE",
"634 131 OFFCURVE",
"650 152 CURVE SMOOTH",
"652 155 OFFCURVE",
"651 158 OFFCURVE",
"650 160 CURVE",
"650 161 OFFCURVE",
"649 162 OFFCURVE",
"649 161 CURVE",
"594 94 LINE SMOOTH",
"549 41 OFFCURVE",
"519 20 OFFCURVE",
"501 20 CURVE SMOOTH",
"484 20 OFFCURVE",
"477 40 OFFCURVE",
"477 69 CURVE SMOOTH",
"477 109 OFFCURVE",
"491 169 OFFCURVE",
"506 220 CURVE SMOOTH",
"533 309 OFFCURVE",
"566 397 OFFCURVE",
"604 480 CURVE SMOOTH",
"612 497 OFFCURVE",
"629 514 OFFCURVE",
"646 518 CURVE SMOOTH",
"649 519 OFFCURVE",
"651 529 OFFCURVE",
"643 529 CURVE SMOOTH",
"642 529 OFFCURVE",
"641 529 OFFCURVE",
"639 528 CURVE SMOOTH",
"622 523 OFFCURVE",
"590 504 OFFCURVE",
"582 496 CURVE",
"555 496 OFFCURVE",
"556 475 OFFCURVE",
"552 461 CURVE SMOOTH",
"543 431 OFFCURVE",
"540 416 OFFCURVE",
"534 396 CURVE",
"532 392 OFFCURVE",
"531 387 OFFCURVE",
"529 382 CURVE SMOOTH",
"502 309 OFFCURVE",
"433 170 OFFCURVE",
"387 115 CURVE SMOOTH",
"340 60 OFFCURVE",
"295 34 OFFCURVE",
"263 34 CURVE SMOOTH",
"231 34 OFFCURVE",
"211 58 OFFCURVE",
"211 106 CURVE SMOOTH",
"211 121 OFFCURVE",
"213 137 OFFCURVE",
"217 155 CURVE SMOOTH",
"241 274 OFFCURVE",
"301 379 OFFCURVE",
"316 406 CURVE SMOOTH",
"321 415 OFFCURVE",
"326 423 OFFCURVE",
"334 431 CURVE SMOOTH",
"342 439 OFFCURVE",
"345 446 OFFCURVE",
"345 451 CURVE SMOOTH",
"345 461 OFFCURVE",
"334 466 OFFCURVE",
"322 466 CURVE SMOOTH",
"310 466 OFFCURVE",
"298 462 OFFCURVE",
"295 454 CURVE SMOOTH",
"260 362 OFFCURVE",
"220 269 OFFCURVE",
"185 173 CURVE SMOOTH",
"176 148 OFFCURVE",
"166 110 OFFCURVE",
"166 76 CURVE SMOOTH",
"166 29 OFFCURVE",
"183 -12 OFFCURVE",
"241 -12 CURVE SMOOTH"
);
},
{
closed = 1;
nodes = (
"95 145 OFFCURVE",
"129 170 OFFCURVE",
"129 212 CURVE SMOOTH",
"129 219 OFFCURVE",
"128 226 OFFCURVE",
"126 234 CURVE SMOOTH",
"116 268 OFFCURVE",
"83 310 OFFCURVE",
"83 349 CURVE SMOOTH",
"83 388 OFFCURVE",
"106 417 OFFCURVE",
"152 433 CURVE SMOOTH",
"197 450 OFFCURVE",
"285 475 OFFCURVE",
"358 499 CURVE SMOOTH",
"381 507 OFFCURVE",
"389 520 OFFCURVE",
"389 528 CURVE SMOOTH",
"389 532 OFFCURVE",
"387 534 OFFCURVE",
"384 534 CURVE SMOOTH",
"382 534 OFFCURVE",
"380 533 OFFCURVE",
"377 531 CURVE",
"353 509 OFFCURVE",
"256 484 OFFCURVE",
"219 478 CURVE SMOOTH",
"160 468 OFFCURVE",
"62 456 OFFCURVE",
"62 370 CURVE SMOOTH",
"62 353 OFFCURVE",
"65 334 OFFCURVE",
"73 312 CURVE SMOOTH",
"79 293 OFFCURVE",
"90 276 OFFCURVE",
"95 256 CURVE SMOOTH",
"98 246 OFFCURVE",
"99 237 OFFCURVE",
"99 228 CURVE SMOOTH",
"99 181 OFFCURVE",
"67 146 OFFCURVE",
"49 157 CURVE SMOOTH",
"43 161 OFFCURVE",
"40 154 OFFCURVE",
"45 151 CURVE SMOOTH",
"51 147 OFFCURVE",
"59 145 OFFCURVE",
"67 145 CURVE SMOOTH"
);
},
{
closed = 1;
nodes = (
"453 567 OFFCURVE",
"464 573 OFFCURVE",
"468 585 CURVE SMOOTH",
"469 589 OFFCURVE",
"472 596 OFFCURVE",
"478 605 CURVE SMOOTH",
"484 615 OFFCURVE",
"487 622 OFFCURVE",
"489 627 CURVE",
"489 629 OFFCURVE",
"488 631 OFFCURVE",
"484 631 CURVE SMOOTH",
"474 631 OFFCURVE",
"463 627 OFFCURVE",
"452 618 CURVE SMOOTH",
"441 609 OFFCURVE",
"434 600 OFFCURVE",
"431 590 CURVE SMOOTH",
"430 585 OFFCURVE",
"429 581 OFFCURVE",
"429 578 CURVE SMOOTH",
"429 571 OFFCURVE",
"432 567 OFFCURVE",
"438 567 CURVE SMOOTH"
);
},
{
closed = 1;
nodes = (
"551 567 OFFCURVE",
"562 573 OFFCURVE",
"565 585 CURVE SMOOTH",
"566 589 OFFCURVE",
"570 596 OFFCURVE",
"575 605 CURVE SMOOTH",
"581 615 OFFCURVE",
"585 622 OFFCURVE",
"586 627 CURVE",
"587 629 OFFCURVE",
"586 631 OFFCURVE",
"581 631 CURVE SMOOTH",
"571 631 OFFCURVE",
"561 627 OFFCURVE",
"550 618 CURVE SMOOTH",
"539 609 OFFCURVE",
"532 600 OFFCURVE",
"529 590 CURVE SMOOTH",
"528 585 OFFCURVE",
"527 581 OFFCURVE",
"527 577 CURVE SMOOTH",
"527 571 OFFCURVE",
"529 567 OFFCURVE",
"535 567 CURVE SMOOTH"
);
}
);
width = 554;
}
);
note = Udieresis;
unicode = 00DC;
},
{
color = 11;
glyphname = Ugrave;
lastChange = "2021-08-23 17:44:31 +0000";
layers = (
{
layerId = "C2A7C206-1962-4FAA-88DB-FE8C23752EC9";
paths = (
{
closed = 1;
nodes = (
"327 -12 OFFCURVE",
"424 141 OFFCURVE",
"478 235 CURVE",
"460 188 OFFCURVE",
"442 139 OFFCURVE",
"433 91 CURVE SMOOTH",
"430 77 OFFCURVE",
"429 63 OFFCURVE",
"429 50 CURVE SMOOTH",
"429 18 OFFCURVE",
"440 -7 OFFCURVE",
"470 -11 CURVE SMOOTH",
"505 -16 OFFCURVE",
"580 63 OFFCURVE",
"600 88 CURVE SMOOTH",
"618 109 OFFCURVE",
"634 131 OFFCURVE",
"650 152 CURVE SMOOTH",
"652 155 OFFCURVE",
"651 158 OFFCURVE",
"650 160 CURVE",
"650 161 OFFCURVE",
"649 162 OFFCURVE",
"649 161 CURVE",
"594 94 LINE SMOOTH",
"549 41 OFFCURVE",
"519 20 OFFCURVE",
"501 20 CURVE SMOOTH",
"484 20 OFFCURVE",
"477 40 OFFCURVE",
"477 69 CURVE SMOOTH",
"477 109 OFFCURVE",
"491 169 OFFCURVE",
"506 220 CURVE SMOOTH",
"533 309 OFFCURVE",
"566 397 OFFCURVE",
"604 480 CURVE SMOOTH",
"612 497 OFFCURVE",
"629 514 OFFCURVE",
"646 518 CURVE SMOOTH",
"649 519 OFFCURVE",
"651 529 OFFCURVE",
"643 529 CURVE SMOOTH",
"642 529 OFFCURVE",
"641 529 OFFCURVE",
"639 528 CURVE SMOOTH",
"622 523 OFFCURVE",
"590 504 OFFCURVE",
"582 496 CURVE",
"555 496 OFFCURVE",
"556 475 OFFCURVE",
"552 461 CURVE SMOOTH",
"543 431 OFFCURVE",
"540 416 OFFCURVE",
"534 396 CURVE",
"532 392 OFFCURVE",
"531 387 OFFCURVE",
"529 382 CURVE SMOOTH",
"502 309 OFFCURVE",
"433 170 OFFCURVE",
"387 115 CURVE SMOOTH",
"340 60 OFFCURVE",
"295 34 OFFCURVE",
"263 34 CURVE SMOOTH",
"231 34 OFFCURVE",
"211 58 OFFCURVE",
"211 106 CURVE SMOOTH",
"211 121 OFFCURVE",
"213 137 OFFCURVE",
"217 155 CURVE SMOOTH",
"241 274 OFFCURVE",
"301 379 OFFCURVE",
"316 406 CURVE SMOOTH",
"321 415 OFFCURVE",
"326 423 OFFCURVE",
"334 431 CURVE SMOOTH",
"342 439 OFFCURVE",
"345 446 OFFCURVE",
"345 451 CURVE SMOOTH",
"345 461 OFFCURVE",
"334 466 OFFCURVE",
"322 466 CURVE SMOOTH",
"310 466 OFFCURVE",
"298 462 OFFCURVE",
"295 454 CURVE SMOOTH",
"260 362 OFFCURVE",
"220 269 OFFCURVE",
"185 173 CURVE SMOOTH",
"176 148 OFFCURVE",
"166 110 OFFCURVE",
"166 76 CURVE SMOOTH",
"166 29 OFFCURVE",
"183 -12 OFFCURVE",
"241 -12 CURVE SMOOTH"
);
},
{
closed = 1;
nodes = (
"95 145 OFFCURVE",
"129 170 OFFCURVE",
"129 212 CURVE SMOOTH",
"129 219 OFFCURVE",
"128 226 OFFCURVE",
"126 234 CURVE SMOOTH",
"116 268 OFFCURVE",
"83 310 OFFCURVE",
"83 349 CURVE SMOOTH",
"83 388 OFFCURVE",
"106 417 OFFCURVE",
"152 433 CURVE SMOOTH",
"197 450 OFFCURVE",
"285 475 OFFCURVE",
"358 499 CURVE SMOOTH",
"381 507 OFFCURVE",
"389 520 OFFCURVE",
"389 528 CURVE SMOOTH",
"389 532 OFFCURVE",
"387 534 OFFCURVE",
"384 534 CURVE SMOOTH",
"382 534 OFFCURVE",
"380 533 OFFCURVE",
"377 531 CURVE",
"353 509 OFFCURVE",
"256 484 OFFCURVE",
"219 478 CURVE SMOOTH",
"160 468 OFFCURVE",
"62 456 OFFCURVE",
"62 370 CURVE SMOOTH",
"62 353 OFFCURVE",
"65 334 OFFCURVE",
"73 312 CURVE SMOOTH",
"79 293 OFFCURVE",
"90 276 OFFCURVE",
"95 256 CURVE SMOOTH",
"98 246 OFFCURVE",
"99 237 OFFCURVE",
"99 228 CURVE SMOOTH",
"99 181 OFFCURVE",
"67 146 OFFCURVE",
"49 157 CURVE SMOOTH",
"43 161 OFFCURVE",
"40 154 OFFCURVE",
"45 151 CURVE SMOOTH",
"51 147 OFFCURVE",
"59 145 OFFCURVE",
"67 145 CURVE SMOOTH"
);
},
{
closed = 1;
nodes = (
"536 541 OFFCURVE",
"537 543 OFFCURVE",
"538 544 CURVE",
"540 550 OFFCURVE",
"525 566 OFFCURVE",
"499 589 CURVE SMOOTH",
"472 612 OFFCURVE",
"456 625 OFFCURVE",
"453 625 CURVE SMOOTH",
"441 625 OFFCURVE",
"433 618 OFFCURVE",
"429 605 CURVE SMOOTH",
"428 601 OFFCURVE",
"429 597 OFFCURVE",
"433 594 CURVE SMOOTH",
"441 587 OFFCURVE",
"458 577 OFFCURVE",
"482 564 CURVE SMOOTH",
"508 548 OFFCURVE",
"525 540 OFFCURVE",
"532 540 CURVE"
);
}
);
width = 554;
}
);
note = Ugrave;
unicode = 00D9;
},
{
color = 11;
glyphname = Uhorn;
lastChange = "2021-08-23 17:44:31 +0000";
layers = (
{
layerId = "C2A7C206-1962-4FAA-88DB-FE8C23752EC9";
paths = (
{
closed = 1;
nodes = (
"327 -12 OFFCURVE",
"424 141 OFFCURVE",
"478 235 CURVE",
"460 188 OFFCURVE",
"442 139 OFFCURVE",
"433 91 CURVE SMOOTH",
"430 77 OFFCURVE",
"429 63 OFFCURVE",
"429 50 CURVE SMOOTH",
"429 18 OFFCURVE",
"440 -7 OFFCURVE",
"470 -11 CURVE SMOOTH",
"505 -16 OFFCURVE",
"580 63 OFFCURVE",
"600 88 CURVE SMOOTH",
"618 109 OFFCURVE",
"634 131 OFFCURVE",
"650 152 CURVE SMOOTH",
"652 155 OFFCURVE",
"651 158 OFFCURVE",
"650 160 CURVE",
"650 161 OFFCURVE",
"649 162 OFFCURVE",
"649 161 CURVE",
"594 94 LINE SMOOTH",
"550 40 OFFCURVE",
"520 19 OFFCURVE",
"503 19 CURVE SMOOTH",
"485 19 OFFCURVE",
"478 39 OFFCURVE",
"478 70 CURVE SMOOTH",
"478 111 OFFCURVE",
"491 170 OFFCURVE",
"506 220 CURVE SMOOTH",
"532 306 OFFCURVE",
"564 392 OFFCURVE",
"601 473 CURVE",
"608 470 OFFCURVE",
"614 468 OFFCURVE",
"621 468 CURVE SMOOTH",
"626 468 LINE SMOOTH",
"659 472 OFFCURVE",
"699 500 OFFCURVE",
"726 557 CURVE SMOOTH",
"734 573 OFFCURVE",
"737 589 OFFCURVE",
"737 601 CURVE SMOOTH",
"737 614 OFFCURVE",
"733 622 OFFCURVE",
"728 622 CURVE SMOOTH",
"724 622 OFFCURVE",
"718 616 OFFCURVE",
"713 602 CURVE SMOOTH",
"681 525 OFFCURVE",
"649 484 OFFCURVE",
"618 484 CURVE SMOOTH",
"609 484 OFFCURVE",
"600 488 OFFCURVE",
"592 497 CURVE",
"589 504 OFFCURVE",
"585 511 OFFCURVE",
"582 511 CURVE SMOOTH",
"581 511 OFFCURVE",
"581 511 OFFCURVE",
"580 510 CURVE",
"579 510 LINE SMOOTH",
"553 505 OFFCURVE",
"556 475 OFFCURVE",
"552 461 CURVE SMOOTH",
"543 431 OFFCURVE",
"540 416 OFFCURVE",
"534 396 CURVE",
"532 392 OFFCURVE",
"531 387 OFFCURVE",
"529 382 CURVE SMOOTH",
"502 309 OFFCURVE",
"433 170 OFFCURVE",
"387 115 CURVE SMOOTH",
"340 60 OFFCURVE",
"295 34 OFFCURVE",
"263 34 CURVE SMOOTH",
"231 34 OFFCURVE",
"211 58 OFFCURVE",
"211 106 CURVE SMOOTH",
"211 121 OFFCURVE",
"213 137 OFFCURVE",
"217 155 CURVE SMOOTH",
"241 274 OFFCURVE",
"301 379 OFFCURVE",
"316 406 CURVE SMOOTH",
"321 415 OFFCURVE",
"326 423 OFFCURVE",
"334 431 CURVE SMOOTH",
"342 439 OFFCURVE",
"345 446 OFFCURVE",
"345 451 CURVE SMOOTH",
"345 461 OFFCURVE",
"334 466 OFFCURVE",
"322 466 CURVE SMOOTH",
"310 466 OFFCURVE",
"298 462 OFFCURVE",
"295 454 CURVE SMOOTH",
"260 362 OFFCURVE",
"220 269 OFFCURVE",
"185 173 CURVE SMOOTH",
"176 148 OFFCURVE",
"166 110 OFFCURVE",
"166 76 CURVE SMOOTH",
"166 29 OFFCURVE",
"183 -12 OFFCURVE",
"241 -12 CURVE SMOOTH"
);
},
{
closed = 1;
nodes = (
"95 145 OFFCURVE",
"129 170 OFFCURVE",
"129 212 CURVE SMOOTH",
"129 219 OFFCURVE",
"128 226 OFFCURVE",
"126 234 CURVE SMOOTH",
"116 268 OFFCURVE",
"83 310 OFFCURVE",
"83 349 CURVE SMOOTH",
"83 388 OFFCURVE",
"106 417 OFFCURVE",
"152 433 CURVE SMOOTH",
"197 450 OFFCURVE",
"285 475 OFFCURVE",
"358 499 CURVE SMOOTH",
"381 507 OFFCURVE",
"389 520 OFFCURVE",
"389 528 CURVE SMOOTH",
"389 532 OFFCURVE",
"387 534 OFFCURVE",
"384 534 CURVE SMOOTH",
"382 534 OFFCURVE",
"380 533 OFFCURVE",
"377 531 CURVE",
"353 509 OFFCURVE",
"256 484 OFFCURVE",
"219 478 CURVE SMOOTH",
"160 468 OFFCURVE",
"62 456 OFFCURVE",
"62 370 CURVE SMOOTH",
"62 353 OFFCURVE",
"65 334 OFFCURVE",
"73 312 CURVE SMOOTH",
"79 293 OFFCURVE",
"90 276 OFFCURVE",
"95 256 CURVE SMOOTH",
"98 246 OFFCURVE",
"99 237 OFFCURVE",
"99 228 CURVE SMOOTH",
"99 181 OFFCURVE",
"67 146 OFFCURVE",
"49 157 CURVE SMOOTH",
"43 161 OFFCURVE",
"40 154 OFFCURVE",
"45 151 CURVE SMOOTH",
"51 147 OFFCURVE",
"59 145 OFFCURVE",
"67 145 CURVE SMOOTH"
);
}
);
width = 554;
}
);
unicode = 01AF;
},
{
glyphname = V;
lastChange = "2021-08-23 17:44:31 +0000";
layers = (
{
layerId = "C2A7C206-1962-4FAA-88DB-FE8C23752EC9";
paths = (
{
closed = 1;
nodes = (
"261 -56 OFFCURVE",
"282 -39 OFFCURVE",
"299 -5 CURVE SMOOTH",
"306 9 OFFCURVE",
"310 23 OFFCURVE",
"310 40 CURVE SMOOTH",
"310 49 OFFCURVE",
"309 58 OFFCURVE",
"306 69 CURVE",
"361 145 OFFCURVE",
"610 320 OFFCURVE",
"610 481 CURVE SMOOTH",
"610 497 OFFCURVE",
"607 512 OFFCURVE",
"602 528 CURVE SMOOTH",
"599 536 OFFCURVE",
"586 531 OFFCURVE",
"586 523 CURVE SMOOTH",
"586 522 LINE SMOOTH",
"587 515 OFFCURVE",
"587 507 OFFCURVE",
"587 500 CURVE SMOOTH",
"587 348 OFFCURVE",
"389 192 OFFCURVE",
"296 83 CURVE",
"271 158 OFFCURVE",
"249 243 OFFCURVE",
"249 329 CURVE SMOOTH",
"249 369 OFFCURVE",
"254 408 OFFCURVE",
"265 448 CURVE",
"314 458 OFFCURVE",
"365 468 OFFCURVE",
"396 477 CURVE SMOOTH",
"407 480 OFFCURVE",
"412 484 OFFCURVE",
"412 488 CURVE SMOOTH",
"412 491 OFFCURVE",
"408 493 OFFCURVE",
"402 493 CURVE SMOOTH",
"399 493 OFFCURVE",
"396 493 OFFCURVE",
"393 492 CURVE SMOOTH",
"368 484 OFFCURVE",
"318 477 OFFCURVE",
"273 473 CURVE",
"273 474 OFFCURVE",
"273 475 OFFCURVE",
"274 476 CURVE",
"277 485 OFFCURVE",
"262 482 OFFCURVE",
"260 473 CURVE SMOOTH",
"260 472 OFFCURVE",
"259 472 OFFCURVE",
"259 471 CURVE",
"250 470 OFFCURVE",
"242 470 OFFCURVE",
"234 470 CURVE SMOOTH",
"147 463 OFFCURVE",
"23 452 OFFCURVE",
"23 363 CURVE SMOOTH",
"23 344 OFFCURVE",
"29 322 OFFCURVE",
"41 296 CURVE SMOOTH",
"50 276 OFFCURVE",
"65 258 OFFCURVE",
"73 237 CURVE SMOOTH",
"77 227 OFFCURVE",
"78 217 OFFCURVE",
"78 208 CURVE SMOOTH",
"78 162 OFFCURVE",
"38 126 OFFCURVE",
"11 126 CURVE SMOOTH",
"8 126 OFFCURVE",
"4 127 OFFCURVE",
"1 128 CURVE SMOOTH",
"-5 131 OFFCURVE",
"-8 129 OFFCURVE",
"-8 126 CURVE SMOOTH",
"-8 124 OFFCURVE",
"-7 122 OFFCURVE",
"-4 121 CURVE SMOOTH",
"4 117 OFFCURVE",
"13 116 OFFCURVE",
"22 116 CURVE SMOOTH",
"60 116 OFFCURVE",
"105 147 OFFCURVE",
"105 192 CURVE SMOOTH",
"105 241 OFFCURVE",
"50 283 OFFCURVE",
"50 334 CURVE SMOOTH",
"50 376 OFFCURVE",
"83 407 OFFCURVE",
"149 424 CURVE SMOOTH",
"166 429 OFFCURVE",
"205 436 OFFCURVE",
"247 445 CURVE",
"227 412 OFFCURVE",
"203 410 OFFCURVE",
"203 333 CURVE SMOOTH",
"203 316 OFFCURVE",
"205 296 OFFCURVE",
"207 272 CURVE SMOOTH",
"214 201 OFFCURVE",
"246 145 OFFCURVE",
"265 57 CURVE",
"240 15 OFFCURVE",
"231 -14 OFFCURVE",
"231 -33 CURVE SMOOTH",
"231 -48 OFFCURVE",
"237 -56 OFFCURVE",
"247 -56 CURVE SMOOTH"
);
}
);
width = 424;
}
);
note = V;
unicode = 0056;
},
{
glyphname = W;
lastChange = "2021-08-23 17:44:31 +0000";
layers = (
{
layerId = "C2A7C206-1962-4FAA-88DB-FE8C23752EC9";
paths = (
{
closed = 1;
nodes = (
"194 -21 OFFCURVE",
"208 -17 OFFCURVE",
"216 -7 CURVE",
"226 14 OFFCURVE",
"238 42 OFFCURVE",
"251 74 CURVE",
"286 145 OFFCURVE",
"372 269 OFFCURVE",
"451 339 CURVE SMOOTH",
"487 371 OFFCURVE",
"517 389 OFFCURVE",
"537 389 CURVE SMOOTH",
"560 389 OFFCURVE",
"573 367 OFFCURVE",
"573 318 CURVE SMOOTH",
"573 307 OFFCURVE",
"572 294 OFFCURVE",
"571 279 CURVE SMOOTH",
"563 188 OFFCURVE",
"534 70 OFFCURVE",
"521 52 CURVE SMOOTH",
"513 41 OFFCURVE",
"486 6 OFFCURVE",
"486 -7 CURVE SMOOTH",
"486 -18 OFFCURVE",
"497 -20 OFFCURVE",
"504 -20 CURVE SMOOTH",
"516 -20 OFFCURVE",
"539 -15 OFFCURVE",
"547 -5 CURVE SMOOTH",
"555 5 OFFCURVE",
"559 14 OFFCURVE",
"563 29 CURVE SMOOTH",
"571 62 LINE",
"601 99 OFFCURVE",
"636 138 OFFCURVE",
"655 156 CURVE SMOOTH",
"709 207 OFFCURVE",
"797 277 OFFCURVE",
"850 347 CURVE SMOOTH",
"873 379 OFFCURVE",
"902 428 OFFCURVE",
"902 473 CURVE SMOOTH",
"902 500 OFFCURVE",
"891 526 OFFCURVE",
"859 544 CURVE SMOOTH",
"853 547 OFFCURVE",
"846 544 OFFCURVE",
"846 540 CURVE SMOOTH",
"846 539 OFFCURVE",
"847 537 OFFCURVE",
"849 536 CURVE SMOOTH",
"860 528 OFFCURVE",
"864 512 OFFCURVE",
"864 495 CURVE SMOOTH",
"864 485 OFFCURVE",
"863 475 OFFCURVE",
"861 467 CURVE SMOOTH",
"836 362 OFFCURVE",
"730 257 OFFCURVE",
"645 170 CURVE SMOOTH",
"631 155 OFFCURVE",
"606 133 OFFCURVE",
"583 111 CURVE",
"598 182 OFFCURVE",
"616 280 OFFCURVE",
"616 353 CURVE SMOOTH",
"616 414 OFFCURVE",
"604 459 OFFCURVE",
"569 459 CURVE SMOOTH",
"568 459 LINE SMOOTH",
"504 459 OFFCURVE",
"365 282 OFFCURVE",
"281 159 CURVE",
"302 224 OFFCURVE",
"317 294 OFFCURVE",
"317 356 CURVE SMOOTH",
"317 399 OFFCURVE",
"310 438 OFFCURVE",
"291 467 CURVE SMOOTH",
"265 507 OFFCURVE",
"224 523 OFFCURVE",
"181 523 CURVE SMOOTH",
"99 523 OFFCURVE",
"10 463 OFFCURVE",
"10 386 CURVE SMOOTH",
"10 359 OFFCURVE",
"21 330 OFFCURVE",
"47 300 CURVE SMOOTH",
"60 284 OFFCURVE",
"75 270 OFFCURVE",
"89 254 CURVE SMOOTH",
"109 233 OFFCURVE",
"116 210 OFFCURVE",
"116 190 CURVE SMOOTH",
"116 163 OFFCURVE",
"101 142 OFFCURVE",
"87 146 CURVE SMOOTH",
"80 147 OFFCURVE",
"79 140 OFFCURVE",
"86 138 CURVE SMOOTH",
"113 132 OFFCURVE",
"144 159 OFFCURVE",
"144 196 CURVE SMOOTH",
"144 210 OFFCURVE",
"139 227 OFFCURVE",
"127 243 CURVE SMOOTH",
"104 273 OFFCURVE",
"56 302 OFFCURVE",
"40 340 CURVE SMOOTH",
"36 349 OFFCURVE",
"35 358 OFFCURVE",
"35 368 CURVE SMOOTH",
"35 435 OFFCURVE",
"119 504 OFFCURVE",
"187 504 CURVE SMOOTH",
"221 504 OFFCURVE",
"250 487 OFFCURVE",
"263 446 CURVE SMOOTH",
"272 418 OFFCURVE",
"276 388 OFFCURVE",
"276 357 CURVE SMOOTH",
"276 231 OFFCURVE",
"212 91 OFFCURVE",
"169 -8 CURVE SMOOTH",
"165 -17 OFFCURVE",
"173 -21 OFFCURVE",
"184 -21 CURVE SMOOTH"
);
}
);
width = 723;
}
);
note = W;
unicode = 0057;
},
{
glyphname = X;
lastChange = "2021-08-23 17:44:31 +0000";
layers = (
{
layerId = "C2A7C206-1962-4FAA-88DB-FE8C23752EC9";
paths = (
{
closed = 1;
nodes = (
"236 -14 OFFCURVE",
"325 93 OFFCURVE",
"403 204 CURVE",
"424 148 OFFCURVE",
"448 94 OFFCURVE",
"474 54 CURVE SMOOTH",
"499 14 OFFCURVE",
"526 -11 OFFCURVE",
"557 -11 CURVE SMOOTH",
"576 -11 OFFCURVE",
"596 -2 OFFCURVE",
"618 18 CURVE SMOOTH",
"650 48 OFFCURVE",
"679 93 OFFCURVE",
"702 124 CURVE SMOOTH",
"705 128 OFFCURVE",
"703 132 OFFCURVE",
"700 132 CURVE SMOOTH",
"699 132 OFFCURVE",
"697 132 OFFCURVE",
"696 130 CURVE SMOOTH",
"646 61 OFFCURVE",
"614 43 OFFCURVE",
"573 43 CURVE SMOOTH",
"519 43 OFFCURVE",
"468 133 OFFCURVE",
"426 237 CURVE",
"463 291 OFFCURVE",
"498 345 OFFCURVE",
"531 383 CURVE SMOOTH",
"545 399 OFFCURVE",
"571 423 OFFCURVE",
"578 423 CURVE SMOOTH",
"607 425 OFFCURVE",
"618 451 OFFCURVE",
"631 480 CURVE SMOOTH",
"639 497 OFFCURVE",
"654 518 OFFCURVE",
"666 527 CURVE SMOOTH",
"668 529 OFFCURVE",
"669 538 OFFCURVE",
"662 538 CURVE SMOOTH",
"660 538 OFFCURVE",
"658 537 OFFCURVE",
"656 536 CURVE SMOOTH",
"625 521 OFFCURVE",
"595 502 OFFCURVE",
"573 476 CURVE SMOOTH",
"516 410 OFFCURVE",
"467 331 OFFCURVE",
"417 259 CURVE",
"381 351 OFFCURVE",
"353 449 OFFCURVE",
"338 500 CURVE",
"366 503 OFFCURVE",
"391 507 OFFCURVE",
"403 514 CURVE SMOOTH",
"408 517 OFFCURVE",
"410 520 OFFCURVE",
"410 523 CURVE SMOOTH",
"410 526 OFFCURVE",
"407 529 OFFCURVE",
"402 529 CURVE SMOOTH",
"400 529 OFFCURVE",
"398 529 OFFCURVE",
"395 527 CURVE SMOOTH",
"384 520 OFFCURVE",
"361 517 OFFCURVE",
"334 515 CURVE",
"333 517 OFFCURVE",
"332 520 OFFCURVE",
"332 522 CURVE",
"329 530 OFFCURVE",
"318 535 OFFCURVE",
"307 535 CURVE SMOOTH",
"296 535 OFFCURVE",
"286 531 OFFCURVE",
"282 524 CURVE",
"282 521 OFFCURVE",
"283 518 OFFCURVE",
"284 515 CURVE",
"265 515 OFFCURVE",
"248 516 OFFCURVE",
"237 517 CURVE SMOOTH",
"217 519 OFFCURVE",
"193 523 OFFCURVE",
"170 523 CURVE SMOOTH",
"123 523 OFFCURVE",
"79 510 OFFCURVE",
"79 451 CURVE SMOOTH",
"79 435 OFFCURVE",
"82 415 OFFCURVE",
"90 391 CURVE SMOOTH",
"97 371 OFFCURVE",
"107 351 OFFCURVE",
"113 330 CURVE SMOOTH",
"115 320 OFFCURVE",
"116 310 OFFCURVE",
"116 301 CURVE SMOOTH",
"116 263 OFFCURVE",
"96 238 OFFCURVE",
"79 238 CURVE SMOOTH",
"75 238 OFFCURVE",
"71 240 OFFCURVE",
"67 243 CURVE SMOOTH",
"61 249 OFFCURVE",
"58 243 OFFCURVE",
"63 238 CURVE SMOOTH",
"73 229 OFFCURVE",
"86 224 OFFCURVE",
"99 224 CURVE SMOOTH",
"123 224 OFFCURVE",
"147 241 OFFCURVE",
"147 276 CURVE SMOOTH",
"147 283 OFFCURVE",
"146 291 OFFCURVE",
"144 299 CURVE SMOOTH",
"134 336 OFFCURVE",
"101 387 OFFCURVE",
"101 426 CURVE SMOOTH",
"101 464 OFFCURVE",
"124 487 OFFCURVE",
"170 491 CURVE SMOOTH",
"192 493 OFFCURVE",
"241 493 OFFCURVE",
"289 496 CURVE",
"298 471 OFFCURVE",
"310 461 OFFCURVE",
"320 461 CURVE",
"331 425 OFFCURVE",
"358 325 OFFCURVE",
"394 226 CURVE",
"333 141 OFFCURVE",
"247 29 OFFCURVE",
"141 29 CURVE SMOOTH",
"86 29 OFFCURVE",
"36 68 OFFCURVE",
"35 180 CURVE SMOOTH",
"35 187 OFFCURVE",
"37 195 OFFCURVE",
"33 195 CURVE SMOOTH",
"32 195 OFFCURVE",
"30 195 OFFCURVE",
"28 193 CURVE",
"20 171 OFFCURVE",
"15 146 OFFCURVE",
"15 122 CURVE SMOOTH",
"15 52 OFFCURVE",
"53 -14 OFFCURVE",
"132 -14 CURVE SMOOTH"
);
}
);
width = 625;
}
);
note = X;
unicode = 0058;
},
{
glyphname = Y;
lastChange = "2021-08-23 17:44:31 +0000";
layers = (
{
layerId = "C2A7C206-1962-4FAA-88DB-FE8C23752EC9";
paths = (
{
closed = 1;
nodes = (
"84 -290 OFFCURVE",
"164 -208 OFFCURVE",
"226 -119 CURVE SMOOTH",
"281 -38 OFFCURVE",
"492 388 OFFCURVE",
"534 416 CURVE SMOOTH",
"585 449 OFFCURVE",
"559 465 OFFCURVE",
"580 487 CURVE SMOOTH",
"581 488 OFFCURVE",
"584 493 OFFCURVE",
"584 495 CURVE SMOOTH",
"584 497 OFFCURVE",
"583 498 OFFCURVE",
"581 498 CURVE SMOOTH",
"580 498 OFFCURVE",
"578 498 OFFCURVE",
"576 497 CURVE SMOOTH",
"526 481 OFFCURVE",
"460 356 OFFCURVE",
"436 310 CURVE SMOOTH",
"401 244 OFFCURVE",
"369 175 OFFCURVE",
"335 109 CURVE",
"336 126 OFFCURVE",
"337 147 OFFCURVE",
"337 170 CURVE SMOOTH",
"337 237 OFFCURVE",
"330 321 OFFCURVE",
"302 390 CURVE SMOOTH",
"266 477 OFFCURVE",
"202 510 OFFCURVE",
"144 510 CURVE SMOOTH",
"81 510 OFFCURVE",
"27 471 OFFCURVE",
"27 420 CURVE SMOOTH",
"27 392 OFFCURVE",
"43 360 OFFCURVE",
"82 329 CURVE SMOOTH",
"97 317 OFFCURVE",
"120 306 OFFCURVE",
"136 294 CURVE SMOOTH",
"168 269 OFFCURVE",
"180 241 OFFCURVE",
"180 224 CURVE SMOOTH",
"180 213 OFFCURVE",
"174 206 OFFCURVE",
"166 208 CURVE SMOOTH",
"160 210 OFFCURVE",
"162 204 OFFCURVE",
"168 203 CURVE SMOOTH",
"188 199 OFFCURVE",
"207 213 OFFCURVE",
"207 236 CURVE SMOOTH",
"207 250 OFFCURVE",
"199 267 OFFCURVE",
"179 285 CURVE SMOOTH",
"152 309 OFFCURVE",
"106 331 OFFCURVE",
"82 361 CURVE SMOOTH",
"68 379 OFFCURVE",
"62 399 OFFCURVE",
"62 418 CURVE SMOOTH",
"62 456 OFFCURVE",
"88 488 OFFCURVE",
"126 492 CURVE SMOOTH",
"203 500 OFFCURVE",
"249 432 OFFCURVE",
"271 350 CURVE SMOOTH",
"284 300 OFFCURVE",
"289 245 OFFCURVE",
"289 195 CURVE SMOOTH",
"289 142 OFFCURVE",
"284 94 OFFCURVE",
"279 64 CURVE SMOOTH",
"277 55 OFFCURVE",
"302 65 OFFCURVE",
"319 78 CURVE",
"284 13 OFFCURVE",
"246 -48 OFFCURVE",
"200 -103 CURVE SMOOTH",
"142 -169 OFFCURVE",
"78 -220 OFFCURVE",
"29 -227 CURVE SMOOTH",
"19 -229 OFFCURVE",
"9 -229 OFFCURVE",
"-1 -229 CURVE SMOOTH",
"-62 -229 OFFCURVE",
"-116 -195 OFFCURVE",
"-129 -69 CURVE SMOOTH",
"-130 -61 OFFCURVE",
"-129 -51 OFFCURVE",
"-133 -51 CURVE SMOOTH",
"-134 -51 OFFCURVE",
"-137 -52 OFFCURVE",
"-140 -55 CURVE",
"-145 -75 OFFCURVE",
"-147 -95 OFFCURVE",
"-147 -115 CURVE SMOOTH",
"-147 -205 OFFCURVE",
"-97 -290 OFFCURVE",
"-8 -290 CURVE SMOOTH"
);
}
);
width = 388;
}
);
note = Y;
unicode = 0059;
},
